Recursive Sans-Casual C.ufo
<glyph name="numbersign" format="2">
  <advance width="600"/>
  <unicode hex="0023"/>
  <outline>
    <contour>
      <point x="158" y="708" type="curve"/>
      <point x="158" y="419.0"/>
      <point x="116.0" y="235.0"/>
      <point x="13" y="-2" type="curve"/>
      <point x="41" y="-16"/>
      <point x="62" y="-20"/>
      <point x="98" y="-20.0" type="curve" smooth="yes"/>
      <point x="148.0" y="-20.0"/>
      <point x="174" y="-1"/>
      <point x="183" y="21" type="curve" smooth="yes"/>
      <point x="285.0" y="271"/>
      <point x="314.0" y="450"/>
      <point x="314.0" y="674" type="curve" smooth="yes"/>
      <point x="314.0" y="700"/>
      <point x="280.0" y="720.0"/>
      <point x="236" y="720" type="curve" smooth="yes"/>
      <point x="206" y="720.0"/>
      <point x="189" y="716"/>
    </contour>
    <contour>
      <point x="378" y="708" type="curve"/>
      <point x="378" y="419.0"/>
      <point x="336.0" y="235.0"/>
      <point x="233" y="-2" type="curve"/>
      <point x="261" y="-16"/>
      <point x="282" y="-20"/>
      <point x="318" y="-20.0" type="curve" smooth="yes"/>
      <point x="368.0" y="-20.0"/>
      <point x="394" y="-1"/>
      <point x="403" y="21" type="curve" smooth="yes"/>
      <point x="505.0" y="271"/>
      <point x="534.0" y="450"/>
      <point x="534.0" y="674" type="curve" smooth="yes"/>
      <point x="534.0" y="700"/>
      <point x="500.0" y="720.0"/>
      <point x="456" y="720" type="curve" smooth="yes"/>
      <point x="426" y="720.0"/>
      <point x="409" y="716"/>
    </contour>
    <contour>
      <point x="595.0" y="400.0" type="line"/>
      <point x="595.0" y="406.0"/>
      <point x="595.0" y="412.0"/>
      <point x="595.0" y="419.0" type="curve" smooth="yes"/>
      <point x="595.0" y="487.0"/>
      <point x="585.0" y="534.0"/>
      <point x="569.0" y="550.0" type="curve" smooth="yes"/>
      <point x="554.0" y="565.0"/>
      <point x="534.0" y="570.0"/>
      <point x="488.0" y="570.0" type="curve" smooth="yes"/>
      <point x="47.0" y="570.0" type="line"/>
      <point x="43.0" y="549.0"/>
      <point x="40.0" y="526.0"/>
      <point x="40.0" y="507.0" type="curve" smooth="yes"/>
      <point x="40.0" y="456.0"/>
      <point x="57" y="400"/>
      <point x="113.0" y="400.0" type="curve" smooth="yes"/>
    </contour>
    <contour>
      <point x="5" y="300" type="line"/>
      <point x="5" y="294"/>
      <point x="5" y="288"/>
      <point x="5" y="281" type="curve" smooth="yes"/>
      <point x="5.0" y="213"/>
      <point x="15" y="166"/>
      <point x="31" y="150" type="curve" smooth="yes"/>
      <point x="46" y="135"/>
      <point x="66.0" y="130.0"/>
      <point x="112" y="130" type="curve" smooth="yes"/>
      <point x="553" y="130" type="line"/>
      <point x="557" y="151"/>
      <point x="560" y="194"/>
      <point x="560.0" y="213" type="curve" smooth="yes"/>
      <point x="560.0" y="264"/>
      <point x="543" y="300"/>
      <point x="487" y="300" type="curve" smooth="yes"/>
    </contour>
  </outline>
</glyph>
<glyph name="dollar" format="2">
  <advance width="600"/>
  <unicode hex="0024"/>
  <outline>
    <contour>
      <point x="350" y="720" type="curve" smooth="yes"/>
      <point x="179.0" y="720.0"/>
      <point x="48" y="642.6"/>
      <point x="48" y="505" type="curve" smooth="yes"/>
      <point x="48" y="500" type="line" smooth="yes"/>
      <point x="48" y="467.41975308641975"/>
      <point x="134.42085855765154" y="406.0862401317055"/>
      <point x="250" y="409" type="curve"/>
      <point x="240.6364329753236" y="429.8079267215031"/>
      <point x="238.0" y="455.1290322580645"/>
      <point x="238" y="474" type="curve" smooth="yes"/>
      <point x="238.0" y="507.9622641509434"/>
      <point x="263.1803278688525" y="524.0"/>
      <point x="366" y="524" type="curve" smooth="yes"/>
      <point x="442.2857142857143" y="524.0"/>
      <point x="490.61410038099785" y="516.263123327707"/>
      <point x="544" y="488" type="curve"/>
      <point x="548" y="488" type="line"/>
      <point x="562" y="522"/>
      <point x="570.0" y="552"/>
      <point x="570" y="588" type="curve" smooth="yes"/>
      <point x="570" y="625"/>
      <point x="563" y="659.0"/>
      <point x="537" y="685" type="curve" smooth="yes"/>
      <point x="513.3690002454957" y="709.6584345264392"/>
      <point x="455.6497175141243" y="720.0"/>
    </contour>
    <contour>
      <point x="409" y="387" type="curve" smooth="yes"/>
      <point x="299" y="423" type="line" smooth="yes"/>
      <point x="270.111738971023" y="432.4543399731198"/>
      <point x="238.0" y="446.375"/>
      <point x="238" y="474" type="curve" smooth="yes"/>
      <point x="238.0" y="520.5154639175257"/>
      <point x="241.28131757638107" y="548.4327962713555"/>
      <point x="254" y="568" type="curve"/>
      <point x="139.3515261723498" y="571.8863889433102"/>
      <point x="48.0" y="560.1538461538462"/>
      <point x="48" y="500" type="curve" smooth="yes"/>
      <point x="48.0" y="414.8461538461538"/>
      <point x="83.13989765021026" y="349.3949856792186"/>
      <point x="237" y="295" type="curve" smooth="yes"/>
      <point x="336" y="260" type="line" smooth="yes"/>
      <point x="383.3998142885741" y="243.24248989797886"/>
      <point x="399.0" y="227.4578313253012"/>
      <point x="399.0" y="187" type="curve" smooth="yes"/>
      <point x="399.0" y="166.22222222222223"/>
      <point x="399.0" y="152.77777777777777"/>
      <point x="399" y="132" type="curve"/>
      <point x="482.9666589956346" y="128.00158766687454"/>
      <point x="582.0" y="155.3235294117647"/>
      <point x="582" y="193" type="curve" smooth="yes"/>
      <point x="582.0" y="264.58288770053474"/>
      <point x="547.0038008365844" y="341.8351197262087"/>
    </contour>
    <contour>
      <point x="300" y="-25" type="curve" smooth="yes"/>
      <point x="498.0" y="-25.0"/>
      <point x="582" y="69.76415094339623"/>
      <point x="582" y="180" type="curve" smooth="yes"/>
      <point x="582" y="193" type="line" smooth="yes"/>
      <point x="582" y="222.08474576271186"/>
      <point x="526.0791417636322" y="250.99198564418913"/>
      <point x="447" y="259" type="curve"/>
      <point x="447" y="246"/>
      <point x="447" y="241"/>
      <point x="447" y="233" type="curve" smooth="yes"/>
      <point x="447.0" y="200.0"/>
      <point x="374.0" y="168.0"/>
      <point x="300" y="168" type="curve" smooth="yes"/>
      <point x="193.0" y="168.0"/>
      <point x="112.0" y="200.0"/>
      <point x="45" y="253" type="curve"/>
      <point x="41" y="253" type="line"/>
      <point x="36" y="237"/>
      <point x="33" y="209"/>
      <point x="33" y="175" type="curve" smooth="yes"/>
      <point x="33.0" y="103.81012658227849"/>
      <point x="48.08950180964565" y="60.91049819035435"/>
      <point x="82" y="27" type="curve" smooth="yes"/>
      <point x="117" y="-8"/>
      <point x="202.10185185185185" y="-25.0"/>
    </contour>
    <contour>
      <point x="392" y="439" type="line"/>
      <point x="477" y="729" type="line" smooth="yes"/>
      <point x="504" y="821"/>
      <point x="461" y="885.0"/>
      <point x="367" y="885" type="curve" smooth="yes"/>
      <point x="348" y="885"/>
      <point x="312" y="880"/>
      <point x="289" y="871" type="curve"/>
      <point x="303" y="839"/>
      <point x="312" y="807"/>
      <point x="312" y="763" type="curve" smooth="yes"/>
      <point x="312" y="488" type="line" smooth="yes"/>
      <point x="312" y="456"/>
      <point x="358" y="439"/>
      <point x="388" y="439" type="curve" smooth="yes"/>
    </contour>
    <contour>
      <point x="243" y="244" type="line"/>
      <point x="158" y="-39" type="line" smooth="yes"/>
      <point x="130" y="-132"/>
      <point x="174" y="-195.0"/>
      <point x="268" y="-195" type="curve" smooth="yes"/>
      <point x="286" y="-195"/>
      <point x="322" y="-190"/>
      <point x="346" y="-181" type="curve"/>
      <point x="332" y="-149"/>
      <point x="323" y="-117"/>
      <point x="323" y="-73" type="curve" smooth="yes"/>
      <point x="323" y="193" type="line" smooth="yes"/>
      <point x="323" y="224"/>
      <point x="277" y="244"/>
      <point x="247" y="244" type="curve" smooth="yes"/>
    </contour>
  </outline>
</glyph>
<glyph name="one" format="2">
  <advance width="600"/>
  <unicode hex="0031"/>
  <outline>
    <contour>
      <point x="448" y="77" type="curve"/>
      <point x="448" y="271"/>
      <point x="448" y="452"/>
      <point x="448" y="648" type="curve" smooth="yes"/>
      <point x="448" y="694"/>
      <point x="344.0" y="710.0"/>
      <point x="242" y="710" type="curve" smooth="yes"/>
      <point x="226" y="710" type="line"/>
      <point x="226" y="522"/>
      <point x="226" y="343"/>
      <point x="226.0" y="282" type="curve" smooth="yes"/>
      <point x="226" y="154.0"/>
      <point x="308" y="77"/>
    </contour>
    <contour>
      <point x="37" y="210" type="line"/>
      <point x="32" y="183"/>
      <point x="29" y="158"/>
      <point x="29" y="131" type="curve" smooth="yes"/>
      <point x="29" y="74"/>
      <point x="38" y="40"/>
      <point x="58" y="20" type="curve" smooth="yes"/>
      <point x="73" y="5"/>
      <point x="92" y="0"/>
      <point x="139" y="0" type="curve" smooth="yes"/>
      <point x="566" y="0" type="line"/>
      <point x="571" y="19"/>
      <point x="576" y="44"/>
      <point x="576.0" y="74" type="curve" smooth="yes"/>
      <point x="576.0" y="169.0"/>
      <point x="535.132530120482" y="210"/>
      <point x="448" y="210" type="curve" smooth="yes"/>
    </contour>
    <contour>
      <point x="101" y="395" type="curve" smooth="yes"/>
      <point x="125" y="395"/>
      <point x="157" y="414"/>
      <point x="191" y="449" type="curve" smooth="yes"/>
      <point x="244" y="501"/>
      <point x="291" y="579"/>
      <point x="291" y="615" type="curve" smooth="yes"/>
      <point x="291" y="676"/>
      <point x="269" y="710"/>
      <point x="231" y="710" type="curve"/>
      <point x="215" y="710" type="line"/>
      <point x="209" y="702"/>
      <point x="203" y="695"/>
      <point x="190" y="681" type="curve" smooth="yes"/>
      <point x="156" y="647"/>
      <point x="96" y="613"/>
      <point x="33" y="594" type="curve"/>
      <point x="33" y="564" type="line" smooth="yes"/>
      <point x="33" y="471"/>
      <point x="64" y="395"/>
    </contour>
  </outline>
</glyph>
<glyph name="two" format="2">
  <advance width="600"/>
  <unicode hex="0032"/>
  <outline>
    <contour>
      <point x="512" y="658" type="curve" smooth="yes"/>
      <point x="480" y="690"/>
      <point x="396.7315894183649" y="666.8991625878841"/>
      <point x="333" y="597" type="curve"/>
      <point x="357.0407199278" y="550.0113201411182"/>
      <point x="365" y="530"/>
      <point x="365" y="507" type="curve" smooth="yes"/>
      <point x="365.0" y="472.0"/>
      <point x="339" y="445"/>
      <point x="241" y="410" type="curve" smooth="yes"/>
      <point x="98.0" y="359.0"/>
      <point x="41.0" y="246"/>
      <point x="41" y="162" type="curve" smooth="yes"/>
      <point x="41" y="127"/>
      <point x="91.80473372781064" y="117.0"/>
      <point x="200" y="117" type="curve"/>
      <point x="200.0" y="201.0"/>
      <point x="224.0" y="241.0"/>
      <point x="323" y="271" type="curve" smooth="yes"/>
      <point x="512" y="328"/>
      <point x="560.0" y="413"/>
      <point x="560" y="512" type="curve" smooth="yes"/>
      <point x="560" y="517" type="line" smooth="yes"/>
      <point x="560" y="581.5801526717557"/>
      <point x="546.2826875115557" y="623.7173124884443"/>
    </contour>
    <contour>
      <point x="560" y="0" type="line"/>
      <point x="567" y="28"/>
      <point x="572" y="65"/>
      <point x="572" y="103" type="curve" smooth="yes"/>
      <point x="572.0" y="189.827868852459"/>
      <point x="546" y="210"/>
      <point x="462" y="210" type="curve" smooth="yes"/>
      <point x="446" y="210" type="line" smooth="yes"/>
      <point x="304" y="210.0"/>
      <point x="179" y="194"/>
      <point x="41" y="162" type="curve"/>
      <point x="41.0" y="159.0"/>
      <point x="41" y="156"/>
      <point x="41" y="152" type="curve" smooth="yes"/>
      <point x="41.0" y="87.48837209302326"/>
      <point x="87.0" y="0"/>
      <point x="123" y="0" type="curve" smooth="yes"/>
    </contour>
    <contour>
      <point x="312" y="720" type="curve" smooth="yes"/>
      <point x="226" y="720"/>
      <point x="136.23281146276693" y="701.2328114627669"/>
      <point x="103" y="668" type="curve" smooth="yes"/>
      <point x="73.1609256967045" y="638.1609256967045"/>
      <point x="68.0" y="603.0458715596329"/>
      <point x="68.0" y="550" type="curve" smooth="yes"/>
      <point x="68.0" y="510.90909090909093"/>
      <point x="71" y="487"/>
      <point x="82" y="460" type="curve"/>
      <point x="85" y="460" type="line"/>
      <point x="149" y="490"/>
      <point x="216" y="505"/>
      <point x="283" y="505.0" type="curve" smooth="yes"/>
      <point x="351" y="505"/>
      <point x="405.8727323690563" y="494.58376359459584"/>
      <point x="463" y="465" type="curve"/>
      <point x="544.6624202753711" y="561.134241589994"/>
      <point x="545.7936833970552" y="624.2063166029448"/>
      <point x="512" y="658" type="curve" smooth="yes"/>
      <point x="467.1260644010621" y="702.8739355989379"/>
      <point x="405.93939393939394" y="720.0"/>
    </contour>
  </outline>
</glyph>
<glyph name="three" format="2">
  <advance width="600"/>
  <unicode hex="0033"/>
  <outline>
    <contour>
      <point x="263" y="496" type="curve" smooth="yes"/>
      <point x="354" y="496.0"/>
      <point x="395.0" y="479.0"/>
      <point x="395" y="453" type="curve" smooth="yes"/>
      <point x="395" y="440"/>
      <point x="394.0" y="433.0"/>
      <point x="393" y="427" type="curve"/>
      <point x="488" y="433"/>
      <point x="560.0" y="489"/>
      <point x="560" y="536" type="curve"/>
      <point x="560" y="545" type="line" smooth="yes"/>
      <point x="560" y="645.0"/>
      <point x="475" y="721"/>
      <point x="290" y="721" type="curve" smooth="yes"/>
      <point x="210" y="721.0"/>
      <point x="142" y="710"/>
      <point x="106" y="674" type="curve" smooth="yes"/>
      <point x="73" y="641"/>
      <point x="61.0" y="598"/>
      <point x="61" y="527" type="curve" smooth="yes"/>
      <point x="61" y="490"/>
      <point x="64" y="469"/>
      <point x="70" y="450" type="curve"/>
      <point x="74" y="450" type="line"/>
      <point x="142" y="488"/>
      <point x="194" y="496"/>
    </contour>
    <contour>
      <point x="230" y="332" type="curve" smooth="yes"/>
      <point x="472" y="332"/>
      <point x="560.0" y="417.43859649122805"/>
      <point x="560" y="536" type="curve" smooth="yes"/>
      <point x="560.0" y="597.5"/>
      <point x="471.96479049583195" y="620.0235314755081"/>
      <point x="389" y="618" type="curve"/>
      <point x="395" y="607"/>
      <point x="399" y="581"/>
      <point x="399.0" y="543" type="curve" smooth="yes"/>
      <point x="399.0" y="445.0"/>
      <point x="323.0" y="405.0"/>
      <point x="169" y="405" type="curve"/>
      <point x="164" y="388"/>
      <point x="162" y="378"/>
      <point x="162" y="350" type="curve" smooth="yes"/>
      <point x="162.0" y="338.0"/>
      <point x="181.0" y="332"/>
    </contour>
    <contour>
      <point x="214" y="272" type="curve" smooth="yes"/>
      <point x="364.0" y="272.0"/>
      <point x="435.0" y="237.0"/>
      <point x="435" y="176" type="curve" smooth="yes"/>
      <point x="435" y="165"/>
      <point x="435" y="153"/>
      <point x="425" y="130" type="curve"/>
      <point x="512.9938926907081" y="131.99986119751608"/>
      <point x="570" y="161"/>
      <point x="570" y="189" type="curve" smooth="yes"/>
      <point x="570.0" y="304.7345971563981"/>
      <point x="414.8391959798995" y="374.0"/>
      <point x="169" y="374" type="curve"/>
      <point x="165.58549915800276" y="369.44733221067037"/>
      <point x="162.0" y="359.6"/>
      <point x="162" y="350" type="curve" smooth="yes"/>
      <point x="162.0" y="292.17241379310343"/>
      <point x="177" y="272"/>
    </contour>
    <contour>
      <point x="263" y="205" type="curve" smooth="yes"/>
      <point x="184.0" y="205.0"/>
      <point x="127" y="215"/>
      <point x="50" y="256" type="curve"/>
      <point x="46" y="256" type="line"/>
      <point x="38" y="236"/>
      <point x="33" y="212"/>
      <point x="33" y="171" type="curve" smooth="yes"/>
      <point x="33.0" y="101.0"/>
      <point x="43.731057870723234" y="57.268942129276766"/>
      <point x="74" y="27" type="curve" smooth="yes"/>
      <point x="108.46357610870923" y="-7.463576108709233"/>
      <point x="197" y="-20"/>
      <point x="300" y="-20" type="curve" smooth="yes"/>
      <point x="509.0" y="-20.0"/>
      <point x="570" y="67.57692307692308"/>
      <point x="570" y="178" type="curve" smooth="yes"/>
      <point x="570" y="189" type="line"/>
      <point x="570.0" y="234.40860215053763"/>
      <point x="515.004768625561" y="289.9998996078829"/>
      <point x="420" y="292" type="curve"/>
      <point x="423" y="281"/>
      <point x="425" y="272"/>
      <point x="425" y="260" type="curve" smooth="yes"/>
      <point x="425.0" y="215.81967213114754"/>
      <point x="370.0" y="205.0"/>
    </contour>
  </outline>
</glyph>
<glyph name="six" format="2">
  <advance width="600"/>
  <unicode hex="0036"/>
  <outline>
    <contour>
      <point x="112" y="52" type="curve" smooth="yes"/>
      <point x="154" y="10"/>
      <point x="252" y="31"/>
      <point x="310" y="115" type="curve"/>
      <point x="276" y="141"/>
      <point x="244" y="172"/>
      <point x="244" y="260" type="curve" smooth="yes"/>
      <point x="244" y="265" type="line" smooth="yes"/>
      <point x="244" y="465"/>
      <point x="255" y="536"/>
      <point x="299" y="584" type="curve"/>
      <point x="269" y="656"/>
      <point x="172" y="676"/>
      <point x="138" y="642" type="curve" smooth="yes"/>
      <point x="67" y="571"/>
      <point x="28" y="460"/>
      <point x="28" y="310" type="curve" smooth="yes"/>
      <point x="28" y="304" type="line" smooth="yes"/>
      <point x="28" y="215"/>
      <point x="47" y="117"/>
    </contour>
    <contour>
      <point x="311" y="-20" type="curve" smooth="yes"/>
      <point x="471.0" y="-20.0"/>
      <point x="575.0" y="71.0"/>
      <point x="575" y="213" type="curve" smooth="yes"/>
      <point x="575" y="218" type="line" smooth="yes"/>
      <point x="575.0" y="294.0"/>
      <point x="557.0" y="339.0"/>
      <point x="521" y="375" type="curve" smooth="yes"/>
      <point x="496" y="400"/>
      <point x="430.8590377260816" y="404.022615373238"/>
      <point x="351" y="311" type="curve"/>
      <point x="362" y="297"/>
      <point x="368" y="274"/>
      <point x="368" y="239" type="curve" smooth="yes"/>
      <point x="368" y="234" type="line" smooth="yes"/>
      <point x="368" y="197"/>
      <point x="347.0" y="180.0"/>
      <point x="298" y="180" type="curve" smooth="yes"/>
      <point x="230.0" y="180.0"/>
      <point x="212.0" y="193.0"/>
      <point x="152" y="270" type="curve"/>
      <point x="64.33600668391851" y="198.3721030222261"/>
      <point x="47.448472086097084" y="116.55152791390293"/>
      <point x="112" y="52" type="curve" smooth="yes"/>
      <point x="170" y="-6"/>
      <point x="255" y="-20"/>
    </contour>
    <contour>
      <point x="365" y="430" type="curve" smooth="yes"/>
      <point x="312" y="430"/>
      <point x="255" y="418"/>
      <point x="236" y="399" type="curve" smooth="yes"/>
      <point x="211.0" y="374.0"/>
      <point x="207.0" y="329"/>
      <point x="207" y="250" type="curve"/>
      <point x="248" y="266"/>
      <point x="274.0" y="272.0"/>
      <point x="303" y="272" type="curve" smooth="yes"/>
      <point x="370.0" y="272.0"/>
      <point x="419.0" y="258.0"/>
      <point x="452" y="214" type="curve"/>
      <point x="527" y="246"/>
      <point x="566" y="330"/>
      <point x="521" y="375" type="curve" smooth="yes"/>
      <point x="481.0" y="415.0"/>
      <point x="436.0" y="430.0"/>
    </contour>
    <contour>
      <point x="362" y="720.0" type="curve" smooth="yes"/>
      <point x="265" y="720"/>
      <point x="193" y="697"/>
      <point x="138" y="642" type="curve" smooth="yes"/>
      <point x="101" y="605"/>
      <point x="120" y="527"/>
      <point x="176" y="481" type="curve"/>
      <point x="237" y="512"/>
      <point x="278" y="520"/>
      <point x="355" y="520" type="curve" smooth="yes"/>
      <point x="432.5238095238095" y="520.0"/>
      <point x="473.0309716747961" y="515.0256643305249"/>
      <point x="531" y="495" type="curve"/>
      <point x="535" y="495" type="line"/>
      <point x="541" y="520"/>
      <point x="544" y="545"/>
      <point x="544" y="578" type="curve" smooth="yes"/>
      <point x="544.0" y="629.0"/>
      <point x="538" y="662"/>
      <point x="511" y="689" type="curve" smooth="yes"/>
      <point x="490.2680892938977" y="709.7319107061023"/>
      <point x="438.0851063829787" y="720.0"/>
    </contour>
  </outline>
</glyph>
<glyph name="nine" format="2">
  <advance width="600"/>
  <unicode hex="0039"/>
  <outline>
    <contour>
      <point x="437.0" y="477.0" type="curve"/>
      <point x="460.0" y="648.0"/>
      <point x="411.0" y="720.0"/>
      <point x="292.0" y="720.0" type="curve" smooth="yes"/>
      <point x="132.0" y="720.0"/>
      <point x="28.0" y="619.62660944206"/>
      <point x="28.0" y="463.0" type="curve" smooth="yes"/>
      <point x="28.0" y="458.0" type="line" smooth="yes"/>
      <point x="28.0" y="391.0"/>
      <point x="67.37114711960774" y="342.80629857638576"/>
      <point x="254.0" y="365.0" type="curve"/>
      <point x="239.56402521161837" y="389.74738535151135"/>
      <point x="235.0" y="408.8958333333333"/>
      <point x="235.0" y="451.0" type="curve" smooth="yes"/>
      <point x="235.0" y="456.0" type="line" smooth="yes"/>
      <point x="235.0" y="499.85185185185185"/>
      <point x="256.0" y="520.0"/>
      <point x="305.0" y="520.0" type="curve" smooth="yes"/>
      <point x="363.0" y="520.0"/>
      <point x="387.0" y="512.0"/>
    </contour>
    <contour>
      <point x="427.0" y="219.0" type="curve"/>
      <point x="366.0" y="188.0"/>
      <point x="325.0" y="180.0"/>
      <point x="248.0" y="180.0" type="curve" smooth="yes"/>
      <point x="171.0" y="180.0"/>
      <point x="132.0" y="187.0"/>
      <point x="74.0" y="207.0" type="curve"/>
      <point x="70.0" y="207.0" type="line"/>
      <point x="60.0" y="181.0"/>
      <point x="56.0" y="155.0"/>
      <point x="56.0" y="121.0" type="curve" smooth="yes"/>
      <point x="56.0" y="71.0"/>
      <point x="63.0" y="40.0"/>
      <point x="90.0" y="13.0" type="curve" smooth="yes"/>
      <point x="112.0" y="-9.0"/>
      <point x="164.0" y="-20.0"/>
      <point x="241.0" y="-20.0" type="curve" smooth="yes"/>
      <point x="403.0" y="-20.0"/>
      <point x="468.0" y="96.0"/>
    </contour>
    <contour>
      <point x="575.0" y="390.0" type="curve" smooth="yes"/>
      <point x="575.0" y="396.0" type="line" smooth="yes"/>
      <point x="575.0" y="608.0"/>
      <point x="471.0" y="720.0"/>
      <point x="292.0" y="720.0" type="curve" smooth="yes"/>
      <point x="250.0" y="720.0"/>
      <point x="236.0" y="700.0"/>
      <point x="258.0" y="585.0" type="curve"/>
      <point x="326.0" y="567.0"/>
      <point x="359.0" y="529.0"/>
      <point x="359.0" y="440.0" type="curve" smooth="yes"/>
      <point x="359.0" y="387.0" type="line" smooth="yes"/>
      <point x="359.0" y="165.0"/>
      <point x="335.0" y="119.0"/>
      <point x="209.0" y="70.0" type="curve"/>
      <point x="209.0" y="13.0"/>
      <point x="222.0" y="-20.0"/>
      <point x="241.0" y="-20.0" type="curve" smooth="yes"/>
      <point x="458.0" y="-20.0"/>
      <point x="575.0" y="126.0"/>
    </contour>
    <contour>
      <point x="238.0" y="246.0" type="curve" smooth="yes"/>
      <point x="291.0" y="246.0"/>
      <point x="348.0" y="258.0"/>
      <point x="367.0" y="277.0" type="curve" smooth="yes"/>
      <point x="392.0" y="302.0"/>
      <point x="396.0" y="347.0"/>
      <point x="396.0" y="426.0" type="curve"/>
      <point x="355.0" y="410.0"/>
      <point x="329.0" y="404.0"/>
      <point x="293.0" y="404.0" type="curve" smooth="yes"/>
      <point x="220.0" y="404.0"/>
      <point x="161.0" y="431.0"/>
      <point x="161.0" y="492.0" type="curve" smooth="yes"/>
      <point x="161.0" y="509.0"/>
      <point x="165.0" y="526.0"/>
      <point x="175.0" y="545.0" type="curve"/>
      <point x="94.0" y="545.0"/>
      <point x="28.0" y="497.0"/>
      <point x="28.0" y="458.0" type="curve" smooth="yes"/>
      <point x="28.0" y="321.0"/>
      <point x="103.0" y="246.0"/>
    </contour>
  </outline>
</glyph>
<glyph name="question" format="2">
  <advance width="600"/>
  <unicode hex="003F"/>
  <outline>
    <contour>
      <point x="305" y="720" type="curve" smooth="yes"/>
      <point x="207" y="720"/>
      <point x="123" y="702"/>
      <point x="92" y="671" type="curve" smooth="yes"/>
      <point x="74.01236240711862" y="653.0123624071186"/>
      <point x="64.0" y="620.0"/>
      <point x="64" y="575" type="curve" smooth="yes"/>
      <point x="64.0" y="541.0"/>
      <point x="67" y="521"/>
      <point x="76" y="492" type="curve"/>
      <point x="80" y="492" type="line"/>
      <point x="161" y="518"/>
      <point x="222.27966101694915" y="526.0"/>
      <point x="286" y="526" type="curve" smooth="yes"/>
      <point x="353.42857142857144" y="526.0"/>
      <point x="415.19010476294113" y="507.43932921364075"/>
      <point x="463" y="448" type="curve"/>
      <point x="513" y="512"/>
      <point x="547" y="601"/>
      <point x="492" y="655" type="curve" smooth="yes"/>
      <point x="450" y="695"/>
      <point x="378" y="720"/>
    </contour>
    <contour>
      <point x="492" y="655" type="curve" smooth="yes"/>
      <point x="457" y="690"/>
      <point x="357" y="668"/>
      <point x="296" y="612" type="curve"/>
      <point x="336" y="564"/>
      <point x="339" y="555"/>
      <point x="339" y="530" type="curve" smooth="yes"/>
      <point x="339" y="518"/>
      <point x="343" y="502"/>
      <point x="291" y="468" type="curve" smooth="yes"/>
      <point x="268" y="452" type="line" smooth="yes"/>
      <point x="198" y="403"/>
      <point x="188" y="384"/>
      <point x="188.0" y="350" type="curve" smooth="yes"/>
      <point x="188.0" y="347" type="line" smooth="yes"/>
      <point x="188" y="295"/>
      <point x="249.0" y="261"/>
      <point x="360" y="261" type="curve" smooth="yes"/>
      <point x="370" y="261" type="line"/>
      <point x="370" y="263" type="line" smooth="yes"/>
      <point x="370" y="279.1160289939099"/>
      <point x="380.5167411998227" y="295.6805166513323"/>
      <point x="394" y="303" type="curve" smooth="yes"/>
      <point x="429" y="322" type="line" smooth="yes"/>
      <point x="520.3872600308162" y="371.6102268738716"/>
      <point x="552" y="447.0"/>
      <point x="552" y="503" type="curve" smooth="yes"/>
      <point x="552" y="506" type="line" smooth="yes"/>
      <point x="552.0" y="573.0"/>
      <point x="534.0" y="613.0"/>
    </contour>
    <contour>
      <point x="410" y="0" type="curve"/>
      <point x="410.0" y="81" type="line" smooth="yes"/>
      <point x="410.0" y="170.0"/>
      <point x="359.0" y="201.0"/>
      <point x="260.0" y="201.0" type="curve" smooth="yes"/>
      <point x="211.0" y="201.0"/>
      <point x="182.0" y="197.0"/>
      <point x="150.0" y="189.0" type="curve"/>
      <point x="150.0" y="108" type="line" smooth="yes"/>
      <point x="150" y="19"/>
      <point x="201" y="-12"/>
      <point x="300" y="-12.0" type="curve" smooth="yes"/>
      <point x="349" y="-12"/>
      <point x="378" y="-8"/>
    </contour>
  </outline>
</glyph>
<glyph name="at" format="2">
  <advance width="600"/>
  <unicode hex="0040"/>
  <outline>
    <contour>
      <point x="442" y="530" type="curve" smooth="yes"/>
      <point x="428.80579583920866" y="544.2091429423908"/>
      <point x="419" y="552.0"/>
      <point x="380" y="552" type="curve" smooth="yes"/>
      <point x="368" y="552.0"/>
      <point x="346.72886989736304" y="547.7288698973631"/>
      <point x="319" y="520" type="curve" smooth="yes"/>
      <point x="288" y="489"/>
      <point x="285" y="410"/>
      <point x="306" y="367" type="curve"/>
      <point x="348.193686560709" y="389.7196773788433"/>
      <point x="360.5966386554622" y="400.0"/>
      <point x="395" y="400" type="curve" smooth="yes"/>
      <point x="405.0" y="400.0"/>
      <point x="428.0" y="398.0"/>
      <point x="447" y="382" type="curve"/>
      <point x="468" y="434"/>
      <point x="466" y="507"/>
    </contour>
    <contour>
      <point x="495" y="256" type="curve"/>
      <point x="464.0" y="211.0"/>
      <point x="429.0" y="171.0"/>
      <point x="401" y="171" type="curve" smooth="yes"/>
      <point x="391.0" y="171.0"/>
      <point x="389" y="199.16091954022988"/>
      <point x="389" y="241" type="curve" smooth="yes"/>
      <point x="389" y="250" type="line"/>
      <point x="389.0" y="413.0"/>
      <point x="396.4322149406842" y="455.86442988136844"/>
      <point x="425" y="513" type="curve"/>
      <point x="391.0" y="541.0"/>
      <point x="349.4119300497275" y="550.4119300497275"/>
      <point x="319" y="520" type="curve" smooth="yes"/>
      <point x="274.5044493197457" y="475.5044493197457"/>
      <point x="246" y="375.0"/>
      <point x="246" y="221" type="curve" smooth="yes"/>
      <point x="246" y="210" type="line" smooth="yes"/>
      <point x="246" y="74.0"/>
      <point x="286.7" y="7.0"/>
      <point x="357" y="7" type="curve" smooth="yes"/>
      <point x="419.0" y="7.0"/>
      <point x="449.0" y="32"/>
      <point x="484" y="89" type="curve" smooth="yes"/>
      <point x="508" y="122"/>
      <point x="517" y="187"/>
    </contour>
    <contour>
      <point x="566" y="12" type="line"/>
      <point x="562" y="54"/>
      <point x="560" y="102"/>
      <point x="560" y="124" type="curve"/>
      <point x="560" y="516" type="line" smooth="yes"/>
      <point x="560" y="672"/>
      <point x="483" y="760"/>
      <point x="340" y="760" type="curve" smooth="yes"/>
      <point x="292.0" y="760.0"/>
      <point x="299.0" y="695"/>
      <point x="299" y="666" type="curve"/>
      <point x="365" y="679"/>
      <point x="380" y="629"/>
      <point x="380.0" y="573" type="curve" smooth="yes"/>
      <point x="380" y="163" type="line" smooth="yes"/>
      <point x="380.0" y="90.0"/>
      <point x="446" y="12"/>
      <point x="545" y="12" type="curve" smooth="yes"/>
    </contour>
    <contour>
      <point x="42" y="226" type="curve" smooth="yes"/>
      <point x="42" y="209" type="line" smooth="yes"/>
      <point x="42" y="1.9639639639639483"/>
      <point x="84.243964742662" y="-83.2285354516959"/>
      <point x="134" y="-134" type="curve" smooth="yes"/>
      <point x="171" y="-170"/>
      <point x="232" y="-165"/>
      <point x="283" y="-112" type="curve"/>
      <point x="181.58458454502963" y="-21.740280245076363"/>
      <point x="174" y="46.888888888888914"/>
      <point x="174" y="213" type="curve" smooth="yes"/>
      <point x="174" y="224" type="line" smooth="yes"/>
      <point x="174" y="416"/>
      <point x="232" y="629"/>
      <point x="358" y="629" type="curve" smooth="yes"/>
      <point x="416" y="629"/>
      <point x="416" y="592"/>
      <point x="413" y="549" type="curve"/>
      <point x="459" y="570"/>
      <point x="480" y="604"/>
      <point x="480" y="643" type="curve"/>
      <point x="480" y="725"/>
      <point x="434" y="760"/>
      <point x="340" y="760" type="curve" smooth="yes"/>
      <point x="158" y="760"/>
      <point x="42" y="527"/>
    </contour>
    <contour>
      <point x="321" y="-200" type="curve" smooth="yes"/>
      <point x="393" y="-200"/>
      <point x="434" y="-192"/>
      <point x="453" y="-173" type="curve" smooth="yes"/>
      <point x="475" y="-152"/>
      <point x="478" y="-108"/>
      <point x="478" y="-49" type="curve"/>
      <point x="478" y="-31" type="line"/>
      <point x="474" y="-31" type="line"/>
      <point x="431.0121223759454" y="-51.41924187142594"/>
      <point x="394.0" y="-69.0"/>
      <point x="328" y="-69" type="curve" smooth="yes"/>
      <point x="250.0" y="-69.0"/>
      <point x="202.0" y="-33.0"/>
      <point x="144" y="26" type="curve"/>
      <point x="102" y="-8"/>
      <point x="87" y="-87"/>
      <point x="134" y="-134" type="curve" smooth="yes"/>
      <point x="176.0" y="-176.0"/>
      <point x="242.0" y="-200.0"/>
    </contour>
  </outline>
</glyph>
<glyph name="B" format="2">
  <advance width="600"/>
  <unicode hex="0042"/>
  <outline>
    <contour>
      <point x="259" y="30" type="curve"/>
      <point x="259" y="437" type="line" smooth="yes"/>
      <point x="259" y="552"/>
      <point x="156" y="597"/>
      <point x="35" y="597" type="curve"/>
      <point x="35" y="75" type="line"/>
      <point x="35" y="48"/>
      <point x="144" y="30"/>
    </contour>
    <contour>
      <point x="17" y="690" type="curve"/>
      <point x="10" y="665"/>
      <point x="5" y="630"/>
      <point x="5" y="580" type="curve" smooth="yes"/>
      <point x="5" y="526"/>
      <point x="11" y="505"/>
      <point x="20" y="496" type="curve" smooth="yes"/>
      <point x="25" y="491"/>
      <point x="27" y="490"/>
      <point x="35" y="490" type="curve" smooth="yes"/>
      <point x="49" y="490"/>
      <point x="71" y="494"/>
      <point x="112" y="499" type="curve" smooth="yes"/>
      <point x="154" y="505"/>
      <point x="199" y="510"/>
      <point x="270" y="510" type="curve" smooth="yes"/>
      <point x="349" y="510"/>
      <point x="379" y="500"/>
      <point x="423" y="479" type="curve"/>
      <point x="478.0" y="558.0"/>
      <point x="402.0" y="710.0"/>
      <point x="322" y="710" type="curve" smooth="yes"/>
      <point x="213" y="710"/>
      <point x="105" y="705"/>
    </contour>
    <contour>
      <point x="581" y="501" type="curve" smooth="yes"/>
      <point x="581" y="508" type="line" smooth="yes"/>
      <point x="581.0" y="593.0"/>
      <point x="496" y="710.0"/>
      <point x="322" y="710" type="curve" smooth="yes"/>
      <point x="271" y="710"/>
      <point x="242.0" y="681.0"/>
      <point x="242" y="595" type="curve"/>
      <point x="328" y="595.0"/>
      <point x="355.0" y="528"/>
      <point x="355" y="484" type="curve"/>
      <point x="355" y="481" type="line" smooth="yes"/>
      <point x="355" y="436"/>
      <point x="330" y="415"/>
      <point x="291" y="415" type="curve" smooth="yes"/>
      <point x="238" y="415"/>
      <point x="223" y="418"/>
      <point x="193" y="433" type="curve"/>
      <point x="180" y="413"/>
      <point x="176" y="395"/>
      <point x="176" y="360" type="curve" smooth="yes"/>
      <point x="176" y="318"/>
      <point x="216" y="275"/>
      <point x="270" y="275" type="curve" smooth="yes"/>
      <point x="283" y="275" type="line" smooth="yes"/>
      <point x="443" y="275"/>
      <point x="581" y="362"/>
    </contour>
    <contour>
      <point x="570" y="210" type="curve" smooth="yes"/>
      <point x="570" y="214" type="line" smooth="yes"/>
      <point x="570" y="296"/>
      <point x="506" y="380"/>
      <point x="424" y="380" type="curve" smooth="yes"/>
      <point x="418" y="380" type="line" smooth="yes"/>
      <point x="336" y="380"/>
      <point x="306" y="342"/>
      <point x="306" y="300" type="curve" smooth="yes"/>
      <point x="306" y="293" type="line"/>
      <point x="313" y="293" type="line" smooth="yes"/>
      <point x="334" y="293"/>
      <point x="345" y="278"/>
      <point x="345" y="235" type="curve" smooth="yes"/>
      <point x="345" y="230" type="line" smooth="yes"/>
      <point x="345" y="193"/>
      <point x="320" y="175"/>
      <point x="279" y="175" type="curve" smooth="yes"/>
      <point x="202" y="175"/>
      <point x="149" y="181"/>
      <point x="82" y="198" type="curve"/>
      <point x="53" y="169"/>
      <point x="35" y="121"/>
      <point x="35" y="75" type="curve" smooth="yes"/>
      <point x="35" y="24"/>
      <point x="124" y="-10"/>
      <point x="254" y="-10" type="curve" smooth="yes"/>
      <point x="267" y="-10" type="line" smooth="yes"/>
      <point x="460" y="-10"/>
      <point x="570" y="67"/>
    </contour>
  </outline>
</glyph>
<glyph name="E" format="2">
  <advance width="550"/>
  <unicode hex="0045"/>
  <anchor x="267" y="711" name="top"/>
  <anchor x="267" y="-1" name="bottom"/>
  <anchor x="417" y="-1" name="ogonek"/>
  <outline>
    <contour>
      <point x="11" y="700" type="line"/>
      <point x="7" y="672"/>
      <point x="5" y="643"/>
      <point x="5" y="615" type="curve" smooth="yes"/>
      <point x="5" y="550"/>
      <point x="9" y="517"/>
      <point x="18" y="508" type="curve" smooth="yes"/>
      <point x="25" y="501"/>
      <point x="28" y="500"/>
      <point x="35" y="500" type="curve" smooth="yes"/>
      <point x="524" y="500" type="line"/>
      <point x="529" y="528"/>
      <point x="530" y="542"/>
      <point x="530" y="565" type="curve" smooth="yes"/>
      <point x="530" y="614"/>
      <point x="518" y="656"/>
      <point x="498" y="676" type="curve" smooth="yes"/>
      <point x="479" y="695"/>
      <point x="466.0" y="700.0"/>
      <point x="435" y="700.0" type="curve" smooth="yes"/>
    </contour>
    <contour>
      <point x="260.0" y="135.0" type="curve"/>
      <point x="260.0" y="442.0" type="line" smooth="yes"/>
      <point x="260.0" y="535.0"/>
      <point x="161.0" y="607.0"/>
      <point x="35.0" y="607.0" type="curve"/>
      <point x="35.0" y="190.0" type="line" smooth="yes"/>
      <point x="35" y="150"/>
      <point x="98" y="135"/>
    </contour>
    <contour>
      <point x="35" y="200" type="line"/>
      <point x="35" y="175" type="line" smooth="yes"/>
      <point x="35" y="89"/>
      <point x="81" y="0"/>
      <point x="125" y="0.0" type="curve" smooth="yes"/>
      <point x="521" y="0" type="line"/>
      <point x="527" y="21"/>
      <point x="530" y="43"/>
      <point x="530" y="65" type="curve" smooth="yes"/>
      <point x="530" y="155"/>
      <point x="500.0" y="200.0"/>
      <point x="440" y="200.0" type="curve" smooth="yes"/>
    </contour>
    <contour>
      <point x="149" y="415" type="line"/>
      <point x="149" y="314"/>
      <point x="166" y="265"/>
      <point x="200" y="265" type="curve" smooth="yes"/>
      <point x="441" y="265" type="line"/>
      <point x="447" y="281"/>
      <point x="450" y="302"/>
      <point x="450" y="320" type="curve" smooth="yes"/>
      <point x="450" y="352"/>
      <point x="441" y="378"/>
      <point x="425" y="394" type="curve" smooth="yes"/>
      <point x="408" y="411"/>
      <point x="398.0" y="415.0"/>
      <point x="369" y="415.0" type="curve" smooth="yes"/>
    </contour>
  </outline>
</glyph>
<glyph name="G" format="2">
  <advance width="650"/>
  <unicode hex="0047"/>
  <anchor x="322" y="711" name="top"/>
  <anchor x="322" y="-1" name="bottom"/>
  <outline>
    <contour>
      <point x="363" y="530" type="curve" smooth="yes"/>
      <point x="388.3636363636364" y="530.0"/>
      <point x="413.0" y="526.0"/>
      <point x="433" y="496" type="curve"/>
      <point x="584.0" y="564.0"/>
      <point x="610.541176046589" y="575.458823953411"/>
      <point x="538" y="648" type="curve"/>
      <point x="482.71769098854224" y="703.2823090114578"/>
      <point x="428" y="720"/>
      <point x="355" y="720" type="curve" smooth="yes"/>
      <point x="187" y="720.0"/>
      <point x="20" y="605.0"/>
      <point x="20" y="304" type="curve" smooth="yes"/>
      <point x="20" y="296" type="line" smooth="yes"/>
      <point x="20" y="208"/>
      <point x="127" y="130"/>
      <point x="277" y="130" type="curve"/>
      <point x="264.592053783955" y="163.50145478332144"/>
      <point x="256" y="240.51351351351352"/>
      <point x="256" y="318" type="curve" smooth="yes"/>
      <point x="256" y="326" type="line" smooth="yes"/>
      <point x="256" y="494.0"/>
      <point x="298.0" y="530.0"/>
    </contour>
    <contour>
      <point x="360" y="170" type="curve" smooth="yes"/>
      <point x="260.55319148936167" y="170.0"/>
      <point x="246.0" y="211.0"/>
      <point x="246" y="322" type="curve"/>
      <point x="110" y="323"/>
      <point x="20" y="319"/>
      <point x="20" y="296" type="curve" smooth="yes"/>
      <point x="20.0" y="101.0"/>
      <point x="127.49517684887459" y="-20.0"/>
      <point x="351" y="-20" type="curve" smooth="yes"/>
      <point x="504.7842323651453" y="-20.0"/>
      <point x="612" y="44.0"/>
      <point x="612" y="136" type="curve" smooth="yes"/>
      <point x="612" y="141" type="line" smooth="yes"/>
      <point x="612" y="219"/>
      <point x="535" y="283"/>
      <point x="461" y="283" type="curve"/>
      <point x="462" y="273"/>
      <point x="463.0" y="256.0"/>
      <point x="463" y="242" type="curve" smooth="yes"/>
      <point x="463.0" y="199.0"/>
      <point x="428.2530120481928" y="170.0"/>
    </contour>
    <contour>
      <point x="354" y="385" type="line"/>
      <point x="350.0" y="370"/>
      <point x="348.0" y="354"/>
      <point x="348" y="336" type="curve" smooth="yes"/>
      <point x="348.0" y="296"/>
      <point x="359" y="274"/>
      <point x="375" y="258" type="curve" smooth="yes"/>
      <point x="398" y="235"/>
      <point x="425" y="226.0"/>
      <point x="505" y="226" type="curve"/>
      <point x="625" y="226" type="line"/>
      <point x="625.0" y="245" type="line"/>
      <point x="625.0" y="351.0"/>
      <point x="606" y="385"/>
      <point x="547" y="385" type="curve" smooth="yes"/>
    </contour>
    <contour>
      <point x="615" y="434" type="curve"/>
      <point x="615" y="466" type="line" smooth="yes"/>
      <point x="615" y="543"/>
      <point x="601" y="585"/>
      <point x="538" y="648" type="curve" smooth="yes"/>
      <point x="503" y="683"/>
      <point x="473" y="669"/>
      <point x="439" y="658" type="curve"/>
      <point x="409" y="591"/>
      <point x="390" y="531"/>
      <point x="390" y="487" type="curve" smooth="yes"/>
      <point x="390" y="482" type="line" smooth="yes"/>
      <point x="390" y="433"/>
      <point x="416" y="420"/>
      <point x="505" y="420.0" type="curve" smooth="yes"/>
      <point x="544" y="420"/>
      <point x="576" y="424"/>
    </contour>
  </outline>
</glyph>
<glyph name="U" format="2">
  <advance width="650"/>
  <unicode hex="0055"/>
  <anchor x="325" y="711" name="top"/>
  <anchor x="325" y="-1" name="bottom"/>
  <anchor x="475" y="-1" name="ogonek"/>
  <anchor x="325" y="711" name="ring"/>
  <outline>
    <contour>
      <point x="23" y="705" type="curve"/>
      <point x="31" y="663"/>
      <point x="35" y="616"/>
      <point x="35" y="560" type="curve" smooth="yes"/>
      <point x="35" y="174" type="line"/>
      <point x="35.0" y="121.0"/>
      <point x="136.0" y="79.0"/>
      <point x="212" y="79" type="curve"/>
      <point x="258.0" y="316.0"/>
      <point x="270.0" y="436.0"/>
      <point x="270" y="588" type="curve" smooth="yes"/>
      <point x="270" y="599" type="line" smooth="yes"/>
      <point x="270" y="679"/>
      <point x="221.0" y="710.0"/>
      <point x="125" y="710" type="curve" smooth="yes"/>
      <point x="89" y="710"/>
      <point x="56" y="708"/>
    </contour>
    <contour>
      <point x="193.0" y="-14.0" type="curve" smooth="yes"/>
      <point x="260.0" y="-14.0"/>
      <point x="341" y="21"/>
      <point x="404" y="132" type="curve" smooth="yes"/>
      <point x="423" y="166"/>
      <point x="437" y="219"/>
      <point x="403.0" y="293.0" type="curve"/>
      <point x="378" y="223"/>
      <point x="330" y="196.0"/>
      <point x="268" y="196.0" type="curve" smooth="yes"/>
      <point x="243" y="196"/>
      <point x="224" y="208"/>
      <point x="216.0" y="228.0" type="curve"/>
      <point x="69" y="223"/>
      <point x="35.0" y="194"/>
      <point x="35.0" y="174.0" type="curve" smooth="yes"/>
      <point x="35.0" y="88.0"/>
      <point x="121" y="-14"/>
    </contour>
    <contour>
      <point x="627.0" y="0.0" type="curve"/>
      <point x="619.0" y="38.0"/>
      <point x="615" y="83"/>
      <point x="615.0" y="140.0" type="curve" smooth="yes"/>
      <point x="615.0" y="624.0" type="line" smooth="yes"/>
      <point x="615.0" y="691.0"/>
      <point x="588.0" y="707.0"/>
      <point x="475.0" y="707.0" type="curve" smooth="yes"/>
      <point x="445.0" y="707.0"/>
      <point x="416.0" y="705.0"/>
      <point x="390.0" y="700.0" type="curve"/>
      <point x="390.0" y="106.0" type="line" smooth="yes"/>
      <point x="390.0" y="59.0"/>
      <point x="397.0" y="32.0"/>
      <point x="413.0" y="16.0" type="curve" smooth="yes"/>
      <point x="432.0" y="-3.0"/>
      <point x="464.0" y="-10.0"/>
      <point x="530.0" y="-10.0" type="curve" smooth="yes"/>
      <point x="564.0" y="-10.0"/>
      <point x="596.0" y="-7.0"/>
    </contour>
  </outline>
</glyph>
<glyph name="asciicircum" format="2">
  <advance width="600"/>
  <unicode hex="005E"/>
  <outline>
    <contour>
      <point x="182.0" y="334.0" type="line"/>
      <point x="223.0" y="497.0"/>
      <point x="264.0" y="570.0"/>
      <point x="357.0" y="652.0" type="curve"/>
      <point x="349.0" y="717.0"/>
      <point x="332.0" y="760.0"/>
      <point x="289.0" y="760.0" type="curve" smooth="yes"/>
      <point x="255.0" y="760.0" type="line"/>
      <point x="187.0" y="720.0"/>
      <point x="94.0" y="590.0"/>
      <point x="48.0" y="482.0" type="curve" smooth="yes"/>
      <point x="33.0" y="448.0"/>
      <point x="28.0" y="427.0"/>
      <point x="28.0" y="403.0" type="curve" smooth="yes"/>
      <point x="28.0" y="359.0"/>
      <point x="93.0" y="334.0"/>
      <point x="164.0" y="334.0" type="curve"/>
    </contour>
    <contour>
      <point x="568.0" y="352.0" type="curve"/>
      <point x="530.0" y="499.0"/>
      <point x="462.0" y="630.0"/>
      <point x="393.0" y="703.0" type="curve" smooth="yes"/>
      <point x="347.0" y="752.0"/>
      <point x="325.0" y="760.0"/>
      <point x="295.0" y="760.0" type="curve" smooth="yes"/>
      <point x="284.0" y="760.0" type="line" smooth="yes"/>
      <point x="259.0" y="760.0"/>
      <point x="220.0" y="705.0"/>
      <point x="205.0" y="649.0" type="curve"/>
      <point x="208.0" y="649.0"/>
      <point x="210.0" y="649.0"/>
      <point x="217.0" y="649.0" type="curve" smooth="yes"/>
      <point x="219.0" y="649.0"/>
      <point x="227.0" y="648.0"/>
      <point x="235.0" y="640.0" type="curve" smooth="yes"/>
      <point x="305.0" y="582.0"/>
      <point x="346.0" y="510.0"/>
      <point x="384.0" y="392.0" type="curve" smooth="yes"/>
      <point x="395.0" y="357.0"/>
      <point x="429.0" y="340.0"/>
      <point x="494.0" y="340.0" type="curve" smooth="yes"/>
      <point x="526.0" y="340.0"/>
      <point x="548.0" y="344.0"/>
    </contour>
  </outline>
</glyph>
<glyph name="d" format="2">
  <advance width="600"/>
  <unicode hex="0064"/>
  <outline>
    <contour>
      <point x="250.0" y="552.0" type="curve" smooth="yes"/>
      <point x="151.0" y="552.0"/>
      <point x="40.0" y="455.0"/>
      <point x="40.0" y="218.0" type="curve" smooth="yes"/>
      <point x="40.0" y="196.0" type="line" smooth="yes"/>
      <point x="40.0" y="144.0"/>
      <point x="82.0" y="66.0"/>
      <point x="169.0" y="66.0" type="curve" smooth="yes"/>
      <point x="196.0" y="66.0"/>
      <point x="218.0" y="82.0"/>
      <point x="218.0" y="127.0" type="curve"/>
      <point x="200.0" y="145.0"/>
      <point x="195.0" y="162.0"/>
      <point x="195.0" y="230.0" type="curve" smooth="yes"/>
      <point x="195.0" y="241.0" type="line" smooth="yes"/>
      <point x="195.0" y="349.0"/>
      <point x="231.0" y="408.0"/>
      <point x="305.0" y="408.0" type="curve" smooth="yes"/>
      <point x="348.0" y="408.0"/>
      <point x="378.0" y="394.0"/>
      <point x="402.0" y="368.0" type="curve"/>
      <point x="415.0" y="398.0"/>
      <point x="417.0" y="446.0"/>
      <point x="395.0" y="478.0" type="curve" smooth="yes"/>
      <point x="370.0" y="514.0"/>
      <point x="318.0" y="552.0"/>
    </contour>
    <contour>
      <point x="40.0" y="84.0"/>
      <point x="117.0" y="-12.0"/>
      <point x="195.0" y="-12.0" type="curve" smooth="yes"/>
      <point x="288.0" y="-12.0"/>
      <point x="384.0" y="79.0"/>
      <point x="408.0" y="177.0" type="curve" smooth="yes"/>
      <point x="420.0" y="226.0"/>
      <point x="414.0" y="296.0"/>
      <point x="396.0" y="334.0" type="curve"/>
      <point x="355.0" y="197.0"/>
      <point x="295.0" y="149.0"/>
      <point x="214.0" y="149.0" type="curve" smooth="yes"/>
      <point x="190.0" y="149.0"/>
      <point x="152.0" y="163.0"/>
      <point x="88.0" y="221.0" type="curve"/>
      <point x="55.0" y="217.0"/>
      <point x="40.0" y="206.0"/>
      <point x="40.0" y="196.0" type="curve" smooth="yes"/>
    </contour>
    <contour>
      <point x="374" y="750" type="curve"/>
      <point x="382" y="714"/>
      <point x="385" y="684"/>
      <point x="385" y="646" type="curve" smooth="yes"/>
      <point x="385" y="213" type="line" smooth="yes"/>
      <point x="385.0" y="101.0"/>
      <point x="387" y="50"/>
      <point x="412" y="25" type="curve" smooth="yes"/>
      <point x="434" y="3"/>
      <point x="474" y="-4"/>
      <point x="506" y="-4" type="curve" smooth="yes"/>
      <point x="520" y="-4"/>
      <point x="534" y="-3"/>
      <point x="548" y="0" type="curve"/>
      <point x="539.0" y="36.0"/>
      <point x="535" y="67.0"/>
      <point x="535" y="106" type="curve" smooth="yes"/>
      <point x="535" y="694" type="line" smooth="yes"/>
      <point x="535.0" y="711.0"/>
      <point x="530" y="724"/>
      <point x="521" y="733" type="curve" smooth="yes"/>
      <point x="502" y="752"/>
      <point x="476" y="756"/>
      <point x="437" y="756" type="curve" smooth="yes"/>
      <point x="414" y="756"/>
      <point x="392" y="754"/>
    </contour>
  </outline>
</glyph>
<glyph name="e" format="2">
  <advance width="600"/>
  <unicode hex="0065"/>
  <anchor x="300" y="561" name="top"/>
  <anchor x="300" y="-1" name="bottom"/>
  <anchor x="531" y="29" name="ogonek"/>
  <outline>
    <contour>
      <point x="325" y="386" type="curve" smooth="yes"/>
      <point x="376" y="386"/>
      <point x="413" y="374"/>
      <point x="451" y="343" type="curve"/>
      <point x="464" y="365"/>
      <point x="475" y="387"/>
      <point x="475" y="413" type="curve" smooth="yes"/>
      <point x="475" y="480"/>
      <point x="420" y="564"/>
      <point x="340" y="564" type="curve" smooth="yes"/>
      <point x="157" y="564"/>
      <point x="30" y="436"/>
      <point x="30" y="261" type="curve" smooth="yes"/>
      <point x="30" y="251" type="line" smooth="yes"/>
      <point x="30" y="90.0"/>
      <point x="137" y="-14"/>
      <point x="328" y="-14" type="curve" smooth="yes"/>
      <point x="351" y="-14"/>
      <point x="368" y="7"/>
      <point x="370" y="54" type="curve"/>
      <point x="260.9462492525922" y="97.62150029896313"/>
      <point x="242" y="174.0"/>
      <point x="242" y="244" type="curve" smooth="yes"/>
      <point x="242" y="287" type="line" smooth="yes"/>
      <point x="242" y="350"/>
      <point x="271" y="386"/>
    </contour>
    <contour>
      <point x="432.8928571428571" y="-14.0"/>
      <point x="497.5835901821012" y="-4.416409817898813"/>
      <point x="526" y="24" type="curve" smooth="yes"/>
      <point x="550" y="48"/>
      <point x="561.0" y="84"/>
      <point x="561" y="132" type="curve" smooth="yes"/>
      <point x="561.0" y="157.0"/>
      <point x="558" y="179"/>
      <point x="552" y="205" type="curve"/>
      <point x="548" y="205" type="line"/>
      <point x="475" y="170"/>
      <point x="420" y="160.0"/>
      <point x="330" y="160" type="curve" smooth="yes"/>
      <point x="249" y="160.0"/>
      <point x="186" y="187"/>
      <point x="111" y="248" type="curve"/>
      <point x="43.752404430655915" y="121.30163153601838"/>
      <point x="148.77732793522267" y="-14.0"/>
      <point x="328" y="-14.0" type="curve" smooth="yes"/>
    </contour>
    <contour>
      <point x="344" y="217" type="line" smooth="yes"/>
      <point x="526" y="217"/>
      <point x="570" y="278"/>
      <point x="570" y="366" type="curve" smooth="yes"/>
      <point x="570" y="369" type="line" smooth="yes"/>
      <point x="570" y="464"/>
      <point x="477" y="564"/>
      <point x="339" y="564" type="curve"/>
      <point x="316" y="564"/>
      <point x="299" y="513"/>
      <point x="299" y="440" type="curve"/>
      <point x="351" y="440"/>
      <point x="374" y="410"/>
      <point x="374" y="347" type="curve" smooth="yes"/>
      <point x="374" y="344" type="line" smooth="yes"/>
      <point x="374" y="322"/>
      <point x="356" y="310"/>
      <point x="320" y="310" type="curve" smooth="yes"/>
      <point x="287" y="310"/>
      <point x="257" y="310"/>
      <point x="202" y="334" type="curve"/>
      <point x="192.0" y="304.0"/>
      <point x="190" y="279"/>
      <point x="209" y="260" type="curve" smooth="yes"/>
      <point x="233" y="236"/>
      <point x="278" y="217"/>
      <point x="341" y="217.0" type="curve" smooth="yes"/>
    </contour>
  </outline>
</glyph>
<glyph name="g" format="2">
  <advance width="600"/>
  <unicode hex="0067"/>
  <outline>
    <contour>
      <point x="300" y="406.0" type="curve" smooth="yes"/>
      <point x="436" y="406"/>
      <point x="504.1666666666667" y="374.0"/>
      <point x="550" y="374" type="curve" smooth="yes"/>
      <point x="579.0" y="374.0"/>
      <point x="590.0" y="423.8387096774194"/>
      <point x="590" y="477" type="curve" smooth="yes"/>
      <point x="590" y="506"/>
      <point x="588" y="524"/>
      <point x="583" y="550" type="curve"/>
      <point x="517" y="562"/>
      <point x="428" y="570.0"/>
      <point x="338" y="570" type="curve" smooth="yes"/>
      <point x="144.0" y="570.0"/>
      <point x="27" y="488.8461538461538"/>
      <point x="27" y="359" type="curve" smooth="yes"/>
      <point x="27" y="353" type="line" smooth="yes"/>
      <point x="27" y="232.93617021276594"/>
      <point x="136.0211267605634" y="155.0"/>
      <point x="301" y="155" type="curve" smooth="yes"/>
      <point x="343.0" y="155.0"/>
      <point x="369.0" y="174.0"/>
      <point x="369" y="222" type="curve"/>
      <point x="267.70312427627994" y="246.38628489645112"/>
      <point x="227" y="293.31707317073176"/>
      <point x="227" y="351" type="curve" smooth="yes"/>
      <point x="227" y="357" type="line" smooth="yes"/>
      <point x="227" y="390.75555555555553"/>
      <point x="245.0" y="406.0"/>
    </contour>
    <contour>
      <point x="273.0" y="309.0" type="curve" smooth="yes"/>
      <point x="230.0" y="309.0"/>
      <point x="203" y="320"/>
      <point x="165.0" y="343.0" type="curve"/>
      <point x="94.75907887104164" y="250.3210068437355"/>
      <point x="190.15068493150685" y="155.0"/>
      <point x="301.0" y="155.0" type="curve" smooth="yes"/>
      <point x="430.82159624413146" y="155.0"/>
      <point x="524.0" y="206.0236220472441"/>
      <point x="524.0" y="290.0" type="curve" smooth="yes"/>
      <point x="524.0" y="300" type="line" smooth="yes"/>
      <point x="524.0" y="370.0147058823529"/>
      <point x="418.7021276595745" y="438.0"/>
      <point x="328.0" y="438.0" type="curve" smooth="yes"/>
      <point x="306" y="438.0"/>
      <point x="290.0" y="434"/>
      <point x="290.0" y="423.0" type="curve"/>
      <point x="327.16152611358694" y="413.96070986426264"/>
      <point x="342.0" y="393.9622641509434"/>
      <point x="342.0" y="366.0" type="curve" smooth="yes"/>
      <point x="342.0" y="360.0" type="line" smooth="yes"/>
      <point x="342.0" y="324.8666666666666"/>
      <point x="325.0" y="309.0"/>
    </contour>
    <contour>
      <point x="106" y="69" type="curve" smooth="yes"/>
      <point x="106" y="65" type="line" smooth="yes"/>
      <point x="106" y="-5"/>
      <point x="167" y="-55"/>
      <point x="249" y="-55" type="curve" smooth="yes"/>
      <point x="351" y="-55" type="line" smooth="yes"/>
      <point x="365" y="-55"/>
      <point x="374" y="-61"/>
      <point x="374" y="-75" type="curve" smooth="yes"/>
      <point x="374" y="-78" type="line" smooth="yes"/>
      <point x="374.0" y="-132"/>
      <point x="326" y="-181.0"/>
      <point x="184" y="-181" type="curve"/>
      <point x="184.0" y="-236.0"/>
      <point x="221.1095890410959" y="-250.0"/>
      <point x="247" y="-250" type="curve"/>
      <point x="422.1829268292683" y="-250.0"/>
      <point x="585" y="-201.0"/>
      <point x="585" y="-39" type="curve" smooth="yes"/>
      <point x="585" y="-35" type="line" smooth="yes"/>
      <point x="585" y="46"/>
      <point x="509" y="102"/>
      <point x="407" y="102" type="curve" smooth="yes"/>
      <point x="311" y="102" type="line" smooth="yes"/>
      <point x="275" y="102"/>
      <point x="268" y="118"/>
      <point x="268" y="137" type="curve" smooth="yes"/>
      <point x="268" y="140" type="line" smooth="yes"/>
      <point x="268" y="156"/>
      <point x="273" y="165"/>
      <point x="291" y="180" type="curve"/>
      <point x="274" y="189"/>
      <point x="255" y="188"/>
      <point x="239" y="188" type="curve" smooth="yes"/>
      <point x="177" y="188"/>
      <point x="106" y="138"/>
    </contour>
    <contour>
      <point x="497" y="-54" type="curve"/>
      <point x="424" y="-105"/>
      <point x="374" y="-120.0"/>
      <point x="292" y="-120" type="curve" smooth="yes"/>
      <point x="279" y="-120" type="line" smooth="yes"/>
      <point x="240" y="-120"/>
      <point x="226" y="-110"/>
      <point x="226" y="-85" type="curve" smooth="yes"/>
      <point x="226" y="-79" type="line" smooth="yes"/>
      <point x="226" y="-55"/>
      <point x="237.0" y="-38.0"/>
      <point x="262" y="-21" type="curve"/>
      <point x="262.0" y="-6.0"/>
      <point x="225" y="4.0"/>
      <point x="185" y="4" type="curve"/>
      <point x="77.0" y="4.0"/>
      <point x="15" y="-42"/>
      <point x="15" y="-108" type="curve" smooth="yes"/>
      <point x="15" y="-116" type="line" smooth="yes"/>
      <point x="15" y="-195.0"/>
      <point x="106.82608695652175" y="-250"/>
      <point x="235" y="-250" type="curve" smooth="yes"/>
      <point x="247" y="-250" type="line" smooth="yes"/>
      <point x="465.75" y="-250"/>
      <point x="520" y="-103"/>
    </contour>
  </outline>
</glyph>
<glyph name="h" format="2">
  <advance width="600"/>
  <unicode hex="0068"/>
  <anchor x="140" y="730" name="top"/>
  <outline>
    <contour>
      <point x="255" y="0" type="curve"/>
      <point x="255.0" y="644" type="line" smooth="yes"/>
      <point x="255" y="691"/>
      <point x="248" y="718"/>
      <point x="232" y="734" type="curve" smooth="yes"/>
      <point x="213.40155130629034" y="752.5984486937097"/>
      <point x="183.17948717948718" y="760.0"/>
      <point x="120" y="760" type="curve" smooth="yes"/>
      <point x="86.0" y="760.0"/>
      <point x="54.0" y="757.0"/>
      <point x="23" y="750" type="curve"/>
      <point x="31" y="712"/>
      <point x="35.0" y="667.0"/>
      <point x="35" y="610" type="curve" smooth="yes"/>
      <point x="35" y="76" type="line" smooth="yes"/>
      <point x="35" y="9.0"/>
      <point x="61.03571428571428" y="-7.0"/>
      <point x="170" y="-7" type="curve" smooth="yes"/>
      <point x="200" y="-7"/>
      <point x="229" y="-5"/>
    </contour>
    <contour>
      <point x="565.0" y="462.0"/>
      <point x="476.27848101265823" y="564.0"/>
      <point x="402" y="564.0" type="curve" smooth="yes"/>
      <point x="328.0" y="564.0"/>
      <point x="251.0" y="486.0"/>
      <point x="227" y="403" type="curve" smooth="yes"/>
      <point x="216" y="366"/>
      <point x="221" y="326"/>
      <point x="249" y="275" type="curve"/>
      <point x="264" y="333"/>
      <point x="298.0" y="354.0"/>
      <point x="328.0" y="354.0" type="curve" smooth="yes"/>
      <point x="356" y="354"/>
      <point x="380.0" y="345.0"/>
      <point x="383" y="322" type="curve"/>
      <point x="535.180790960452" y="322.0"/>
      <point x="565.0" y="356.0"/>
      <point x="565.0" y="376.0" type="curve" smooth="yes"/>
    </contour>
    <contour>
      <point x="577" y="-5" type="curve"/>
      <point x="569" y="37"/>
      <point x="565" y="84"/>
      <point x="565" y="140" type="curve" smooth="yes"/>
      <point x="565" y="376" type="line"/>
      <point x="565.0" y="429.0"/>
      <point x="473.58152173913044" y="471.0"/>
      <point x="376" y="471" type="curve"/>
      <point x="342" y="308"/>
      <point x="332" y="204"/>
      <point x="332.0" y="86" type="curve" smooth="yes"/>
      <point x="332.0" y="82" type="line" smooth="yes"/>
      <point x="332.0" y="13.0"/>
      <point x="373.4492753623188" y="-10.0"/>
      <point x="475" y="-10" type="curve" smooth="yes"/>
      <point x="511" y="-10"/>
      <point x="544" y="-8"/>
    </contour>
  </outline>
</glyph>
<glyph name="i" format="2">
  <advance width="350"/>
  <unicode hex="0069"/>
  <outline>
    <contour>
      <point x="31.0" y="556.0" type="curve"/>
      <point x="22.0" y="528.0"/>
      <point x="20" y="503"/>
      <point x="20.0" y="469.0" type="curve" smooth="yes"/>
      <point x="20" y="389"/>
      <point x="42.0" y="328.0"/>
      <point x="63" y="328.0" type="curve" smooth="yes"/>
      <point x="86" y="328"/>
      <point x="96" y="336.0"/>
      <point x="138.0" y="336.0" type="curve"/>
      <point x="138.0" y="420"/>
      <point x="134" y="560"/>
      <point x="80.0" y="560.0" type="curve" smooth="yes"/>
      <point x="64" y="560.0"/>
      <point x="49" y="559"/>
    </contour>
    <contour>
      <point x="316" y="-5" type="curve"/>
      <point x="307" y="40"/>
      <point x="304" y="90"/>
      <point x="304" y="140" type="curve" smooth="yes"/>
      <point x="304" y="485" type="line" smooth="yes"/>
      <point x="304" y="539"/>
      <point x="245" y="560"/>
      <point x="92" y="560" type="curve" smooth="yes"/>
      <point x="80" y="560" type="line"/>
      <point x="80" y="51" type="line" smooth="yes"/>
      <point x="80" y="9"/>
      <point x="116" y="-10.0"/>
      <point x="220" y="-10" type="curve" smooth="yes"/>
      <point x="248" y="-10.0"/>
      <point x="280" y="-9"/>
    </contour>
    <contour>
      <point x="312" y="622" type="curve"/>
      <point x="312" y="718" type="line"/>
      <point x="312.0" y="778.0"/>
      <point x="258" y="787.0"/>
      <point x="187" y="787" type="curve" smooth="yes"/>
      <point x="152" y="787"/>
      <point x="107" y="783"/>
      <point x="69" y="777" type="curve"/>
      <point x="69" y="681" type="line"/>
      <point x="69.0" y="621.0"/>
      <point x="123" y="612.0"/>
      <point x="194" y="612" type="curve" smooth="yes"/>
      <point x="229" y="612"/>
      <point x="274" y="616"/>
    </contour>
  </outline>
</glyph>
<glyph name="j" format="2">
  <advance width="350"/>
  <unicode hex="006A"/>
  <guideline x="0" y="0" angle="90.0" identifier="qRzM97o5uM"/>
  <guideline x="50" y="0" angle="90.0" identifier="J8Wc6O0pyx"/>
  <guideline x="100" y="0" angle="90.0" identifier="YA5vi1D9us"/>
  <guideline x="150" y="0" angle="90.0" identifier="rIf9ydRKDI"/>
  <guideline x="200" y="0" angle="90.0" identifier="e2eAl4BAct"/>
  <guideline x="250" y="0" angle="90.0" identifier="fT8i0GrARe"/>
  <guideline x="300" y="0" angle="90.0" identifier="oSQTpD445e"/>
  <guideline x="350" y="0" angle="90.0" identifier="hR1j1HcR43"/>
  <guideline x="400" y="0" angle="90.0" identifier="oBr4JzJwQA"/>
  <guideline x="450" y="0" angle="90.0" identifier="rMQrzwHo66"/>
  <guideline x="500" y="0" angle="90.0" identifier="QXLN4m1pvH"/>
  <guideline x="550" y="0" angle="90.0" identifier="LRzdVrbY7k"/>
  <guideline x="600" y="0" angle="90.0" identifier="Qd2DsqPJ4D"/>
  <guideline x="0" y="-250" angle="0" identifier="qvh6XOwZPF"/>
  <guideline x="0" y="-200" angle="0" identifier="mr9rlutBI9"/>
  <guideline x="0" y="-150" angle="0" identifier="sArpS2t3xi"/>
  <guideline x="0" y="-100" angle="0" identifier="mJYN8hiwMn"/>
  <guideline x="0" y="-50" angle="0" identifier="JiK4alXN8l"/>
  <guideline x="0" y="0" angle="0" identifier="aIPvtssOmU"/>
  <guideline x="0" y="50" angle="0" identifier="AP9elWov1f"/>
  <guideline x="223" y="-27" angle="0" identifier="0zB07TSji3"/>
  <guideline x="0" y="150" angle="0" identifier="O4la5NKRRi"/>
  <guideline x="0" y="200" angle="0" identifier="0563jmsiaV"/>
  <guideline x="0" y="250" angle="0" identifier="uUTMJd7Bkm"/>
  <guideline x="0" y="300" angle="0" identifier="uQQVMmL2UV"/>
  <guideline x="0" y="350" angle="0" identifier="HdM7kPMWtX"/>
  <guideline x="0" y="400" angle="0" identifier="oYaYhgxD8f"/>
  <guideline x="0" y="450" angle="0" identifier="oGk5AwyF3l"/>
  <guideline x="0" y="500" angle="0" identifier="4VkCNInwQs"/>
  <guideline x="0" y="550" angle="0" identifier="S8Y5mZJtHV"/>
  <guideline x="0" y="600" angle="0" identifier="yUZgzgBbFe"/>
  <guideline x="0" y="650" angle="0" identifier="B6B33cZB39"/>
  <guideline x="0" y="700" angle="0" identifier="3nzMdEHqiR"/>
  <outline>
    <contour>
      <point x="31.0" y="556.0" type="curve"/>
      <point x="22.0" y="528.0"/>
      <point x="20" y="503"/>
      <point x="20.0" y="469.0" type="curve" smooth="yes"/>
      <point x="20" y="389"/>
      <point x="42.0" y="328.0"/>
      <point x="63" y="328.0" type="curve" smooth="yes"/>
      <point x="86" y="328"/>
      <point x="96" y="336.0"/>
      <point x="138.0" y="336.0" type="curve"/>
      <point x="138.0" y="420"/>
      <point x="134" y="560"/>
      <point x="80.0" y="560.0" type="curve" smooth="yes"/>
      <point x="64" y="560.0"/>
      <point x="49" y="559"/>
    </contour>
    <contour>
      <point x="300" y="-22" type="curve" smooth="yes"/>
      <point x="300" y="486" type="line" smooth="yes"/>
      <point x="300" y="504"/>
      <point x="295" y="517"/>
      <point x="286" y="526" type="curve" smooth="yes"/>
      <point x="260" y="552"/>
      <point x="154" y="560.0"/>
      <point x="84" y="560" type="curve"/>
      <point x="80" y="560" type="line"/>
      <point x="80" y="40" type="line" smooth="yes"/>
      <point x="80.0" y="-36.0"/>
      <point x="73.0" y="-78.0"/>
      <point x="47" y="-141" type="curve"/>
      <point x="95.17839330349128" y="-243.17142028154183"/>
      <point x="300" y="-176.46357615894038"/>
    </contour>
    <contour>
      <point x="84" y="-35" type="curve" smooth="yes"/>
      <point x="52" y="-35"/>
      <point x="33" y="-27"/>
      <point x="7" y="-16" type="curve"/>
      <point x="3" y="-16" type="line"/>
      <point x="-3" y="-49"/>
      <point x="-7" y="-76"/>
      <point x="-7" y="-104" type="curve" smooth="yes"/>
      <point x="-7" y="-157"/>
      <point x="6" y="-206"/>
      <point x="25" y="-225" type="curve" smooth="yes"/>
      <point x="38.794117647058826" y="-239.0"/>
      <point x="62" y="-250"/>
      <point x="114" y="-250.0" type="curve" smooth="yes"/>
      <point x="197.0" y="-250.0"/>
      <point x="302" y="-155"/>
      <point x="300" y="-22" type="curve" smooth="yes"/>
      <point x="300" y="0"/>
      <point x="280" y="12"/>
      <point x="242" y="21" type="curve"/>
      <point x="190.62517628910953" y="-41.61306639764777"/>
      <point x="120.0" y="-35.0"/>
    </contour>
    <contour>
      <point x="307" y="622" type="curve"/>
      <point x="307" y="718" type="line"/>
      <point x="307.0" y="778.0"/>
      <point x="253" y="787.0"/>
      <point x="182" y="787" type="curve" smooth="yes"/>
      <point x="147" y="787"/>
      <point x="102" y="783"/>
      <point x="64" y="777" type="curve"/>
      <point x="64" y="681" type="line"/>
      <point x="64.0" y="621.0"/>
      <point x="118" y="612.0"/>
      <point x="189" y="612" type="curve" smooth="yes"/>
      <point x="224" y="612"/>
      <point x="269" y="616"/>
    </contour>
  </outline>
</glyph>
<glyph name="k" format="2">
  <advance width="600"/>
  <unicode hex="006B"/>
  <anchor x="305" y="-1" name="bottom"/>
  <outline>
    <contour>
      <point x="260" y="0" type="curve"/>
      <point x="260.0" y="644" type="line" smooth="yes"/>
      <point x="260.0" y="691.0"/>
      <point x="253.0" y="718.0"/>
      <point x="237" y="734" type="curve" smooth="yes"/>
      <point x="218.0" y="753.0"/>
      <point x="186.0" y="760.0"/>
      <point x="120" y="760" type="curve" smooth="yes"/>
      <point x="86.0" y="760.0"/>
      <point x="54.0" y="757.0"/>
      <point x="23" y="750" type="curve"/>
      <point x="31" y="712"/>
      <point x="35.0" y="667.0"/>
      <point x="35" y="610" type="curve" smooth="yes"/>
      <point x="35" y="76" type="line" smooth="yes"/>
      <point x="35" y="9"/>
      <point x="62" y="-7.0"/>
      <point x="175" y="-7" type="curve" smooth="yes"/>
      <point x="205" y="-7"/>
      <point x="234" y="-5"/>
    </contour>
    <contour>
      <point x="355" y="564" type="line"/>
      <point x="308" y="408"/>
      <point x="217" y="328"/>
      <point x="101" y="281" type="curve"/>
      <point x="101.0" y="204.0"/>
      <point x="153.24085359334762" y="162.8243717565678"/>
      <point x="194" y="169" type="curve" smooth="yes"/>
      <point x="330.18124275196294" y="191.35811448166555"/>
      <point x="479.72872341724707" y="276.4643145960828"/>
      <point x="559" y="433" type="curve" smooth="yes"/>
      <point x="576" y="467"/>
      <point x="577" y="479"/>
      <point x="577.0" y="493" type="curve" smooth="yes"/>
      <point x="577.0" y="538.0"/>
      <point x="485.9655172413793" y="564"/>
      <point x="379" y="564" type="curve" smooth="yes"/>
    </contour>
    <contour>
      <point x="460" y="-10" type="curve" smooth="yes"/>
      <point x="519" y="-10"/>
      <point x="555" y="-1"/>
      <point x="587" y="18" type="curve"/>
      <point x="516" y="130"/>
      <point x="472" y="226"/>
      <point x="430" y="369" type="curve"/>
      <point x="337.55459030942586" y="333.59537501212054"/>
      <point x="264" y="266"/>
      <point x="275.0" y="212" type="curve" smooth="yes"/>
      <point x="289" y="138"/>
      <point x="326.0" y="55.0"/>
      <point x="352" y="29" type="curve" smooth="yes"/>
      <point x="380" y="1"/>
      <point x="414.0" y="-10"/>
    </contour>
  </outline>
</glyph>
<glyph name="m" format="2">
  <advance width="850"/>
  <unicode hex="006D"/>
  <outline>
    <contour>
      <point x="255" y="0" type="curve"/>
      <point x="255.0" y="444" type="line" smooth="yes"/>
      <point x="255" y="491"/>
      <point x="248" y="518"/>
      <point x="232" y="534" type="curve" smooth="yes"/>
      <point x="213.40155130629034" y="552.5984486937097"/>
      <point x="183.17948717948718" y="560.0"/>
      <point x="120" y="560" type="curve" smooth="yes"/>
      <point x="86.0" y="560.0"/>
      <point x="54.0" y="557.0"/>
      <point x="23" y="550" type="curve"/>
      <point x="31" y="512"/>
      <point x="35" y="467"/>
      <point x="35" y="410" type="curve" smooth="yes"/>
      <point x="35" y="76" type="line" smooth="yes"/>
      <point x="35" y="9.0"/>
      <point x="61.03571428571428" y="-7.0"/>
      <point x="170" y="-7" type="curve" smooth="yes"/>
      <point x="200" y="-7"/>
      <point x="229" y="-5"/>
    </contour>
    <contour>
      <point x="536.0" y="462.0"/>
      <point x="472.42335766423355" y="564.0"/>
      <point x="402" y="564.0" type="curve" smooth="yes"/>
      <point x="328.0" y="564.0"/>
      <point x="251.0" y="486.0"/>
      <point x="227" y="403" type="curve" smooth="yes"/>
      <point x="216" y="366"/>
      <point x="216" y="326"/>
      <point x="244" y="275" type="curve"/>
      <point x="258.96309195738127" y="332.8572889018743"/>
      <point x="287.2" y="354.0"/>
      <point x="316.0" y="354.0" type="curve" smooth="yes"/>
      <point x="344" y="354"/>
      <point x="368.0" y="345.0"/>
      <point x="371" y="322" type="curve"/>
      <point x="519.0" y="322.0"/>
      <point x="536.0" y="356.0"/>
      <point x="536.0" y="376.0" type="curve" smooth="yes"/>
    </contour>
    <contour>
      <point x="536" y="0" type="curve"/>
      <point x="536" y="376" type="line"/>
      <point x="536.0" y="429.0"/>
      <point x="447.0" y="471.0"/>
      <point x="352" y="471" type="curve"/>
      <point x="318" y="308"/>
      <point x="308" y="209"/>
      <point x="308.0" y="91" type="curve" smooth="yes"/>
      <point x="308.0" y="87" type="line" smooth="yes"/>
      <point x="308.0" y="18.0"/>
      <point x="349" y="-5.0"/>
      <point x="451" y="-5" type="curve" smooth="yes"/>
      <point x="485.0" y="-5.0"/>
      <point x="516" y="-3"/>
    </contour>
    <contour>
      <point x="820.0" y="462.0"/>
      <point x="731.2784810126582" y="564.0"/>
      <point x="657" y="564.0" type="curve" smooth="yes"/>
      <point x="581.5859872611466" y="564.0"/>
      <point x="521.0356970452516" y="486.123452281495"/>
      <point x="497" y="403" type="curve" smooth="yes"/>
      <point x="486.0" y="366.0"/>
      <point x="497.0" y="326.0"/>
      <point x="525" y="275" type="curve"/>
      <point x="540.0429873505967" y="333.1662177556407"/>
      <point x="563.6567164179105" y="354.0"/>
      <point x="595.0" y="354.0" type="curve" smooth="yes"/>
      <point x="623" y="354"/>
      <point x="635.0" y="345.0"/>
      <point x="638" y="322" type="curve"/>
      <point x="790.180790960452" y="322.0"/>
      <point x="820.0" y="356.0"/>
      <point x="820.0" y="376.0" type="curve" smooth="yes"/>
    </contour>
    <contour>
      <point x="832" y="0" type="curve"/>
      <point x="824" y="42"/>
      <point x="820.0" y="89.0"/>
      <point x="820" y="145" type="curve" smooth="yes"/>
      <point x="820" y="376" type="line"/>
      <point x="820.0" y="429.0"/>
      <point x="728.5815217391304" y="471.0"/>
      <point x="631" y="471" type="curve"/>
      <point x="597" y="308"/>
      <point x="587" y="209"/>
      <point x="587.0" y="91" type="curve" smooth="yes"/>
      <point x="587.0" y="87" type="line" smooth="yes"/>
      <point x="587" y="18"/>
      <point x="627" y="-5.0"/>
      <point x="725" y="-5" type="curve" smooth="yes"/>
      <point x="762.7647058823529" y="-5.0"/>
      <point x="797.395304967152" y="-3.1458813666225396"/>
    </contour>
  </outline>
</glyph>
<glyph name="o" format="2">
  <advance width="600"/>
  <unicode hex="006F"/>
  <anchor x="300" y="561" name="top"/>
  <anchor x="300" y="-1" name="bottom"/>
  <anchor x="397" y="-1" name="ogonek"/>
  <outline>
    <contour>
      <point x="299.0" y="562.0" type="curve" smooth="yes"/>
      <point x="127.319391634981" y="562.0"/>
      <point x="27.0" y="452.37857142857143"/>
      <point x="27.0" y="264.0" type="curve" smooth="yes"/>
      <point x="27.0" y="250.0" type="line" smooth="yes"/>
      <point x="27.0" y="78.7642857142857"/>
      <point x="136.40636042402826" y="-12.0"/>
      <point x="301.0" y="-12.0" type="curve" smooth="yes"/>
      <point x="348.5609756097561" y="-12.0"/>
      <point x="351.0" y="122.0"/>
      <point x="351.0" y="159.0" type="curve"/>
      <point x="264.82568807339453" y="159.0"/>
      <point x="250.0" y="173.1926605504587"/>
      <point x="250.0" y="250.0" type="curve" smooth="yes"/>
      <point x="250.0" y="263.0" type="line" smooth="yes"/>
      <point x="250.0" y="342.9677419354839"/>
      <point x="266.0" y="374.0"/>
      <point x="301.0" y="374.0" type="curve" smooth="yes"/>
      <point x="333.0" y="374.0"/>
      <point x="346.0" y="370.0"/>
      <point x="383.0" y="345.0" type="curve"/>
      <point x="497.0" y="412.6875"/>
      <point x="400.6615853658536" y="562.0"/>
    </contour>
    <contour>
      <point x="301.0" y="-12.0" type="curve" smooth="yes"/>
      <point x="472.680608365019" y="-12.0"/>
      <point x="573.0" y="84.37857142857143"/>
      <point x="573.0" y="250.0" type="curve" smooth="yes"/>
      <point x="573.0" y="264.0" type="line" smooth="yes"/>
      <point x="573.0" y="458.76428571428573"/>
      <point x="463.59363957597174" y="562.0"/>
      <point x="299.0" y="562.0" type="curve" smooth="yes"/>
      <point x="251.4390243902439" y="562.0"/>
      <point x="249.0" y="428.0"/>
      <point x="249.0" y="391.0" type="curve"/>
      <point x="335.17431192660547" y="391.0"/>
      <point x="350.0" y="371.19266055045875"/>
      <point x="350.0" y="264.0" type="curve" smooth="yes"/>
      <point x="350.0" y="251.0" type="line" smooth="yes"/>
      <point x="350.0" y="196.96774193548387"/>
      <point x="334.4406779661017" y="176.0"/>
      <point x="299" y="176.0" type="curve" smooth="yes"/>
      <point x="267" y="176"/>
      <point x="254" y="180"/>
      <point x="217.0" y="205.0" type="curve"/>
      <point x="103.0" y="137.3125"/>
      <point x="199.33841463414635" y="-12.0"/>
    </contour>
  </outline>
</glyph>
<glyph name="q" format="2">
  <advance width="600"/>
  <unicode hex="0071"/>
  <outline>
    <contour>
      <point x="210.0" y="562.0" type="curve" smooth="yes"/>
      <point x="91.0" y="562.0"/>
      <point x="28" y="477"/>
      <point x="28.0" y="176.0" type="curve" smooth="yes"/>
      <point x="28.0" y="168.0" type="line" smooth="yes"/>
      <point x="28" y="112"/>
      <point x="75.0" y="63.0"/>
      <point x="150.0" y="63.0" type="curve" smooth="yes"/>
      <point x="210.0" y="63.0"/>
      <point x="244.0" y="74.0"/>
      <point x="272.0" y="101.0" type="curve"/>
      <point x="259.0" y="136.0"/>
      <point x="252.0" y="183.0"/>
      <point x="252.0" y="261.0" type="curve" smooth="yes"/>
      <point x="252.0" y="268.0" type="line" smooth="yes"/>
      <point x="252.0" y="374.0"/>
      <point x="277.0" y="387.0"/>
      <point x="305.0" y="387.0" type="curve" smooth="yes"/>
      <point x="340.0" y="387.0"/>
      <point x="369.0" y="377.0"/>
      <point x="389.0" y="360.0" type="curve"/>
      <point x="409.0" y="394.0"/>
      <point x="389.0" y="456.0"/>
      <point x="345.0" y="500.0" type="curve" smooth="yes"/>
      <point x="311.0" y="534.0"/>
      <point x="261.0" y="562.0"/>
    </contour>
    <contour>
      <point x="28" y="73.0"/>
      <point x="110.0" y="-10"/>
      <point x="180.0" y="-10.0" type="curve" smooth="yes"/>
      <point x="241" y="-10"/>
      <point x="303.0" y="20.0"/>
      <point x="345.0" y="82.0" type="curve" smooth="yes"/>
      <point x="393.0" y="153.0"/>
      <point x="381.0" y="225.0"/>
      <point x="347.0" y="257.0" type="curve"/>
      <point x="330.0" y="210.0"/>
      <point x="304.0" y="192.0"/>
      <point x="280.0" y="192.0" type="curve" smooth="yes"/>
      <point x="250.0" y="192.0"/>
      <point x="227.0" y="204.0"/>
      <point x="220.0" y="232.0" type="curve"/>
      <point x="192.0" y="232.0"/>
      <point x="28" y="206"/>
      <point x="28.0" y="168.0" type="curve" smooth="yes"/>
    </contour>
    <contour>
      <point x="565" y="-193" type="curve"/>
      <point x="565" y="446" type="line" smooth="yes"/>
      <point x="565" y="484"/>
      <point x="568" y="514"/>
      <point x="576" y="550" type="curve"/>
      <point x="549.0" y="556.0"/>
      <point x="517.0" y="560.0"/>
      <point x="483" y="560" type="curve" smooth="yes"/>
      <point x="435" y="560.0"/>
      <point x="389" y="557"/>
      <point x="365" y="533" type="curve" smooth="yes"/>
      <point x="345" y="513"/>
      <point x="340" y="477"/>
      <point x="340" y="394" type="curve" smooth="yes"/>
      <point x="340" y="-117" type="line" smooth="yes"/>
      <point x="340.0" y="-184.0"/>
      <point x="367" y="-200.0"/>
      <point x="480" y="-200" type="curve" smooth="yes"/>
      <point x="510" y="-200"/>
      <point x="539" y="-198"/>
    </contour>
  </outline>
</glyph>
<glyph name="u" format="2">
  <advance width="600"/>
  <unicode hex="0075"/>
  <outline>
    <contour>
      <point x="340.0" y="550.0" type="curve"/>
      <point x="340.0" y="106.0" type="line" smooth="yes"/>
      <point x="340.0" y="59.0"/>
      <point x="347.0" y="32.0"/>
      <point x="363.0" y="16.0" type="curve" smooth="yes"/>
      <point x="382.0" y="-3.0"/>
      <point x="414.0" y="-10.0"/>
      <point x="480.0" y="-10.0" type="curve" smooth="yes"/>
      <point x="514.0" y="-10.0"/>
      <point x="546.0" y="-7.0"/>
      <point x="577.0" y="0.0" type="curve"/>
      <point x="569.0" y="38.0"/>
      <point x="565.0" y="83.0"/>
      <point x="565.0" y="140.0" type="curve" smooth="yes"/>
      <point x="565.0" y="474.0" type="line" smooth="yes"/>
      <point x="565.0" y="541.0"/>
      <point x="538.0" y="557.0"/>
      <point x="425.0" y="557.0" type="curve" smooth="yes"/>
      <point x="395.0" y="557.0"/>
      <point x="366.0" y="555.0"/>
    </contour>
    <contour>
      <point x="35.0" y="88.0"/>
      <point x="121.0" y="-14.0"/>
      <point x="193.0" y="-14.0" type="curve" smooth="yes"/>
      <point x="267.0" y="-14.0"/>
      <point x="344.0" y="64.0"/>
      <point x="368.0" y="147.0" type="curve" smooth="yes"/>
      <point x="379.0" y="184.0"/>
      <point x="374.0" y="224.0"/>
      <point x="346.0" y="275.0" type="curve"/>
      <point x="331.0" y="217.0"/>
      <point x="297.0" y="196.0"/>
      <point x="267.0" y="196.0" type="curve" smooth="yes"/>
      <point x="239.0" y="196.0"/>
      <point x="215.0" y="205.0"/>
      <point x="212.0" y="228.0" type="curve"/>
      <point x="64.0" y="228.0"/>
      <point x="35.0" y="194.0"/>
      <point x="35.0" y="174.0" type="curve" smooth="yes"/>
    </contour>
    <contour>
      <point x="23.0" y="555.0" type="curve"/>
      <point x="31.0" y="513.0"/>
      <point x="35.0" y="466.0"/>
      <point x="35.0" y="410.0" type="curve" smooth="yes"/>
      <point x="35.0" y="174.0" type="line"/>
      <point x="35.0" y="121.0"/>
      <point x="124.0" y="79.0"/>
      <point x="219.0" y="79.0" type="curve"/>
      <point x="253.0" y="242.0"/>
      <point x="263.0" y="346.0"/>
      <point x="263.0" y="464.0" type="curve" smooth="yes"/>
      <point x="263.0" y="468.0" type="line" smooth="yes"/>
      <point x="263.0" y="537.0"/>
      <point x="223.0" y="560.0"/>
      <point x="125.0" y="560.0" type="curve" smooth="yes"/>
      <point x="89.0" y="560.0"/>
      <point x="56.0" y="558.0"/>
    </contour>
  </outline>
</glyph>
<glyph name="asciitilde" format="2">
  <advance width="600"/>
  <unicode hex="007E"/>
  <outline>
    <contour>
      <point x="419" y="360" type="curve" smooth="yes"/>
      <point x="332.0" y="360.0"/>
      <point x="252.0" y="485.0"/>
      <point x="164" y="485" type="curve" smooth="yes"/>
      <point x="114" y="485.0"/>
      <point x="75" y="457.0"/>
      <point x="57" y="380" type="curve" smooth="yes"/>
      <point x="50" y="350"/>
      <point x="47.0" y="309.0"/>
      <point x="47.0" y="275" type="curve" smooth="yes"/>
      <point x="47" y="236"/>
      <point x="51.0" y="210.0"/>
      <point x="60" y="181" type="curve"/>
      <point x="64" y="181" type="line"/>
      <point x="99" y="224.0"/>
      <point x="128.0" y="240.0"/>
      <point x="181" y="240" type="curve" smooth="yes"/>
      <point x="268.0" y="240.0"/>
      <point x="348.0" y="115.0"/>
      <point x="436.0" y="115.0" type="curve" smooth="yes"/>
      <point x="486.0" y="115.0"/>
      <point x="525.0" y="143.0"/>
      <point x="543.0" y="220.0" type="curve" smooth="yes"/>
      <point x="550.0" y="250.0"/>
      <point x="553.0" y="291.0"/>
      <point x="553.0" y="325.0" type="curve" smooth="yes"/>
      <point x="553.0" y="364.0"/>
      <point x="549.0" y="390.0"/>
      <point x="540.0" y="419.0" type="curve"/>
      <point x="536.0" y="419.0" type="line"/>
      <point x="501.0" y="376.0"/>
      <point x="472.0" y="360.0"/>
    </contour>
  </outline>
</glyph>
<glyph name="cent" format="2">
  <advance width="600"/>
  <unicode hex="00A2"/>
  <outline>
    <contour>
      <point x="372" y="519" type="line"/>
      <point x="467" y="699" type="line" smooth="yes"/>
      <point x="504" y="769"/>
      <point x="450" y="815.0"/>
      <point x="347" y="815" type="curve" smooth="yes"/>
      <point x="328" y="815"/>
      <point x="292" y="810"/>
      <point x="269" y="801" type="curve"/>
      <point x="283" y="769"/>
      <point x="292" y="737"/>
      <point x="292" y="693" type="curve" smooth="yes"/>
      <point x="292" y="568" type="line" smooth="yes"/>
      <point x="292.0" y="536.0"/>
      <point x="338" y="519"/>
      <point x="368" y="519" type="curve" smooth="yes"/>
    </contour>
    <contour>
      <point x="296.0" y="180.0" type="line"/>
      <point x="201.0" y="0.0" type="line" smooth="yes"/>
      <point x="164" y="-70"/>
      <point x="218" y="-116.0"/>
      <point x="321.0" y="-116.0" type="curve" smooth="yes"/>
      <point x="340.0" y="-116.0"/>
      <point x="376.0" y="-111.0"/>
      <point x="399.0" y="-102.0" type="curve"/>
      <point x="385.0" y="-70.0"/>
      <point x="376" y="-38"/>
      <point x="376.0" y="6.0" type="curve" smooth="yes"/>
      <point x="376.0" y="131.0" type="line" smooth="yes"/>
      <point x="376.0" y="163.0"/>
      <point x="330" y="180"/>
      <point x="300.0" y="180.0" type="curve" smooth="yes"/>
    </contour>
    <component base="c" yOffset="80.0"/>
  </outline>
</glyph>
<glyph name="Oslash" format="2">
  <advance width="650"/>
  <unicode hex="00D8"/>
  <anchor x="280" y="731" name="top"/>
  <outline>
    <contour>
      <point x="327" y="720" type="curve" smooth="yes"/>
      <point x="131" y="720"/>
      <point x="20" y="581"/>
      <point x="20" y="360" type="curve" smooth="yes"/>
      <point x="20" y="340" type="line" smooth="yes"/>
      <point x="20" y="104"/>
      <point x="111" y="-20"/>
      <point x="323" y="-20" type="curve" smooth="yes"/>
      <point x="356.0" y="-20.0"/>
      <point x="382" y="35.0"/>
      <point x="382" y="136" type="curve"/>
      <point x="282" y="136"/>
      <point x="244" y="173"/>
      <point x="244" y="347" type="curve" smooth="yes"/>
      <point x="244" y="360" type="line" smooth="yes"/>
      <point x="244" y="468"/>
      <point x="274" y="518.0"/>
      <point x="333" y="518.0" type="curve" smooth="yes"/>
      <point x="392" y="518.0"/>
      <point x="422" y="506"/>
      <point x="463" y="468" type="curve"/>
      <point x="539" y="598"/>
      <point x="443.0" y="720.0"/>
    </contour>
    <contour>
      <point x="323" y="-20" type="curve" smooth="yes"/>
      <point x="519" y="-20"/>
      <point x="630" y="120"/>
      <point x="630" y="340" type="curve" smooth="yes"/>
      <point x="630" y="360" type="line" smooth="yes"/>
      <point x="630" y="597"/>
      <point x="539" y="720"/>
      <point x="327" y="720" type="curve" smooth="yes"/>
      <point x="294.0" y="720.0"/>
      <point x="267" y="665.0"/>
      <point x="267" y="564" type="curve"/>
      <point x="368" y="564"/>
      <point x="405" y="533"/>
      <point x="405" y="374" type="curve" smooth="yes"/>
      <point x="405" y="360" type="line" smooth="yes"/>
      <point x="405" y="239"/>
      <point x="376.0" y="182.0"/>
      <point x="316" y="182.0" type="curve" smooth="yes"/>
      <point x="257" y="182.0"/>
      <point x="227" y="194"/>
      <point x="186" y="232" type="curve"/>
      <point x="128" y="133"/>
      <point x="200" y="-20"/>
    </contour>
    <contour>
      <point x="562" y="749" type="curve"/>
      <point x="539" y="758"/>
      <point x="514" y="767"/>
      <point x="465" y="767" type="curve" smooth="yes"/>
      <point x="398" y="767"/>
      <point x="362" y="751"/>
      <point x="361" y="721" type="curve" smooth="yes"/>
      <point x="351" y="483"/>
      <point x="328" y="434"/>
      <point x="244" y="243" type="curve"/>
      <point x="251" y="238"/>
      <point x="257" y="237"/>
      <point x="265" y="237" type="curve" smooth="yes"/>
      <point x="293" y="237"/>
      <point x="302" y="244"/>
      <point x="321" y="269" type="curve" smooth="yes"/>
      <point x="401" y="374"/>
      <point x="473" y="464"/>
    </contour>
    <contour>
      <point x="283" y="55"/>
      <point x="142" y="108"/>
      <point x="133" y="80" type="curve" smooth="yes"/>
      <point x="120" y="42"/>
      <point x="97" y="-6"/>
      <point x="61" y="-46" type="curve"/>
      <point x="89" y="-59"/>
      <point x="134" y="-74"/>
      <point x="182" y="-74" type="curve" smooth="yes"/>
      <point x="222" y="-74"/>
      <point x="243" y="-64"/>
      <point x="258" y="-51" type="curve" smooth="yes"/>
      <point x="281" y="-32"/>
      <point x="296" y="-2"/>
      <point x="301" y="34" type="curve"/>
    </contour>
  </outline>
</glyph>
<glyph name="germandbls" format="2">
  <advance width="600"/>
  <unicode hex="00DF"/>
  <outline>
    <contour>
      <point x="305" y="703" type="curve"/>
      <point x="137.83353177394233" y="753.1499404678173"/>
      <point x="35" y="607.0"/>
      <point x="35" y="538" type="curve" smooth="yes"/>
      <point x="35" y="51" type="line" smooth="yes"/>
      <point x="35" y="9.0"/>
      <point x="68.70370370370371" y="-10.0"/>
      <point x="165" y="-10" type="curve" smooth="yes"/>
      <point x="193" y="-10"/>
      <point x="225" y="-8"/>
      <point x="262" y="0" type="curve"/>
      <point x="253" y="42"/>
      <point x="250" y="90"/>
      <point x="250" y="140" type="curve" smooth="yes"/>
      <point x="250" y="510" type="line" smooth="yes"/>
      <point x="250" y="606"/>
      <point x="258.0" y="640.0"/>
    </contour>
    <contour>
      <point x="311" y="770" type="curve" smooth="yes"/>
      <point x="132" y="770"/>
      <point x="35" y="664"/>
      <point x="35" y="538" type="curve" smooth="yes"/>
      <point x="35" y="479"/>
      <point x="68" y="479"/>
      <point x="149" y="479" type="curve"/>
      <point x="162" y="543"/>
      <point x="238" y="570"/>
      <point x="307" y="570" type="curve" smooth="yes"/>
      <point x="373" y="570"/>
      <point x="380" y="560"/>
      <point x="380" y="539" type="curve" smooth="yes"/>
      <point x="380.0" y="526.0"/>
      <point x="379" y="519"/>
      <point x="376" y="506" type="curve"/>
      <point x="498" y="506.0"/>
      <point x="562" y="517"/>
      <point x="562" y="575" type="curve" smooth="yes"/>
      <point x="562.0" y="664"/>
      <point x="485" y="770.0"/>
    </contour>
    <contour>
      <point x="291" y="377" type="line" smooth="yes"/>
      <point x="291" y="334.41047894567663"/>
      <point x="375.1449366341932" y="281.05252002909145"/>
      <point x="483" y="286" type="curve"/>
      <point x="471.692790893515" y="302.96081365972753"/>
      <point x="470.0" y="309.4"/>
      <point x="470" y="325" type="curve" smooth="yes"/>
      <point x="470.0" y="348.0"/>
      <point x="473" y="353"/>
      <point x="495" y="384" type="curve" smooth="yes"/>
      <point x="517" y="412" type="line" smooth="yes"/>
      <point x="547" y="453"/>
      <point x="562.0" y="485.0"/>
      <point x="562" y="562" type="curve" smooth="yes"/>
      <point x="562" y="575" type="line" smooth="yes"/>
      <point x="562" y="627"/>
      <point x="440" y="632"/>
      <point x="351" y="632" type="curve"/>
      <point x="358" y="621"/>
      <point x="360" y="603"/>
      <point x="360.0" y="585" type="curve" smooth="yes"/>
      <point x="360.0" y="566"/>
      <point x="358" y="550"/>
      <point x="340" y="519" type="curve" smooth="yes"/>
      <point x="324" y="492" type="line" smooth="yes"/>
      <point x="300" y="452"/>
      <point x="291.0" y="419"/>
      <point x="291.0" y="390" type="curve" smooth="yes"/>
    </contour>
    <contour>
      <point x="507" y="334" type="curve" smooth="yes"/>
      <point x="487" y="349" type="line" smooth="yes"/>
      <point x="459.0" y="371.0"/>
      <point x="452.0" y="382.0"/>
      <point x="452" y="403" type="curve" smooth="yes"/>
      <point x="452.0" y="414"/>
      <point x="454" y="421"/>
      <point x="465" y="438" type="curve"/>
      <point x="382.0188435294823" y="451.1555491965455"/>
      <point x="291" y="434"/>
      <point x="291" y="377" type="curve" smooth="yes"/>
      <point x="291" y="331"/>
      <point x="306" y="297"/>
      <point x="339" y="270" type="curve" smooth="yes"/>
      <point x="362" y="252" type="line" smooth="yes"/>
      <point x="386" y="233"/>
      <point x="394.0" y="218"/>
      <point x="394.0" y="201" type="curve" smooth="yes"/>
      <point x="394.0" y="187.34920634920636"/>
      <point x="391" y="175"/>
      <point x="380" y="155" type="curve"/>
      <point x="533" y="113"/>
      <point x="580" y="159"/>
      <point x="580" y="180" type="curve" smooth="yes"/>
      <point x="580.0" y="248.0"/>
      <point x="559" y="297"/>
    </contour>
    <contour>
      <point x="369" y="192" type="curve" smooth="yes"/>
      <point x="341.0" y="192.0"/>
      <point x="323" y="198"/>
      <point x="306" y="206" type="curve"/>
      <point x="302" y="206" type="line"/>
      <point x="296" y="189"/>
      <point x="293.0" y="155.0"/>
      <point x="293" y="129" type="curve" smooth="yes"/>
      <point x="293" y="61"/>
      <point x="305" y="28"/>
      <point x="321" y="12" type="curve" smooth="yes"/>
      <point x="336" y="-3"/>
      <point x="363" y="-12"/>
      <point x="411" y="-12.0" type="curve" smooth="yes"/>
      <point x="516.0" y="-12.0"/>
      <point x="580.0" y="59.0"/>
      <point x="580" y="168" type="curve" smooth="yes"/>
      <point x="580" y="180" type="line"/>
      <point x="580.0" y="228.82474226804123"/>
      <point x="511" y="289"/>
      <point x="407" y="261" type="curve"/>
      <point x="410" y="247"/>
      <point x="412" y="234"/>
      <point x="412" y="225" type="curve" smooth="yes"/>
      <point x="412.0" y="203"/>
      <point x="398" y="192.0"/>
    </contour>
  </outline>
</glyph>
<glyph name="eth" format="2">
  <advance width="600"/>
  <unicode hex="00F0"/>
  <outline>
    <contour>
      <point x="216" y="492" type="curve" smooth="yes"/>
      <point x="102.0" y="492.0"/>
      <point x="27" y="408.04651162790697"/>
      <point x="27" y="264" type="curve" smooth="yes"/>
      <point x="27" y="250" type="line" smooth="yes"/>
      <point x="27" y="79"/>
      <point x="136" y="-12"/>
      <point x="301" y="-12" type="curve" smooth="yes"/>
      <point x="349" y="-12"/>
      <point x="351" y="122"/>
      <point x="351" y="159" type="curve"/>
      <point x="265" y="159"/>
      <point x="250" y="173"/>
      <point x="250" y="250" type="curve" smooth="yes"/>
      <point x="250" y="263" type="line" smooth="yes"/>
      <point x="250" y="335.79279279279285"/>
      <point x="265.4186046511628" y="364.0"/>
      <point x="301" y="364" type="curve" smooth="yes"/>
      <point x="332.8888888888889" y="364.0"/>
      <point x="345.8393703043706" y="360.10853357812795"/>
      <point x="383" y="335" type="curve"/>
      <point x="405" y="348"/>
      <point x="412" y="365"/>
      <point x="412" y="379" type="curve" smooth="yes"/>
      <point x="412.0" y="435.07518796992485"/>
      <point x="317.0" y="492.0"/>
    </contour>
    <contour>
      <point x="301" y="-12" type="curve" smooth="yes"/>
      <point x="473.0" y="-12.0"/>
      <point x="573" y="101"/>
      <point x="573.0" y="313" type="curve" smooth="yes"/>
      <point x="573.0" y="327" type="line" smooth="yes"/>
      <point x="573" y="491"/>
      <point x="488" y="628"/>
      <point x="400" y="716" type="curve" smooth="yes"/>
      <point x="357" y="759"/>
      <point x="321.0" y="770.0"/>
      <point x="266" y="770.0" type="curve" smooth="yes"/>
      <point x="207.0" y="770.0"/>
      <point x="169.0" y="747.0"/>
      <point x="139" y="717" type="curve"/>
      <point x="139" y="713" type="line"/>
      <point x="309" y="570"/>
      <point x="350.0" y="470"/>
      <point x="350.0" y="307" type="curve" smooth="yes"/>
      <point x="350.0" y="294" type="line" smooth="yes"/>
      <point x="350" y="210"/>
      <point x="334.0" y="176.0"/>
      <point x="299" y="176" type="curve" smooth="yes"/>
      <point x="267" y="176"/>
      <point x="254" y="180"/>
      <point x="217" y="205" type="curve"/>
      <point x="122" y="119"/>
      <point x="199" y="-12"/>
    </contour>
    <contour>
      <point x="553" y="745" type="curve"/>
      <point x="385" y="699" type="line" smooth="yes"/>
      <point x="360" y="692"/>
      <point x="318" y="703"/>
      <point x="293" y="696" type="curve" smooth="yes"/>
      <point x="151" y="657" type="line" smooth="yes"/>
      <point x="104" y="644"/>
      <point x="90.0" y="625"/>
      <point x="90" y="571" type="curve" smooth="yes"/>
      <point x="90.0" y="548"/>
      <point x="92" y="533"/>
      <point x="96" y="516" type="curve"/>
      <point x="297" y="572" type="line" smooth="yes"/>
      <point x="324" y="580"/>
      <point x="370" y="570"/>
      <point x="397" y="577" type="curve" smooth="yes"/>
      <point x="464" y="595" type="line" smooth="yes"/>
      <point x="541" y="616"/>
      <point x="560.0" y="640.0"/>
      <point x="560" y="699" type="curve" smooth="yes"/>
      <point x="560.0" y="717"/>
      <point x="558" y="731"/>
    </contour>
  </outline>
</glyph>
<glyph name="dcaron" format="2">
  <advance width="600"/>
  <unicode hex="010F"/>
  <outline>
    <contour>
      <point x="191" y="562.0" type="curve" smooth="yes"/>
      <point x="91" y="562"/>
      <point x="28" y="477"/>
      <point x="28" y="176" type="curve" smooth="yes"/>
      <point x="28" y="168" type="line" smooth="yes"/>
      <point x="28" y="112"/>
      <point x="75" y="63"/>
      <point x="150" y="63" type="curve" smooth="yes"/>
      <point x="210" y="63"/>
      <point x="214" y="74"/>
      <point x="242" y="101" type="curve"/>
      <point x="229" y="136"/>
      <point x="222" y="183"/>
      <point x="222" y="261" type="curve" smooth="yes"/>
      <point x="222" y="268" type="line" smooth="yes"/>
      <point x="222" y="374"/>
      <point x="247" y="387"/>
      <point x="275" y="387" type="curve" smooth="yes"/>
      <point x="310" y="387"/>
      <point x="328" y="381"/>
      <point x="348" y="364" type="curve"/>
      <point x="368" y="398"/>
      <point x="359" y="456"/>
      <point x="315" y="500" type="curve" smooth="yes"/>
      <point x="264.0" y="551.0"/>
      <point x="237.0" y="562.0"/>
    </contour>
    <contour>
      <point x="28" y="73"/>
      <point x="110" y="-10"/>
      <point x="180" y="-10" type="curve" smooth="yes"/>
      <point x="241" y="-10"/>
      <point x="273" y="20"/>
      <point x="315" y="82" type="curve" smooth="yes"/>
      <point x="363" y="153"/>
      <point x="351" y="225"/>
      <point x="317" y="257" type="curve"/>
      <point x="300" y="210"/>
      <point x="274" y="192"/>
      <point x="250" y="192" type="curve" smooth="yes"/>
      <point x="220" y="192"/>
      <point x="197" y="204"/>
      <point x="190" y="232" type="curve"/>
      <point x="92" y="232"/>
      <point x="28" y="206"/>
      <point x="28" y="168" type="curve" smooth="yes"/>
    </contour>
    <contour>
      <point x="299" y="750" type="curve"/>
      <point x="307" y="714"/>
      <point x="310" y="684"/>
      <point x="310" y="646" type="curve" smooth="yes"/>
      <point x="310" y="143" type="line" smooth="yes"/>
      <point x="310" y="73"/>
      <point x="316" y="46"/>
      <point x="337" y="25" type="curve" smooth="yes"/>
      <point x="365" y="-3"/>
      <point x="403" y="-8"/>
      <point x="446" y="-8" type="curve" smooth="yes"/>
      <point x="470" y="-8"/>
      <point x="493" y="-5"/>
      <point x="518" y="0" type="curve"/>
      <point x="509" y="36"/>
      <point x="505" y="67"/>
      <point x="505" y="106" type="curve" smooth="yes"/>
      <point x="505" y="684" type="line" smooth="yes"/>
      <point x="505.0" y="701.0"/>
      <point x="499" y="714"/>
      <point x="486" y="727" type="curve" smooth="yes"/>
      <point x="466" y="747"/>
      <point x="425" y="758"/>
      <point x="372" y="758" type="curve" smooth="yes"/>
      <point x="338" y="758"/>
      <point x="326" y="756"/>
    </contour>
    <contour>
      <point x="548" y="478" type="curve" smooth="yes"/>
      <point x="562" y="478"/>
      <point x="572" y="481"/>
      <point x="578" y="487" type="curve" smooth="yes"/>
      <point x="600" y="509"/>
      <point x="608" y="546"/>
      <point x="608" y="642" type="curve" smooth="yes"/>
      <point x="608" y="679"/>
      <point x="606" y="697"/>
      <point x="563" y="697" type="curve" smooth="yes"/>
      <point x="551" y="697"/>
      <point x="542" y="696"/>
      <point x="528" y="692" type="curve"/>
      <point x="528" y="601"/>
      <point x="528" y="555"/>
      <point x="528" y="482" type="curve"/>
      <point x="533" y="480"/>
      <point x="541" y="478"/>
    </contour>
  </outline>
</glyph>
<glyph name="dcroat" format="2">
  <advance width="600"/>
  <unicode hex="0111"/>
  <outline>
    <contour>
      <point x="80.0" y="690" type="line"/>
      <point x="80.0" y="686"/>
      <point x="80.0" y="682"/>
      <point x="80.0" y="677" type="curve" smooth="yes"/>
      <point x="80.0" y="606"/>
      <point x="92.0" y="593.0"/>
      <point x="125" y="593.0" type="curve" smooth="yes"/>
      <point x="591" y="593" type="line"/>
      <point x="593" y="607"/>
      <point x="595" y="623"/>
      <point x="595" y="636" type="curve" smooth="yes"/>
      <point x="595.0" y="676"/>
      <point x="588" y="690"/>
      <point x="565" y="690" type="curve" smooth="yes"/>
    </contour>
    <component base="d"/>
  </outline>
</glyph>
<glyph name="Hbar" format="2">
  <advance width="600"/>
  <unicode hex="0126"/>
  <outline>
    <contour>
      <point x="5.0" y="610" type="line"/>
      <point x="5.0" y="606"/>
      <point x="5.0" y="602"/>
      <point x="5.0" y="597" type="curve" smooth="yes"/>
      <point x="5.0" y="541.0"/>
      <point x="13.120000000000001" y="510.0"/>
      <point x="34" y="510.0" type="curve" smooth="yes"/>
      <point x="591" y="510" type="line"/>
      <point x="593" y="524"/>
      <point x="595" y="540"/>
      <point x="595" y="553" type="curve" smooth="yes"/>
      <point x="595.0" y="581.0"/>
      <point x="589" y="610"/>
      <point x="569" y="610" type="curve" smooth="yes"/>
    </contour>
    <component base="H"/>
  </outline>
</glyph>
<glyph name="ij" format="2">
  <advance width="600"/>
  <unicode hex="0133"/>
  <outline>
    <contour>
      <point x="285" y="622" type="curve"/>
      <point x="285" y="718" type="line"/>
      <point x="285" y="778"/>
      <point x="249" y="787"/>
      <point x="163" y="787" type="curve" smooth="yes"/>
      <point x="128" y="787"/>
      <point x="83" y="783"/>
      <point x="45" y="777" type="curve"/>
      <point x="45" y="681" type="line"/>
      <point x="45" y="621"/>
      <point x="81" y="612"/>
      <point x="167" y="612" type="curve" smooth="yes"/>
      <point x="202" y="612"/>
      <point x="247" y="616"/>
    </contour>
    <contour>
      <point x="585" y="622" type="curve"/>
      <point x="585" y="718" type="line"/>
      <point x="585" y="778"/>
      <point x="549" y="787"/>
      <point x="463" y="787" type="curve" smooth="yes"/>
      <point x="428" y="787"/>
      <point x="383" y="783"/>
      <point x="345" y="777" type="curve"/>
      <point x="345" y="681" type="line"/>
      <point x="345" y="621"/>
      <point x="381" y="612"/>
      <point x="467" y="612" type="curve" smooth="yes"/>
      <point x="502" y="612"/>
      <point x="547" y="616"/>
    </contour>
    <component base="dotlessij"/>
  </outline>
</glyph>
<glyph name="lcaron" format="2">
  <advance width="600"/>
  <unicode hex="013E"/>
  <outline>
    <contour>
      <point x="491" y="552" type="curve" smooth="yes"/>
      <point x="511" y="552"/>
      <point x="521" y="555"/>
      <point x="534" y="568" type="curve" smooth="yes"/>
      <point x="570" y="604"/>
      <point x="583" y="658"/>
      <point x="583" y="712" type="curve" smooth="yes"/>
      <point x="583.0" y="740.0"/>
      <point x="560" y="759.0"/>
      <point x="517" y="759" type="curve" smooth="yes"/>
      <point x="498" y="759"/>
      <point x="483" y="757"/>
      <point x="460" y="750" type="curve"/>
      <point x="460" y="659"/>
      <point x="458" y="631"/>
      <point x="448" y="560" type="curve"/>
      <point x="460" y="554"/>
      <point x="470" y="552.0"/>
    </contour>
    <component base="l"/>
  </outline>
</glyph>
<glyph name="ldot" format="2">
  <advance width="600"/>
  <unicode hex="0140"/>
  <outline>
    <contour>
      <point x="36" y="750" type="curve"/>
      <point x="29" y="721"/>
      <point x="25" y="694"/>
      <point x="25" y="669" type="curve" smooth="yes"/>
      <point x="25" y="588"/>
      <point x="40" y="528"/>
      <point x="84" y="528" type="curve" smooth="yes"/>
      <point x="121.9112426035503" y="528.0"/>
      <point x="156.36830565130097" y="542.6426742246839"/>
      <point x="233" y="576" type="curve"/>
      <point x="233" y="690"/>
      <point x="213" y="760"/>
      <point x="180" y="760" type="curve" smooth="yes"/>
      <point x="131.7073170731707" y="760.0"/>
      <point x="94.92354467724564" y="756.1561912349362"/>
    </contour>
    <contour>
      <point x="387" y="728" type="curve" smooth="yes"/>
      <point x="365" y="750"/>
      <point x="304" y="760"/>
      <point x="190" y="760" type="curve"/>
      <point x="180" y="760" type="line"/>
      <point x="180" y="281" type="line" smooth="yes"/>
      <point x="180" y="153"/>
      <point x="263" y="77"/>
      <point x="403" y="77" type="curve"/>
      <point x="403" y="689" type="line"/>
      <point x="403" y="708"/>
      <point x="400" y="715"/>
    </contour>
    <contour>
      <point x="27" y="210" type="line"/>
      <point x="22" y="183"/>
      <point x="19" y="158"/>
      <point x="19" y="131" type="curve" smooth="yes"/>
      <point x="19" y="74"/>
      <point x="28" y="40"/>
      <point x="48" y="20" type="curve" smooth="yes"/>
      <point x="63" y="5"/>
      <point x="82" y="0"/>
      <point x="129" y="0" type="curve" smooth="yes"/>
      <point x="573" y="0" type="line"/>
      <point x="578" y="19"/>
      <point x="583" y="44"/>
      <point x="583" y="74" type="curve" smooth="yes"/>
      <point x="583.0" y="169.0"/>
      <point x="521.6416184971098" y="210"/>
      <point x="390" y="210" type="curve" smooth="yes"/>
    </contour>
    <contour>
      <point x="581" y="357" type="curve"/>
      <point x="581" y="478" type="line"/>
      <point x="581.0" y="538.0"/>
      <point x="548.483870967742" y="547.0"/>
      <point x="509" y="547" type="curve" smooth="yes"/>
      <point x="488.94871794871796" y="547.0"/>
      <point x="462.8805890242486" y="544.5008942438798"/>
      <point x="441" y="541" type="curve"/>
      <point x="441" y="420" type="line"/>
      <point x="441.0" y="360.0"/>
      <point x="473.51612903225805" y="351.0"/>
      <point x="513" y="351" type="curve" smooth="yes"/>
      <point x="533.0512820512821" y="351.0"/>
      <point x="559.1194109757514" y="353.49910575612023"/>
    </contour>
  </outline>
</glyph>
<glyph name="Eng" format="2">
  <advance width="600"/>
  <unicode hex="014A"/>
  <outline>
    <contour>
      <point x="271" y="-74" type="curve" smooth="yes"/>
      <point x="230" y="-74"/>
      <point x="204" y="-70"/>
      <point x="172" y="-60" type="curve"/>
      <point x="168" y="-60" type="line"/>
      <point x="161" y="-87"/>
      <point x="158" y="-106"/>
      <point x="158" y="-137" type="curve" smooth="yes"/>
      <point x="158.0" y="-170"/>
      <point x="166.0" y="-199.0"/>
      <point x="184" y="-217" type="curve" smooth="yes"/>
      <point x="206" y="-239"/>
      <point x="234" y="-250"/>
      <point x="302" y="-250" type="curve" smooth="yes"/>
      <point x="471.0" y="-250.0"/>
      <point x="565.0" y="-121.0"/>
      <point x="565" y="-10" type="curve" smooth="yes"/>
      <point x="565" y="22"/>
      <point x="533" y="51"/>
      <point x="427" y="51" type="curve"/>
      <point x="397.0" y="-42.0"/>
      <point x="348.0" y="-74.0"/>
    </contour>
    <component base="N"/>
  </outline>
</glyph>
<glyph name="OE" format="2">
  <advance width="800"/>
  <unicode hex="0152"/>
  <outline>
    <contour>
      <point x="250.0" y="710.0" type="curve" smooth="yes"/>
      <point x="117" y="710"/>
      <point x="20" y="608.0"/>
      <point x="20" y="342" type="curve" smooth="yes"/>
      <point x="20" y="326" type="line" smooth="yes"/>
      <point x="20" y="87.0"/>
      <point x="109" y="-10"/>
      <point x="252.0" y="-10.0" type="curve" smooth="yes"/>
      <point x="358.0" y="-10.0"/>
      <point x="413.0" y="90.0"/>
      <point x="413" y="192" type="curve" smooth="yes"/>
      <point x="413" y="226"/>
      <point x="400" y="250.0"/>
      <point x="386" y="250" type="curve"/>
      <point x="359" y="211"/>
      <point x="330" y="193"/>
      <point x="297.0" y="193" type="curve" smooth="yes"/>
      <point x="251" y="193.0"/>
      <point x="230" y="223.0"/>
      <point x="230" y="329" type="curve" smooth="yes"/>
      <point x="230" y="342" type="line" smooth="yes"/>
      <point x="230" y="470.0"/>
      <point x="251" y="505.0"/>
      <point x="297.0" y="505.0" type="curve" smooth="yes"/>
      <point x="334" y="505"/>
      <point x="357" y="491"/>
      <point x="386" y="459" type="curve"/>
      <point x="402" y="459.0"/>
      <point x="412.0" y="482"/>
      <point x="412" y="515" type="curve"/>
      <point x="412.0" y="651.0"/>
      <point x="333" y="710.0"/>
    </contour>
    <contour>
      <point x="545.0" y="85.0" type="curve"/>
      <point x="545.0" y="567" type="line" smooth="yes"/>
      <point x="545.0" y="648.0"/>
      <point x="502" y="694.0"/>
      <point x="375.0" y="694" type="curve"/>
      <point x="375.0" y="140.0" type="line"/>
      <point x="375.0" y="97.0"/>
      <point x="457" y="85.0"/>
    </contour>
    <contour>
      <point x="375" y="700" type="line"/>
      <point x="375" y="675" type="line"/>
      <point x="375" y="578"/>
      <point x="379.0" y="530.0"/>
      <point x="402" y="530" type="curve" smooth="yes"/>
      <point x="767" y="530" type="line"/>
      <point x="772" y="558"/>
      <point x="773" y="572"/>
      <point x="773" y="595" type="curve" smooth="yes"/>
      <point x="773" y="631"/>
      <point x="764" y="660"/>
      <point x="748" y="676" type="curve" smooth="yes"/>
      <point x="729" y="695"/>
      <point x="714" y="700"/>
      <point x="682" y="700" type="curve" smooth="yes"/>
    </contour>
    <contour>
      <point x="474" y="400" type="line"/>
      <point x="474" y="384" type="line" smooth="yes"/>
      <point x="474" y="291"/>
      <point x="486.0" y="250.0"/>
      <point x="519" y="250" type="curve" smooth="yes"/>
      <point x="745" y="250" type="line"/>
      <point x="749" y="267"/>
      <point x="750.0" y="288"/>
      <point x="750" y="312" type="curve" smooth="yes"/>
      <point x="750.0" y="359"/>
      <point x="735.0" y="400.0"/>
      <point x="689" y="400" type="curve"/>
    </contour>
    <contour>
      <point x="375.0" y="170.0" type="line"/>
      <point x="375.0" y="152" type="line" smooth="yes"/>
      <point x="375" y="63"/>
      <point x="394.0" y="0"/>
      <point x="450.0" y="0.0" type="curve" smooth="yes"/>
      <point x="774.0" y="0.0" type="line"/>
      <point x="778" y="15"/>
      <point x="780.0" y="35"/>
      <point x="780.0" y="58.0" type="curve" smooth="yes"/>
      <point x="780.0" y="138"/>
      <point x="762.0" y="170.0"/>
      <point x="718.0" y="170.0" type="curve"/>
    </contour>
  </outline>
</glyph>
<glyph name="Tbar" format="2">
  <advance width="600"/>
  <unicode hex="0166"/>
  <outline>
    <contour>
      <point x="79.0" y="390" type="line"/>
      <point x="74.0" y="371"/>
      <point x="69.0" y="347"/>
      <point x="69.0" y="312" type="curve" smooth="yes"/>
      <point x="69" y="226"/>
      <point x="87" y="208"/>
      <point x="135" y="208.0" type="curve" smooth="yes"/>
      <point x="519" y="208" type="line"/>
      <point x="527" y="238"/>
      <point x="531" y="264"/>
      <point x="531.0" y="295" type="curve" smooth="yes"/>
      <point x="531" y="370"/>
      <point x="518" y="390"/>
      <point x="480" y="390" type="curve" smooth="yes"/>
    </contour>
    <component base="T"/>
  </outline>
</glyph>
<glyph name="tbar" format="2">
  <advance width="600"/>
  <unicode hex="0167"/>
  <outline>
    <contour>
      <point x="52.0" y="309" type="line"/>
      <point x="52.0" y="305"/>
      <point x="52.0" y="301"/>
      <point x="52.0" y="296.0" type="curve" smooth="yes"/>
      <point x="52.0" y="250"/>
      <point x="69.0" y="242.0"/>
      <point x="117.0" y="242.0" type="curve" smooth="yes"/>
      <point x="506" y="242" type="line"/>
      <point x="508" y="253"/>
      <point x="510.0" y="265"/>
      <point x="510.0" y="275.0" type="curve" smooth="yes"/>
      <point x="510.0" y="300"/>
      <point x="498" y="309"/>
      <point x="460.0" y="309.0" type="curve" smooth="yes"/>
    </contour>
    <component base="t"/>
  </outline>
</glyph>
<glyph name="Schwa" format="2">
  <advance width="600"/>
  <unicode hex="018F"/>
  <outline>
    <contour>
      <point x="275" y="160" type="curve" smooth="yes"/>
      <point x="224" y="160"/>
      <point x="187" y="172"/>
      <point x="149" y="203" type="curve"/>
      <point x="136" y="181"/>
      <point x="125" y="159"/>
      <point x="125" y="133" type="curve" smooth="yes"/>
      <point x="125" y="66"/>
      <point x="180" y="-18"/>
      <point x="260" y="-18" type="curve" smooth="yes"/>
      <point x="443.0" y="-18.0"/>
      <point x="570" y="135.12655086848633"/>
      <point x="570" y="345" type="curve" smooth="yes"/>
      <point x="570" y="355" type="line" smooth="yes"/>
      <point x="570" y="575.5396226415094"/>
      <point x="463.0" y="718.0"/>
      <point x="272" y="718" type="curve" smooth="yes"/>
      <point x="249" y="718"/>
      <point x="232" y="697"/>
      <point x="230" y="650" type="curve"/>
      <point x="349.1340255448437" y="602.1427418751482"/>
      <point x="358" y="448.9655172413793"/>
      <point x="358" y="332" type="curve" smooth="yes"/>
      <point x="358" y="327" type="line" smooth="yes"/>
      <point x="358.0" y="191.0"/>
      <point x="329.0" y="160.0"/>
    </contour>
    <contour>
      <point x="172.3030303030303" y="718.0"/>
      <point x="112.77494000936338" y="704.7749400093634"/>
      <point x="84" y="676" type="curve" smooth="yes"/>
      <point x="60" y="652"/>
      <point x="49" y="616"/>
      <point x="49" y="568" type="curve" smooth="yes"/>
      <point x="49" y="543"/>
      <point x="52" y="521"/>
      <point x="58" y="495" type="curve"/>
      <point x="62" y="495" type="line"/>
      <point x="133" y="529"/>
      <point x="184" y="544.0"/>
      <point x="262.0" y="544.0" type="curve" smooth="yes"/>
      <point x="329" y="544.0"/>
      <point x="369" y="530"/>
      <point x="429" y="476" type="curve"/>
      <point x="488.2248310624533" y="588.2619932079339"/>
      <point x="401.5069124423963" y="718.0"/>
      <point x="272" y="718" type="curve" smooth="yes"/>
    </contour>
    <contour>
      <point x="236" y="449" type="line" smooth="yes"/>
      <point x="91.0" y="449"/>
      <point x="30" y="361"/>
      <point x="30" y="230" type="curve" smooth="yes"/>
      <point x="30" y="227" type="line" smooth="yes"/>
      <point x="30" y="108"/>
      <point x="123.0" y="-18.0"/>
      <point x="261" y="-18" type="curve"/>
      <point x="284" y="-18"/>
      <point x="301" y="33"/>
      <point x="301" y="106" type="curve"/>
      <point x="249.0" y="106.0"/>
      <point x="226" y="152"/>
      <point x="226" y="249" type="curve" smooth="yes"/>
      <point x="226" y="252" type="line" smooth="yes"/>
      <point x="226" y="293.14285714285717"/>
      <point x="244.0" y="316.0"/>
      <point x="280" y="316" type="curve" smooth="yes"/>
      <point x="313.0" y="316.0"/>
      <point x="343.0" y="316.0"/>
      <point x="398" y="292" type="curve"/>
      <point x="414.2035437632679" y="340.6106312898035"/>
      <point x="401.0" y="376.0"/>
      <point x="381" y="396" type="curve" smooth="yes"/>
      <point x="353" y="424"/>
      <point x="306.77272727272725" y="449"/>
      <point x="239" y="449" type="curve" smooth="yes"/>
    </contour>
  </outline>
</glyph>
<glyph name="gravecomb" format="2">
  <unicode hex="0300"/>
  <anchor x="0" y="549" name="_top"/>
  <outline>
    <contour>
      <point x="13" y="611.0"/>
      <point x="62" y="614"/>
      <point x="94" y="627" type="curve"/>
      <point x="33" y="692"/>
      <point x="3" y="730"/>
      <point x="-18" y="814" type="curve"/>
      <point x="-64.0" y="814.0"/>
      <point x="-125" y="812"/>
      <point x="-172" y="794" type="curve" smooth="yes"/>
      <point x="-193" y="786.0"/>
      <point x="-197.0" y="767"/>
      <point x="-191" y="750" type="curve" smooth="yes"/>
      <point x="-167" y="683"/>
      <point x="-138" y="655"/>
      <point x="-89" y="627" type="curve" smooth="yes"/>
      <point x="-74" y="618"/>
      <point x="-48.0" y="611.0"/>
      <point x="-16" y="611" type="curve" smooth="yes"/>
    </contour>
  </outline>
</glyph>
<glyph name="uni0302" format="2">
  <unicode hex="0302"/>
  <anchor x="0" y="549" name="_top"/>
  <outline>
    <contour>
      <point x="-79" y="610.0" type="line"/>
      <point x="-51" y="663.0"/>
      <point x="3" y="710.0"/>
      <point x="68" y="731.0" type="curve"/>
      <point x="68" y="789.0"/>
      <point x="30" y="820.0"/>
      <point x="-15" y="820.0" type="curve"/>
      <point x="-39" y="820.0" type="line"/>
      <point x="-84" y="799.0"/>
      <point x="-149" y="744.0"/>
      <point x="-178" y="700.0" type="curve" smooth="yes"/>
      <point x="-194" y="675.0"/>
      <point x="-201" y="657.0"/>
      <point x="-201" y="649.0" type="curve" smooth="yes"/>
      <point x="-201" y="626.0"/>
      <point x="-135" y="610.0"/>
      <point x="-85" y="610.0" type="curve"/>
    </contour>
    <contour>
      <point x="215" y="626.0" type="curve"/>
      <point x="184" y="695.0"/>
      <point x="142" y="750.0"/>
      <point x="93" y="787.0" type="curve"/>
      <point x="50" y="819.0"/>
      <point x="20" y="820.0"/>
      <point x="-10" y="820.0" type="curve"/>
      <point x="-18" y="820.0" type="line"/>
      <point x="-37" y="820.0"/>
      <point x="-64" y="791.0"/>
      <point x="-76" y="729.0" type="curve"/>
      <point x="-1" y="705.0"/>
      <point x="28" y="683.0"/>
      <point x="60" y="639.0" type="curve" smooth="yes"/>
      <point x="71" y="620.0"/>
      <point x="88" y="610.0"/>
      <point x="121" y="610.0" type="curve" smooth="yes"/>
      <point x="155" y="610.0"/>
      <point x="190" y="615.0"/>
    </contour>
  </outline>
</glyph>
<glyph name="uni0312" format="2">
  <unicode hex="0312"/>
  <anchor x="0" y="549" name="_top"/>
  <outline>
    <contour>
      <point x="61" y="832" type="curve" smooth="yes"/>
      <point x="25.183908045977013" y="832.0"/>
      <point x="-7" y="824"/>
      <point x="-26" y="805" type="curve" smooth="yes"/>
      <point x="-62.0" y="769.0"/>
      <point x="-79" y="721"/>
      <point x="-79" y="666" type="curve" smooth="yes"/>
      <point x="-79" y="626"/>
      <point x="-51" y="610"/>
      <point x="13" y="610" type="curve" smooth="yes"/>
      <point x="49.054054054054056" y="610.0"/>
      <point x="73.40058061931204" y="613.8066389094555"/>
      <point x="105" y="624" type="curve"/>
      <point x="105.0" y="713.6281407035176"/>
      <point x="108" y="748"/>
      <point x="122" y="820" type="curve"/>
      <point x="107.98346611172305" y="825.3909745724142"/>
      <point x="88.23214285714286" y="832.0"/>
    </contour>
  </outline>
</glyph>
<glyph name="uni0315" format="2">
  <unicode hex="0315"/>
  <anchor x="0" y="611" name="_caronslovak"/>
  <outline>
    <contour>
      <point x="-30" y="491" type="curve" smooth="yes"/>
      <point x="-0.2830188679245289" y="491.0"/>
      <point x="21" y="496"/>
      <point x="38" y="513" type="curve" smooth="yes"/>
      <point x="74" y="549"/>
      <point x="96" y="599"/>
      <point x="96" y="657" type="curve" smooth="yes"/>
      <point x="96.0" y="697.0"/>
      <point x="68" y="713.0"/>
      <point x="4" y="713.0" type="curve" smooth="yes"/>
      <point x="-25" y="713.0"/>
      <point x="-45" y="710"/>
      <point x="-70" y="702" type="curve"/>
      <point x="-70" y="611"/>
      <point x="-73" y="576"/>
      <point x="-86" y="503" type="curve"/>
      <point x="-73.41201656781773" y="497.75500690325737"/>
      <point x="-54.60606060606061" y="491.0"/>
    </contour>
  </outline>
</glyph>
<glyph name="uni0326" format="2">
  <unicode hex="0326"/>
  <anchor x="0" y="-11" name="_bottom"/>
  <outline>
    <contour>
      <point x="-22" y="-260.0" type="curve" smooth="yes"/>
      <point x="15" y="-260"/>
      <point x="29.0" y="-254.0"/>
      <point x="43" y="-240" type="curve" smooth="yes"/>
      <point x="71" y="-212"/>
      <point x="94.0" y="-159"/>
      <point x="94" y="-109" type="curve" smooth="yes"/>
      <point x="94.0" y="-69.0"/>
      <point x="66" y="-57.0"/>
      <point x="7" y="-57" type="curve" smooth="yes"/>
      <point x="-12" y="-57"/>
      <point x="-63" y="-59"/>
      <point x="-86" y="-66" type="curve"/>
      <point x="-86.0" y="-146"/>
      <point x="-93" y="-181"/>
      <point x="-122" y="-237" type="curve"/>
      <point x="-93" y="-254"/>
      <point x="-62.0" y="-260"/>
    </contour>
  </outline>
</glyph>
<glyph name="cedillacomb" format="2">
  <unicode hex="0327"/>
  <anchor x="0" y="0" name="_bottom"/>
  <outline>
    <contour>
      <point x="119.0" y="-112" type="curve" smooth="yes"/>
      <point x="119.0" y="-23.0"/>
      <point x="43" y="37"/>
      <point x="-3" y="53" type="curve"/>
      <point x="-3" y="66.0"/>
      <point x="-1" y="84"/>
      <point x="5" y="104" type="curve"/>
      <point x="-63" y="104.0"/>
      <point x="-60" y="103"/>
      <point x="-66" y="96" type="curve" smooth="yes"/>
      <point x="-79" y="81"/>
      <point x="-86.0" y="65"/>
      <point x="-86.0" y="49" type="curve" smooth="yes"/>
      <point x="-86" y="41"/>
      <point x="-84" y="37"/>
      <point x="-75" y="33" type="curve" smooth="yes"/>
      <point x="-47" y="21"/>
      <point x="-35.0" y="-2.0"/>
      <point x="-35" y="-41" type="curve" smooth="yes"/>
      <point x="-35" y="-71"/>
      <point x="-56" y="-87.0"/>
      <point x="-88" y="-87" type="curve" smooth="yes"/>
      <point x="-114" y="-87"/>
      <point x="-132" y="-82"/>
      <point x="-150" y="-72" type="curve"/>
      <point x="-154" y="-72" type="line"/>
      <point x="-160" y="-89"/>
      <point x="-162" y="-102"/>
      <point x="-162" y="-122" type="curve" smooth="yes"/>
      <point x="-162" y="-191"/>
      <point x="-121" y="-254"/>
      <point x="-40" y="-254" type="curve" smooth="yes"/>
      <point x="77.0" y="-254.0"/>
      <point x="119" y="-183"/>
    </contour>
  </outline>
</glyph>
<glyph name="emdash" format="2">
  <advance width="600"/>
  <unicode hex="2014"/>
  <outline>
    <contour>
      <point x="-13" y="405" type="line"/>
      <point x="-20" y="380"/>
      <point x="-24" y="345.0"/>
      <point x="-24" y="302" type="curve" smooth="yes"/>
      <point x="-24" y="214"/>
      <point x="-8" y="195"/>
      <point x="0" y="195" type="curve" smooth="yes"/>
      <point x="613" y="195" type="line"/>
      <point x="620" y="227"/>
      <point x="625" y="262"/>
      <point x="625.0" y="311.0" type="curve" smooth="yes"/>
      <point x="625.0" y="386.0"/>
      <point x="618.0" y="405.0"/>
      <point x="600" y="405" type="curve" smooth="yes"/>
    </contour>
  </outline>
</glyph>
<glyph name="dagger" format="2">
  <advance width="600"/>
  <unicode hex="2020"/>
  <outline>
    <contour>
      <point x="423" y="-150" type="curve"/>
      <point x="411" y="-104"/>
      <point x="408" y="-71"/>
      <point x="408.0" y="-16" type="curve" smooth="yes"/>
      <point x="408" y="349" type="line"/>
      <point x="408.0" y="625" type="line" smooth="yes"/>
      <point x="408" y="689"/>
      <point x="359" y="710.0"/>
      <point x="262" y="710" type="curve" smooth="yes"/>
      <point x="221" y="710"/>
      <point x="198" y="704"/>
      <point x="175" y="698" type="curve"/>
      <point x="184" y="662"/>
      <point x="188" y="625"/>
      <point x="188" y="585" type="curve" smooth="yes"/>
      <point x="188" y="349" type="line" smooth="yes"/>
      <point x="188" y="14.0"/>
      <point x="248" y="-89"/>
      <point x="285" y="-126" type="curve" smooth="yes"/>
      <point x="303.0" y="-144.0"/>
      <point x="325" y="-160.0"/>
      <point x="379" y="-160.0" type="curve" smooth="yes"/>
      <point x="403" y="-160"/>
      <point x="415" y="-154"/>
    </contour>
    <contour>
      <point x="42" y="300" type="curve"/>
      <point x="560" y="300" type="line"/>
      <point x="567" y="322"/>
      <point x="571.0" y="343.0"/>
      <point x="571.0" y="383" type="curve" smooth="yes"/>
      <point x="571" y="457"/>
      <point x="537.0" y="500.0"/>
      <point x="402" y="500.0" type="curve" smooth="yes"/>
      <point x="137" y="500" type="line" smooth="yes"/>
      <point x="51.0" y="500"/>
      <point x="30" y="469.0"/>
      <point x="30" y="386" type="curve" smooth="yes"/>
      <point x="30" y="350"/>
      <point x="33.0" y="325"/>
    </contour>
  </outline>
</glyph>
<glyph name="ellipsis" format="2">
  <advance width="600"/>
  <unicode hex="2026"/>
  <outline>
    <contour>
      <point x="170" y="-9" type="curve"/>
      <point x="170" y="168" type="line" smooth="yes"/>
      <point x="170" y="231"/>
      <point x="129" y="240.0"/>
      <point x="84" y="240" type="curve" smooth="yes"/>
      <point x="67" y="240.0"/>
      <point x="45" y="237"/>
      <point x="26" y="234" type="curve"/>
      <point x="26" y="57" type="line" smooth="yes"/>
      <point x="26" y="-6"/>
      <point x="67" y="-15.0"/>
      <point x="112" y="-15" type="curve" smooth="yes"/>
      <point x="129" y="-15.0"/>
      <point x="151" y="-12"/>
    </contour>
    <contour>
      <point x="372" y="-9" type="curve"/>
      <point x="372" y="168" type="line" smooth="yes"/>
      <point x="372" y="231"/>
      <point x="329" y="240.0"/>
      <point x="286" y="240" type="curve" smooth="yes"/>
      <point x="269" y="240.0"/>
      <point x="247" y="237"/>
      <point x="228" y="234" type="curve"/>
      <point x="228" y="57" type="line" smooth="yes"/>
      <point x="228" y="-6"/>
      <point x="269" y="-15.0"/>
      <point x="314" y="-15" type="curve" smooth="yes"/>
      <point x="331" y="-15.0"/>
      <point x="353" y="-12"/>
    </contour>
    <contour>
      <point x="574" y="-9" type="curve"/>
      <point x="574" y="168" type="line" smooth="yes"/>
      <point x="574.0" y="231.0"/>
      <point x="532" y="240.0"/>
      <point x="489" y="240" type="curve" smooth="yes"/>
      <point x="472" y="240.0"/>
      <point x="450" y="237"/>
      <point x="431" y="234" type="curve"/>
      <point x="431" y="57" type="line" smooth="yes"/>
      <point x="431" y="-6"/>
      <point x="473" y="-15.0"/>
      <point x="516" y="-15" type="curve" smooth="yes"/>
      <point x="533" y="-15.0"/>
      <point x="555" y="-12"/>
    </contour>
  </outline>
</glyph>
<glyph name="guilsinglleft" format="2">
  <advance width="600"/>
  <unicode hex="2039"/>
  <outline>
    <contour>
      <point x="515" y="491" type="line"/>
      <point x="439" y="515"/>
      <point x="388" y="522"/>
      <point x="319" y="522" type="curve" smooth="yes"/>
      <point x="280" y="522"/>
      <point x="261" y="517"/>
      <point x="241" y="503" type="curve" smooth="yes"/>
      <point x="177" y="455"/>
      <point x="135" y="404"/>
      <point x="89" y="325" type="curve"/>
      <point x="89" y="305" type="line"/>
      <point x="89" y="285"/>
      <point x="144" y="257"/>
      <point x="296" y="257" type="curve"/>
      <point x="346" y="357"/>
      <point x="400" y="407"/>
      <point x="515" y="487" type="curve"/>
    </contour>
    <contour>
      <point x="515" y="113" type="line"/>
      <point x="400" y="197"/>
      <point x="335" y="253"/>
      <point x="300" y="341" type="curve"/>
      <point x="123" y="329"/>
      <point x="89.0" y="320"/>
      <point x="89" y="309" type="curve"/>
      <point x="89" y="301" type="line"/>
      <point x="89" y="276"/>
      <point x="95" y="256"/>
      <point x="118" y="221" type="curve" smooth="yes"/>
      <point x="166" y="151"/>
      <point x="204" y="116"/>
      <point x="235" y="98" type="curve"/>
      <point x="259" y="83"/>
      <point x="278" y="78"/>
      <point x="321" y="78" type="curve" smooth="yes"/>
      <point x="393" y="78"/>
      <point x="442" y="85"/>
      <point x="515" y="109" type="curve"/>
    </contour>
  </outline>
</glyph>
<glyph name="fraction" format="2">
  <advance width="600"/>
  <unicode hex="2044"/>
  <outline>
    <contour>
      <point x="332.0" y="397.0" type="curve"/>
      <point x="352.0" y="387.0"/>
      <point x="377.0" y="381.0"/>
      <point x="411.0" y="381.0" type="curve" smooth="yes"/>
      <point x="453.0" y="381.0"/>
      <point x="482.0" y="392.0"/>
      <point x="519.0" y="429.0" type="curve" smooth="yes"/>
      <point x="574.4316404054438" y="484.4316404054438"/>
      <point x="591.0" y="570.0157068062828"/>
      <point x="591.0" y="630.0" type="curve" smooth="yes"/>
      <point x="591.0" y="690.0"/>
      <point x="546.0" y="717.0"/>
      <point x="473.0" y="717.0" type="curve" smooth="yes"/>
      <point x="438.0" y="717.0"/>
      <point x="424.0" y="715.0"/>
      <point x="394.0" y="708.0" type="curve"/>
      <point x="394.0" y="593.312292358804"/>
      <point x="375.12508650751886" y="484.2769607890263"/>
    </contour>
    <contour>
      <point x="268" y="303" type="curve"/>
      <point x="248" y="313"/>
      <point x="223" y="319"/>
      <point x="189" y="319.0" type="curve" smooth="yes"/>
      <point x="147.0" y="319"/>
      <point x="118" y="308"/>
      <point x="81" y="271" type="curve" smooth="yes"/>
      <point x="26" y="216"/>
      <point x="9.0" y="130"/>
      <point x="9.0" y="70.0" type="curve" smooth="yes"/>
      <point x="9" y="10"/>
      <point x="54" y="-17"/>
      <point x="127" y="-17" type="curve" smooth="yes"/>
      <point x="162" y="-17"/>
      <point x="176.0" y="-15.0"/>
      <point x="206" y="-8" type="curve"/>
      <point x="206.0" y="107"/>
      <point x="225" y="215"/>
    </contour>
  </outline>
</glyph>
<glyph name="uni2190" format="2">
  <advance width="600"/>
  <unicode hex="2190"/>
  <outline>
    <contour>
      <point x="283" y="346" type="curve"/>
      <point x="270" y="330"/>
      <point x="268.0" y="318.0"/>
      <point x="268.0" y="302.0" type="curve" smooth="yes"/>
      <point x="268" y="278"/>
      <point x="281" y="254.0"/>
      <point x="311" y="247" type="curve" smooth="yes"/>
      <point x="374" y="231"/>
      <point x="436.0" y="224.0"/>
      <point x="490" y="224" type="curve" smooth="yes"/>
      <point x="573" y="224" type="line"/>
      <point x="577" y="245"/>
      <point x="580" y="268"/>
      <point x="580" y="287" type="curve" smooth="yes"/>
      <point x="580" y="353"/>
      <point x="563" y="374"/>
      <point x="507" y="374" type="curve" smooth="yes"/>
      <point x="490" y="374" type="line" smooth="yes"/>
      <point x="434.0" y="374.0"/>
      <point x="364" y="365"/>
    </contour>
    <contour>
      <point x="392.0" y="433.0" type="curve"/>
      <point x="392.0" y="453.0" type="line"/>
      <point x="392.0" y="520.0"/>
      <point x="370.0" y="572.0"/>
      <point x="337.0" y="572.0" type="curve" smooth="yes"/>
      <point x="326.0" y="572.0"/>
      <point x="302.0" y="566.0"/>
      <point x="269.0" y="550.0" type="curve" smooth="yes"/>
      <point x="163.0" y="499.0"/>
      <point x="74.0" y="403.0"/>
      <point x="20.0" y="321.0" type="curve"/>
      <point x="20.0" y="310.0" type="line"/>
      <point x="20.0" y="271.0"/>
      <point x="48.0" y="247.0"/>
      <point x="127.0" y="247.0" type="curve"/>
      <point x="192.0" y="339.0"/>
      <point x="238.0" y="386.0"/>
    </contour>
    <contour>
      <point x="379.0" y="23.0" type="curve"/>
      <point x="387.0" y="45.0"/>
      <point x="389.0" y="63.0"/>
      <point x="389.0" y="87.0" type="curve" smooth="yes"/>
      <point x="389.0" y="158.0"/>
      <point x="369.0" y="179.0"/>
      <point x="347.0" y="187.0" type="curve" smooth="yes"/>
      <point x="230.0" y="225.0"/>
      <point x="189.0" y="270.0"/>
      <point x="130.0" y="346.0" type="curve" smooth="yes"/>
      <point x="123.0" y="356.0"/>
      <point x="122.0" y="363.0"/>
      <point x="122.0" y="366.0" type="curve" smooth="yes"/>
      <point x="122.0" y="371.0"/>
      <point x="122.0" y="375.0"/>
      <point x="122.0" y="380.0" type="curve"/>
      <point x="46.0" y="353.0"/>
      <point x="20.0" y="323.0"/>
      <point x="20.0" y="314.0" type="curve"/>
      <point x="20.0" y="306.0" type="line"/>
      <point x="20.0" y="279.0"/>
      <point x="25.0" y="254.0"/>
      <point x="65.0" y="211.0" type="curve" smooth="yes"/>
      <point x="147.0" y="124.0"/>
      <point x="226.0" y="61.0"/>
    </contour>
  </outline>
</glyph>
<glyph name="minus" format="2">
  <advance width="600"/>
  <unicode hex="2212"/>
  <outline>
    <contour>
      <point x="561" y="194" type="line"/>
      <point x="561" y="202"/>
      <point x="561" y="209"/>
      <point x="561" y="218" type="curve" smooth="yes"/>
      <point x="561" y="304"/>
      <point x="550" y="353"/>
      <point x="525" y="377" type="curve" smooth="yes"/>
      <point x="505" y="397"/>
      <point x="481" y="406"/>
      <point x="421" y="406" type="curve" smooth="yes"/>
      <point x="55" y="406" type="line"/>
      <point x="49" y="374"/>
      <point x="44" y="339"/>
      <point x="44" y="310" type="curve" smooth="yes"/>
      <point x="44" y="217"/>
      <point x="68" y="194"/>
      <point x="148" y="194" type="curve" smooth="yes"/>
    </contour>
  </outline>
</glyph>
<glyph name="fi" format="2">
  <advance width="650"/>
  <unicode hex="FB01"/>
  <outline>
    <contour>
      <point x="299" y="0" type="curve"/>
      <point x="290" y="42"/>
      <point x="287" y="90"/>
      <point x="287" y="140" type="curve" smooth="yes"/>
      <point x="287" y="500" type="line"/>
      <point x="254" y="531"/>
      <point x="243" y="560.0"/>
      <point x="243.0" y="605" type="curve" smooth="yes"/>
      <point x="243" y="649"/>
      <point x="253" y="690"/>
      <point x="299" y="718" type="curve"/>
      <point x="299" y="759"/>
      <point x="286" y="770"/>
      <point x="264" y="770" type="curve"/>
      <point x="148" y="770.0"/>
      <point x="67" y="659.0"/>
      <point x="67" y="552" type="curve" smooth="yes"/>
      <point x="67" y="51" type="line" smooth="yes"/>
      <point x="67" y="9"/>
      <point x="102" y="-10"/>
      <point x="202" y="-10" type="curve" smooth="yes"/>
      <point x="230" y="-10"/>
      <point x="262" y="-8"/>
    </contour>
    <contour>
      <point x="135" y="542" type="curve"/>
      <point x="172.49714882057745" y="558.8737169692598"/>
      <point x="223.72727272727272" y="570.0"/>
      <point x="257" y="570" type="curve" smooth="yes"/>
      <point x="296.95327102803736" y="570.0"/>
      <point x="319" y="567"/>
      <point x="352" y="560" type="curve"/>
      <point x="356" y="560" type="line"/>
      <point x="361" y="587"/>
      <point x="363.0" y="607.6071428571429"/>
      <point x="363" y="641" type="curve" smooth="yes"/>
      <point x="363.0" y="698.4774774774775"/>
      <point x="352" y="732"/>
      <point x="333" y="751" type="curve" smooth="yes"/>
      <point x="320" y="764"/>
      <point x="303" y="770.0"/>
      <point x="264" y="770" type="curve" smooth="yes"/>
      <point x="190" y="770.0"/>
      <point x="92.33374230601751" y="661.0686261227418"/>
    </contour>
    <contour>
      <point x="5" y="500" type="curve"/>
      <point x="5" y="494"/>
      <point x="5" y="488"/>
      <point x="5" y="481" type="curve" smooth="yes"/>
      <point x="5.0" y="404.0"/>
      <point x="8" y="356.0"/>
      <point x="32" y="332" type="curve" smooth="yes"/>
      <point x="54" y="310"/>
      <point x="72" y="300.0"/>
      <point x="136" y="300" type="curve" smooth="yes"/>
      <point x="198" y="300.0"/>
      <point x="262" y="300.0"/>
      <point x="343" y="300" type="curve"/>
      <point x="348" y="320"/>
      <point x="350" y="346"/>
      <point x="350" y="373" type="curve" smooth="yes"/>
      <point x="350.0" y="470.0"/>
      <point x="340" y="500.0"/>
      <point x="307" y="500" type="curve" smooth="yes"/>
      <point x="240" y="500.0"/>
      <point x="171" y="500.0"/>
    </contour>
    <contour>
      <point x="626" y="-5" type="curve"/>
      <point x="617" y="40"/>
      <point x="614" y="90"/>
      <point x="614" y="140" type="curve" smooth="yes"/>
      <point x="614" y="485" type="line" smooth="yes"/>
      <point x="614" y="539"/>
      <point x="555" y="560"/>
      <point x="402" y="560" type="curve" smooth="yes"/>
      <point x="390" y="560" type="line"/>
      <point x="390" y="51" type="line" smooth="yes"/>
      <point x="390" y="9"/>
      <point x="426" y="-10"/>
      <point x="530" y="-10" type="curve" smooth="yes"/>
      <point x="558" y="-10"/>
      <point x="590" y="-9"/>
    </contour>
    <contour>
      <point x="622" y="622" type="curve"/>
      <point x="622" y="718" type="line"/>
      <point x="622" y="778"/>
      <point x="568" y="787"/>
      <point x="497" y="787" type="curve" smooth="yes"/>
      <point x="462.0" y="787.0"/>
      <point x="423.0" y="783.0"/>
      <point x="385" y="777" type="curve"/>
      <point x="385" y="681" type="line"/>
      <point x="385.0" y="621.0"/>
      <point x="433.0" y="612.0"/>
      <point x="504" y="612" type="curve" smooth="yes"/>
      <point x="539" y="612"/>
      <point x="584" y="616"/>
    </contour>
  </outline>
</glyph>
<glyph name="a.italic" format="2">
  <advance width="600"/>
  <outline>
    <contour>
      <point x="210.0" y="562.0" type="curve" smooth="yes"/>
      <point x="91.0" y="562.0"/>
      <point x="28" y="477"/>
      <point x="28.0" y="176.0" type="curve" smooth="yes"/>
      <point x="28.0" y="168.0" type="line" smooth="yes"/>
      <point x="28" y="112"/>
      <point x="75.0" y="63.0"/>
      <point x="150.0" y="63.0" type="curve" smooth="yes"/>
      <point x="210.0" y="63.0"/>
      <point x="244.0" y="74.0"/>
      <point x="272.0" y="101.0" type="curve"/>
      <point x="259.0" y="136.0"/>
      <point x="252.0" y="183.0"/>
      <point x="252.0" y="261.0" type="curve" smooth="yes"/>
      <point x="252.0" y="268.0" type="line" smooth="yes"/>
      <point x="252.0" y="374.0"/>
      <point x="277.0" y="387.0"/>
      <point x="305.0" y="387.0" type="curve" smooth="yes"/>
      <point x="340.0" y="387.0"/>
      <point x="369.0" y="377.0"/>
      <point x="389.0" y="360.0" type="curve"/>
      <point x="409.0" y="394.0"/>
      <point x="389.0" y="456.0"/>
      <point x="345.0" y="500.0" type="curve" smooth="yes"/>
      <point x="311.0" y="534.0"/>
      <point x="261.0" y="562.0"/>
    </contour>
    <contour>
      <point x="28" y="73.0"/>
      <point x="110.0" y="-10"/>
      <point x="180.0" y="-10.0" type="curve" smooth="yes"/>
      <point x="241" y="-10"/>
      <point x="303.0" y="20.0"/>
      <point x="345.0" y="82.0" type="curve" smooth="yes"/>
      <point x="393.0" y="153.0"/>
      <point x="381.0" y="225.0"/>
      <point x="347.0" y="257.0" type="curve"/>
      <point x="330.0" y="210.0"/>
      <point x="304.0" y="192.0"/>
      <point x="280.0" y="192.0" type="curve" smooth="yes"/>
      <point x="250.0" y="192.0"/>
      <point x="227.0" y="204.0"/>
      <point x="220.0" y="232.0" type="curve"/>
      <point x="192.0" y="232.0"/>
      <point x="28" y="206"/>
      <point x="28.0" y="168.0" type="curve" smooth="yes"/>
    </contour>
    <contour>
      <point x="565" y="553" type="line"/>
      <point x="539" y="558"/>
      <point x="510" y="560"/>
      <point x="480" y="560" type="curve" smooth="yes"/>
      <point x="367.0" y="560.0"/>
      <point x="340" y="544"/>
      <point x="340" y="477" type="curve" smooth="yes"/>
      <point x="340" y="156" type="line" smooth="yes"/>
      <point x="340.0" y="73.0"/>
      <point x="345" y="37"/>
      <point x="365" y="17" type="curve" smooth="yes"/>
      <point x="389" y="-7"/>
      <point x="435.0" y="-10.0"/>
      <point x="483" y="-10" type="curve" smooth="yes"/>
      <point x="517.0" y="-10.0"/>
      <point x="549.0" y="-6.0"/>
      <point x="576" y="0" type="curve"/>
      <point x="568" y="36"/>
      <point x="565.0" y="66.0"/>
      <point x="565" y="104" type="curve" smooth="yes"/>
    </contour>
  </outline>
</glyph>
<glyph name="b.replaced_with_higherjoints" format="2">
  <advance width="600"/>
  <outline>
    <contour>
      <point x="35" y="0" type="line"/>
      <point x="63" y="-5"/>
      <point x="92" y="-7"/>
      <point x="120" y="-7" type="curve" smooth="yes"/>
      <point x="227.85185185185185" y="-7.0"/>
      <point x="260" y="5.53012048192771"/>
      <point x="260" y="73" type="curve" smooth="yes"/>
      <point x="260.0" y="689" type="line" smooth="yes"/>
      <point x="260.0" y="731.0"/>
      <point x="223.7037037037037" y="750.0"/>
      <point x="120" y="750" type="curve" smooth="yes"/>
      <point x="92" y="750"/>
      <point x="60" y="748"/>
      <point x="23" y="740" type="curve"/>
      <point x="32.0" y="698"/>
      <point x="35" y="650"/>
      <point x="35" y="600" type="curve" smooth="yes"/>
    </contour>
    <contour>
      <point x="572.0" y="456"/>
      <point x="495" y="562.0"/>
      <point x="420.0" y="562.0" type="curve" smooth="yes"/>
      <point x="359.0" y="562.0"/>
      <point x="297" y="529"/>
      <point x="246.0" y="469.0" type="curve" smooth="yes"/>
      <point x="188" y="401"/>
      <point x="189.0" y="371"/>
      <point x="189.0" y="325.0" type="curve"/>
      <point x="237.0" y="347.0"/>
      <point x="284.0" y="360.0"/>
      <point x="320.0" y="360.0" type="curve" smooth="yes"/>
      <point x="425" y="360.0"/>
      <point x="477" y="342"/>
      <point x="522.0" y="294.0" type="curve"/>
      <point x="550.0" y="294.0"/>
      <point x="572.0" y="336"/>
      <point x="572.0" y="374.0" type="curve" smooth="yes"/>
    </contour>
    <contour>
      <point x="390.0" y="-10.0" type="curve" smooth="yes"/>
      <point x="509" y="-10.0"/>
      <point x="572.0" y="65"/>
      <point x="572.0" y="366.0" type="curve" smooth="yes"/>
      <point x="572.0" y="374.0" type="line" smooth="yes"/>
      <point x="572.0" y="430"/>
      <point x="525" y="489.0"/>
      <point x="450.0" y="489.0" type="curve" smooth="yes"/>
      <point x="390.0" y="489.0"/>
      <point x="356.0" y="478.0"/>
      <point x="328.0" y="451.0" type="curve"/>
      <point x="341" y="416"/>
      <point x="348.0" y="369.0"/>
      <point x="348.0" y="291.0" type="curve" smooth="yes"/>
      <point x="348.0" y="284.0" type="line" smooth="yes"/>
      <point x="348.0" y="178.0"/>
      <point x="323.0" y="165.0"/>
      <point x="295.0" y="165.0" type="curve" smooth="yes"/>
      <point x="260.0" y="165.0"/>
      <point x="231.0" y="175.0"/>
      <point x="211.0" y="192.0" type="curve"/>
      <point x="191" y="158"/>
      <point x="211" y="96"/>
      <point x="255.0" y="52.0" type="curve" smooth="yes"/>
      <point x="289" y="18"/>
      <point x="339" y="-10.0"/>
    </contour>
  </outline>
</glyph>
<glyph name="braceleft" format="2">
  <advance width="500"/>
  <outline>
    <contour>
      <point x="392" y="557" type="curve" smooth="yes"/>
      <point x="428" y="557"/>
      <point x="461" y="553"/>
      <point x="478" y="549" type="curve"/>
      <point x="482" y="549" type="line"/>
      <point x="488" y="572"/>
      <point x="490" y="590"/>
      <point x="490" y="623" type="curve" smooth="yes"/>
      <point x="490.0" y="708.0"/>
      <point x="452" y="770"/>
      <point x="400" y="770" type="curve" smooth="yes"/>
      <point x="397" y="770" type="line" smooth="yes"/>
      <point x="251.25" y="770"/>
      <point x="155.0" y="708.0"/>
      <point x="155" y="633" type="curve"/>
      <point x="155" y="631" type="line"/>
      <point x="155.0" y="583"/>
      <point x="214" y="547"/>
      <point x="282" y="540" type="curve"/>
      <point x="325.8905352549649" y="550.9726338137413"/>
      <point x="362.8333333333333" y="557.0"/>
    </contour>
    <contour>
      <point x="386" y="416" type="curve" smooth="yes"/>
      <point x="386.0" y="505.0"/>
      <point x="327.0" y="566.0"/>
      <point x="327" y="609" type="curve" smooth="yes"/>
      <point x="327" y="629"/>
      <point x="332" y="645"/>
      <point x="339" y="665" type="curve"/>
      <point x="239" y="698"/>
      <point x="155" y="682.0"/>
      <point x="155" y="631" type="curve" smooth="yes"/>
      <point x="155" y="629" type="line" smooth="yes"/>
      <point x="155" y="594"/>
      <point x="188.0" y="528"/>
      <point x="188" y="473" type="curve" smooth="yes"/>
      <point x="188.0" y="423.0"/>
      <point x="151.88741721854302" y="396.0"/>
      <point x="55" y="396.0" type="curve" smooth="yes"/>
      <point x="20" y="396" type="line"/>
      <point x="20" y="366" type="line" smooth="yes"/>
      <point x="20" y="317"/>
      <point x="60.0" y="275.0"/>
      <point x="105" y="275" type="curve"/>
      <point x="113" y="275" type="line" smooth="yes"/>
      <point x="301.5670103092783" y="275"/>
      <point x="386.0" y="342.0"/>
    </contour>
    <contour>
      <point x="386" y="184" type="curve" smooth="yes"/>
      <point x="386.0" y="258.0"/>
      <point x="301.5670103092783" y="325.0"/>
      <point x="113" y="325" type="curve" smooth="yes"/>
      <point x="82" y="325"/>
      <point x="51" y="325"/>
      <point x="20" y="385" type="curve"/>
      <point x="20" y="350" type="line" smooth="yes"/>
      <point x="20" y="276"/>
      <point x="47" y="204"/>
      <point x="95" y="204" type="curve" smooth="yes"/>
      <point x="99" y="204" type="line" smooth="yes"/>
      <point x="163.87850467289718" y="204"/>
      <point x="188.0" y="176.0"/>
      <point x="188" y="127" type="curve" smooth="yes"/>
      <point x="188" y="71"/>
      <point x="155" y="4"/>
      <point x="155" y="-31" type="curve" smooth="yes"/>
      <point x="155" y="-33" type="line" smooth="yes"/>
      <point x="155" y="-81"/>
      <point x="240" y="-98"/>
      <point x="339" y="-65" type="curve"/>
      <point x="332" y="-45"/>
      <point x="327" y="-29"/>
      <point x="327" y="-9" type="curve" smooth="yes"/>
      <point x="327" y="34"/>
      <point x="386" y="95"/>
    </contour>
    <contour>
      <point x="388" y="41" type="curve" smooth="yes"/>
      <point x="345.5342465753425" y="41.0"/>
      <point x="315.026996010373" y="51.366277788095786"/>
      <point x="264" y="76" type="curve"/>
      <point x="192" y="33"/>
      <point x="155.0" y="-1.0"/>
      <point x="155" y="-31" type="curve" smooth="yes"/>
      <point x="155" y="-33" type="line" smooth="yes"/>
      <point x="155" y="-104.0"/>
      <point x="201.4574898785425" y="-172.0"/>
      <point x="380" y="-172.0" type="curve" smooth="yes"/>
      <point x="385" y="-172.0" type="line" smooth="yes"/>
      <point x="452" y="-172"/>
      <point x="489.0" y="-90.0"/>
      <point x="489" y="47" type="curve"/>
      <point x="489" y="55" type="line"/>
      <point x="485" y="55" type="line"/>
      <point x="452" y="46"/>
      <point x="423.0" y="41.0"/>
    </contour>
  </outline>
</glyph>
<glyph name="brevecomb.case" format="2">
  <anchor x="0" y="712" name="_top"/>
  <outline>
    <contour>
      <point x="-75.0" y="950" type="curve"/>
      <point x="-121.0" y="950"/>
      <point x="-154.0" y="946"/>
      <point x="-177.0" y="933" type="curve" smooth="yes"/>
      <point x="-188.0" y="927.0"/>
      <point x="-191.0" y="917"/>
      <point x="-188.0" y="903" type="curve" smooth="yes"/>
      <point x="-170.0" y="823"/>
      <point x="-102.0" y="771.0"/>
      <point x="-4.0" y="771.0" type="curve" smooth="yes"/>
      <point x="0.0" y="771.0" type="line" smooth="yes"/>
      <point x="31.0" y="771.0"/>
      <point x="54.0" y="838.0"/>
      <point x="43.0" y="892.0" type="curve"/>
      <point x="-35.0" y="892.0"/>
      <point x="-55.0" y="902"/>
    </contour>
    <contour>
      <point x="75.0" y="950" type="curve"/>
      <point x="55.0" y="902"/>
      <point x="35.0" y="892.0"/>
      <point x="-43.0" y="892.0" type="curve"/>
      <point x="-54.0" y="838.0"/>
      <point x="-31.0" y="771.0"/>
      <point x="0.0" y="771.0" type="curve" smooth="yes"/>
      <point x="4.0" y="771.0" type="line" smooth="yes"/>
      <point x="102.0" y="771.0"/>
      <point x="170.0" y="823"/>
      <point x="188.0" y="903" type="curve" smooth="yes"/>
      <point x="191.0" y="917"/>
      <point x="188.0" y="927.0"/>
      <point x="177.0" y="933" type="curve" smooth="yes"/>
      <point x="154.0" y="946"/>
      <point x="121.0" y="950"/>
    </contour>
  </outline>
</glyph>
<glyph name="comma" format="2">
  <advance width="600"/>
  <outline>
    <contour>
      <point x="284" y="-206.0" type="curve" smooth="yes"/>
      <point x="324.40506329113924" y="-206.0"/>
      <point x="343.228860392086" y="-199.77113960791397"/>
      <point x="368" y="-175" type="curve" smooth="yes"/>
      <point x="420" y="-123"/>
      <point x="475.0" y="-11.0"/>
      <point x="475" y="72" type="curve" smooth="yes"/>
      <point x="475" y="146"/>
      <point x="434" y="177"/>
      <point x="302" y="177" type="curve" smooth="yes"/>
      <point x="271" y="177"/>
      <point x="250" y="175"/>
      <point x="208" y="170" type="curve"/>
      <point x="208" y="52"/>
      <point x="190" y="-70.0"/>
      <point x="141" y="-156" type="curve"/>
      <point x="183.15199599647377" y="-191.29004315983852"/>
      <point x="226.99324324324326" y="-206.0"/>
    </contour>
  </outline>
</glyph>
<glyph name="exclam" format="2">
  <advance width="600"/>
  <outline>
    <contour>
      <point x="375" y="321" type="line"/>
      <point x="403.0" y="384.0"/>
      <point x="425.0" y="459.0"/>
      <point x="425" y="566" type="curve" smooth="yes"/>
      <point x="425.0" y="619" type="line" smooth="yes"/>
      <point x="425" y="682"/>
      <point x="342" y="710"/>
      <point x="260" y="710.0" type="curve" smooth="yes"/>
      <point x="220" y="710"/>
      <point x="193" y="707"/>
      <point x="160" y="700" type="curve"/>
      <point x="170" y="664"/>
      <point x="176" y="626"/>
      <point x="176" y="584" type="curve" smooth="yes"/>
      <point x="176" y="576" type="line" smooth="yes"/>
      <point x="176.0" y="499.0"/>
      <point x="195" y="392"/>
      <point x="228" y="359" type="curve" smooth="yes"/>
      <point x="255.1709474956549" y="331.8290525043451"/>
      <point x="288.0" y="321.0"/>
      <point x="353" y="321" type="curve" smooth="yes"/>
    </contour>
    <component base="period"/>
  </outline>
</glyph>
<glyph name="f.italic" format="2">
  <advance width="450"/>
  <outline>
    <contour>
      <point x="168.0" y="542.0" type="curve"/>
      <point x="208" y="560"/>
      <point x="264" y="570.0"/>
      <point x="300.0" y="570.0" type="curve" smooth="yes"/>
      <point x="354" y="570.0"/>
      <point x="379" y="566"/>
      <point x="424.0" y="553.0" type="curve"/>
      <point x="428.0" y="553.0" type="line"/>
      <point x="434" y="584"/>
      <point x="435" y="604"/>
      <point x="435.0" y="637" type="curve" smooth="yes"/>
      <point x="435.0" y="695"/>
      <point x="424" y="728"/>
      <point x="409" y="743" type="curve" smooth="yes"/>
      <point x="386" y="766"/>
      <point x="353.0" y="770.0"/>
      <point x="310.0" y="770.0" type="curve" smooth="yes"/>
      <point x="230" y="770.0"/>
      <point x="125" y="662"/>
    </contour>
    <contour>
      <point x="332" y="-100" type="curve"/>
      <point x="323" y="-58"/>
      <point x="320.0" y="-10.0"/>
      <point x="320" y="40" type="curve" smooth="yes"/>
      <point x="320" y="500" type="line"/>
      <point x="298" y="538"/>
      <point x="291" y="577"/>
      <point x="291.0" y="622" type="curve" smooth="yes"/>
      <point x="291" y="652"/>
      <point x="302" y="682"/>
      <point x="345" y="708" type="curve"/>
      <point x="345.0" y="749.0"/>
      <point x="332.0" y="770.0"/>
      <point x="310" y="770" type="curve"/>
      <point x="188" y="770.0"/>
      <point x="100" y="659"/>
      <point x="100" y="552" type="curve" smooth="yes"/>
      <point x="100" y="-49" type="line" smooth="yes"/>
      <point x="100.0" y="-91.0"/>
      <point x="135" y="-110"/>
      <point x="235" y="-110" type="curve" smooth="yes"/>
      <point x="263" y="-110"/>
      <point x="295" y="-108"/>
    </contour>
    <contour>
      <point x="10" y="500" type="curve"/>
      <point x="10" y="494"/>
      <point x="10" y="488"/>
      <point x="10" y="481" type="curve" smooth="yes"/>
      <point x="10.0" y="404"/>
      <point x="13" y="356"/>
      <point x="37" y="332" type="curve" smooth="yes"/>
      <point x="59" y="310"/>
      <point x="79" y="300.0"/>
      <point x="146" y="300" type="curve" smooth="yes"/>
      <point x="328" y="300.0"/>
      <point x="283" y="300.0"/>
      <point x="433" y="300" type="curve"/>
      <point x="438" y="320"/>
      <point x="440.0" y="346"/>
      <point x="440.0" y="373" type="curve" smooth="yes"/>
      <point x="440.0" y="470"/>
      <point x="423.0" y="500.0"/>
      <point x="367" y="500" type="curve" smooth="yes"/>
      <point x="296" y="500.0"/>
      <point x="184" y="500.0"/>
    </contour>
  </outline>
</glyph>
<glyph name="g.italic" format="2">
  <advance width="600"/>
  <outline>
    <contour>
      <point x="210.0" y="562.0" type="curve" smooth="yes"/>
      <point x="91.0" y="562.0"/>
      <point x="28.0" y="484.70725388601034"/>
      <point x="28.0" y="211.0" type="curve" smooth="yes"/>
      <point x="28.0" y="203.0" type="line" smooth="yes"/>
      <point x="28" y="147"/>
      <point x="75.0" y="98.0"/>
      <point x="150.0" y="98.0" type="curve" smooth="yes"/>
      <point x="210.0" y="98.0"/>
      <point x="244.0" y="109.0"/>
      <point x="272.0" y="136.0" type="curve"/>
      <point x="259.0" y="171.0"/>
      <point x="252" y="218"/>
      <point x="252.0" y="296.0" type="curve" smooth="yes"/>
      <point x="252.0" y="303.0" type="line" smooth="yes"/>
      <point x="252.0" y="377.8235294117647"/>
      <point x="277.0" y="387.0"/>
      <point x="305.0" y="387.0" type="curve" smooth="yes"/>
      <point x="340.0" y="387.0"/>
      <point x="369.0" y="377.0"/>
      <point x="389.0" y="360.0" type="curve"/>
      <point x="409.0" y="394.0"/>
      <point x="389.0" y="456.0"/>
      <point x="345.0" y="500.0" type="curve" smooth="yes"/>
      <point x="311.0" y="534.0"/>
      <point x="261.0" y="562.0"/>
    </contour>
    <contour>
      <point x="28.0" y="108.0"/>
      <point x="118" y="25.0"/>
      <point x="194.0" y="25.0" type="curve" smooth="yes"/>
      <point x="251" y="25.0"/>
      <point x="306" y="58"/>
      <point x="348.0" y="120.0" type="curve" smooth="yes"/>
      <point x="394" y="188"/>
      <point x="386" y="224"/>
      <point x="373" y="268" type="curve"/>
      <point x="334" y="236"/>
      <point x="310.0" y="227.0"/>
      <point x="280.0" y="227.0" type="curve" smooth="yes"/>
      <point x="250" y="227"/>
      <point x="227.0" y="239.0"/>
      <point x="220.0" y="267.0" type="curve"/>
      <point x="192.0" y="267.0"/>
      <point x="28" y="241"/>
      <point x="28.0" y="203.0" type="curve" smooth="yes"/>
    </contour>
    <contour>
      <point x="565" y="25" type="curve" smooth="yes"/>
      <point x="565" y="446" type="line" smooth="yes"/>
      <point x="565" y="484"/>
      <point x="568" y="514"/>
      <point x="576" y="550" type="curve"/>
      <point x="549" y="556"/>
      <point x="517" y="560"/>
      <point x="483" y="560" type="curve" smooth="yes"/>
      <point x="435" y="560"/>
      <point x="394" y="557"/>
      <point x="370" y="533" type="curve" smooth="yes"/>
      <point x="350" y="513"/>
      <point x="345" y="477"/>
      <point x="345" y="394" type="curve" smooth="yes"/>
      <point x="345" y="75" type="line" smooth="yes"/>
      <point x="345" y="-10"/>
      <point x="333" y="-47"/>
      <point x="277" y="-103" type="curve"/>
      <point x="357" y="-202"/>
      <point x="565" y="-107"/>
    </contour>
    <contour>
      <point x="230" y="-42" type="curve" smooth="yes"/>
      <point x="155.0" y="-42.0"/>
      <point x="109" y="-30"/>
      <point x="51" y="-5" type="curve"/>
      <point x="47" y="-5" type="line"/>
      <point x="40" y="-39"/>
      <point x="39.0" y="-67"/>
      <point x="39" y="-96" type="curve" smooth="yes"/>
      <point x="39.0" y="-146"/>
      <point x="53" y="-192"/>
      <point x="71" y="-210" type="curve" smooth="yes"/>
      <point x="100" y="-239"/>
      <point x="157" y="-250.0"/>
      <point x="275" y="-250.0" type="curve" smooth="yes"/>
      <point x="434" y="-250.0"/>
      <point x="565.0" y="-134.0"/>
      <point x="565" y="25" type="curve" smooth="yes"/>
      <point x="565.0" y="53"/>
      <point x="543.0" y="75.0"/>
      <point x="492" y="75" type="curve"/>
      <point x="441" y="-46"/>
      <point x="300.0" y="-42.0"/>
    </contour>
  </outline>
</glyph>
<glyph name="i.italic" format="2">
  <advance width="350"/>
  <outline>
    <contour>
      <point x="6.0" y="550.0" type="curve"/>
      <point x="0.0" y="526"/>
      <point x="-5.0" y="496"/>
      <point x="-5" y="456" type="curve" smooth="yes"/>
      <point x="-5.0" y="387"/>
      <point x="15" y="328.0"/>
      <point x="33" y="328.0" type="curve" smooth="yes"/>
      <point x="56" y="328.0"/>
      <point x="70" y="346.0"/>
      <point x="123.0" y="346.0" type="curve"/>
      <point x="123.0" y="430"/>
      <point x="119" y="560"/>
      <point x="65.0" y="560.0" type="curve" smooth="yes"/>
      <point x="45" y="560.0"/>
      <point x="22" y="556"/>
    </contour>
    <contour>
      <point x="276.0" y="526.0" type="curve" smooth="yes"/>
      <point x="250" y="552"/>
      <point x="147" y="560.0"/>
      <point x="75" y="560" type="curve"/>
      <point x="65" y="560" type="line"/>
      <point x="65.0" y="165.0" type="line" smooth="yes"/>
      <point x="65" y="117"/>
      <point x="68.0" y="90.0"/>
      <point x="115" y="43" type="curve"/>
      <point x="153" y="5"/>
      <point x="272" y="9"/>
      <point x="290" y="27" type="curve"/>
      <point x="290.0" y="69"/>
      <point x="290" y="113"/>
      <point x="290.0" y="155.0" type="curve" smooth="yes"/>
      <point x="290.0" y="486.0" type="line" smooth="yes"/>
      <point x="290" y="504"/>
      <point x="285" y="517"/>
    </contour>
    <contour>
      <point x="351" y="223" type="curve"/>
      <point x="347" y="223" type="line"/>
      <point x="330" y="210"/>
      <point x="313" y="205.0"/>
      <point x="290" y="205.0" type="curve" smooth="yes"/>
      <point x="223" y="205.0"/>
      <point x="163" y="209"/>
      <point x="115" y="248" type="curve"/>
      <point x="80.0" y="212"/>
      <point x="75.0" y="83.0"/>
      <point x="115" y="43" type="curve" smooth="yes"/>
      <point x="154" y="4"/>
      <point x="199" y="-12"/>
      <point x="250" y="-12" type="curve" smooth="yes"/>
      <point x="255" y="-12" type="line" smooth="yes"/>
      <point x="297" y="-12"/>
      <point x="313" y="-5"/>
      <point x="327.0" y="9.0" type="curve" smooth="yes"/>
      <point x="348" y="30"/>
      <point x="359.0" y="85"/>
      <point x="359.0" y="145.0" type="curve" smooth="yes"/>
      <point x="359.0" y="170.0"/>
      <point x="357" y="194"/>
    </contour>
    <contour>
      <point x="310" y="622" type="curve"/>
      <point x="310" y="718" type="line"/>
      <point x="310.0" y="778.0"/>
      <point x="244" y="787.0"/>
      <point x="158" y="787" type="curve" smooth="yes"/>
      <point x="123" y="787"/>
      <point x="78" y="783"/>
      <point x="40" y="777" type="curve"/>
      <point x="40" y="681" type="line"/>
      <point x="40.0" y="621.0"/>
      <point x="106" y="612.0"/>
      <point x="192" y="612" type="curve" smooth="yes"/>
      <point x="227" y="612"/>
      <point x="272" y="616"/>
    </contour>
  </outline>
</glyph>
<glyph name="l.italic" format="2">
  <advance width="300"/>
  <outline>
    <contour>
      <point x="-29.0" y="750.0" type="curve"/>
      <point x="-35.0" y="726"/>
      <point x="-40" y="696"/>
      <point x="-40" y="656" type="curve" smooth="yes"/>
      <point x="-40" y="544.0"/>
      <point x="-20" y="528.0"/>
      <point x="-2" y="528.0" type="curve" smooth="yes"/>
      <point x="21" y="528.0"/>
      <point x="35" y="546.0"/>
      <point x="88.0" y="546.0" type="curve"/>
      <point x="88.0" y="630"/>
      <point x="84" y="760"/>
      <point x="30.0" y="760.0" type="curve" smooth="yes"/>
      <point x="10" y="760.0"/>
      <point x="-13" y="756"/>
    </contour>
    <contour>
      <point x="241.0" y="726.0" type="curve" smooth="yes"/>
      <point x="215" y="752"/>
      <point x="112" y="760.0"/>
      <point x="40" y="760" type="curve"/>
      <point x="30" y="760" type="line"/>
      <point x="30" y="193" type="line" smooth="yes"/>
      <point x="30" y="112.0"/>
      <point x="45.0" y="76.0"/>
      <point x="89" y="32" type="curve"/>
      <point x="114" y="7"/>
      <point x="243.08249674800882" y="15.08249674800882"/>
      <point x="255" y="27" type="curve"/>
      <point x="255.0" y="69"/>
      <point x="255" y="113"/>
      <point x="255.0" y="155.0" type="curve" smooth="yes"/>
      <point x="255.0" y="686.0" type="line" smooth="yes"/>
      <point x="255.0" y="704.0"/>
      <point x="250" y="717"/>
    </contour>
    <contour>
      <point x="303" y="214" type="curve"/>
      <point x="299" y="214" type="line"/>
      <point x="287.0548004654483" y="208.42557355054254"/>
      <point x="272.7543859649123" y="205.0"/>
      <point x="255" y="205.0" type="curve" smooth="yes"/>
      <point x="188" y="205.0"/>
      <point x="128" y="209"/>
      <point x="80" y="248" type="curve"/>
      <point x="54.63201153556677" y="221.90721186515438"/>
      <point x="60.6776232495684" y="60.3223767504316"/>
      <point x="89" y="32" type="curve" smooth="yes"/>
      <point x="122.29073224165542" y="-1.2907322416554194"/>
      <point x="161.17777777777778" y="-12"/>
      <point x="205" y="-12" type="curve" smooth="yes"/>
      <point x="210" y="-12" type="line" smooth="yes"/>
      <point x="249.76271186440678" y="-12"/>
      <point x="265.4672145746122" y="-5.532785425387743"/>
      <point x="279.0" y="8.0" type="curve" smooth="yes"/>
      <point x="299" y="28"/>
      <point x="311.0" y="80"/>
      <point x="311.0" y="136.0" type="curve" smooth="yes"/>
      <point x="311.0" y="161.0"/>
      <point x="309" y="185"/>
    </contour>
  </outline>
</glyph>
<glyph name="less" format="2">
  <advance width="600"/>
  <outline>
    <contour>
      <point x="540" y="431" type="curve"/>
      <point x="540" y="462" type="line"/>
      <point x="540" y="516"/>
      <point x="504" y="613"/>
      <point x="448" y="613" type="curve" smooth="yes"/>
      <point x="435" y="613"/>
      <point x="411" y="607"/>
      <point x="375" y="589" type="curve" smooth="yes"/>
      <point x="262" y="535"/>
      <point x="114" y="412"/>
      <point x="67" y="332" type="curve"/>
      <point x="67" y="315" type="line"/>
      <point x="67" y="257"/>
      <point x="117" y="251"/>
      <point x="258" y="241" type="curve" smooth="yes"/>
      <point x="295" y="314"/>
      <point x="396" y="405"/>
    </contour>
    <contour>
      <point x="524" y="-23" type="curve"/>
      <point x="531" y="-2"/>
      <point x="533" y="20"/>
      <point x="533" y="54" type="curve"/>
      <point x="533" y="133"/>
      <point x="518" y="189"/>
      <point x="482" y="201" type="curve"/>
      <point x="365" y="244"/>
      <point x="260" y="316"/>
      <point x="206" y="400" type="curve" smooth="yes"/>
      <point x="199" y="409"/>
      <point x="198" y="418"/>
      <point x="198" y="421" type="curve" smooth="yes"/>
      <point x="198" y="429"/>
      <point x="198" y="431"/>
      <point x="198" y="435" type="curve"/>
      <point x="129" y="416"/>
      <point x="67" y="360"/>
      <point x="67" y="318" type="curve" smooth="yes"/>
      <point x="67" y="310" type="line" smooth="yes"/>
      <point x="67" y="275.0"/>
      <point x="68" y="257"/>
      <point x="124" y="201" type="curve"/>
      <point x="206" y="115"/>
      <point x="351" y="22"/>
    </contour>
  </outline>
</glyph>
<glyph name="m.replaced_with_higherjoints" format="2">
  <advance width="600"/>
  <outline>
    <contour>
      <point x="196" y="0" type="curve"/>
      <point x="196.0" y="444" type="line" smooth="yes"/>
      <point x="196" y="510"/>
      <point x="195" y="523"/>
      <point x="180" y="538" type="curve" smooth="yes"/>
      <point x="165.25346509044098" y="552.746534909559"/>
      <point x="138.4659090909091" y="560.0"/>
      <point x="95" y="560" type="curve" smooth="yes"/>
      <point x="66" y="560"/>
      <point x="38" y="557"/>
      <point x="8" y="550" type="curve"/>
      <point x="16" y="511"/>
      <point x="20" y="466"/>
      <point x="20" y="410" type="curve" smooth="yes"/>
      <point x="20" y="76" type="line" smooth="yes"/>
      <point x="20" y="9"/>
      <point x="38" y="-7"/>
      <point x="115" y="-7" type="curve" smooth="yes"/>
      <point x="145.87058823529412" y="-7.0"/>
      <point x="173" y="-5"/>
    </contour>
    <contour>
      <point x="353.0" y="508.0"/>
      <point x="323.6666666666667" y="560.0"/>
      <point x="287" y="560" type="curve" smooth="yes"/>
      <point x="270" y="560"/>
      <point x="254" y="552"/>
      <point x="241" y="539" type="curve" smooth="yes"/>
      <point x="194" y="493"/>
      <point x="169" y="411"/>
      <point x="169" y="321" type="curve"/>
      <point x="201.13483417064757" y="341.4494399267757"/>
      <point x="223" y="350"/>
      <point x="242" y="350.0" type="curve" smooth="yes"/>
      <point x="258" y="350.0"/>
      <point x="269.0" y="345.0"/>
      <point x="273" y="335" type="curve"/>
      <point x="328" y="356"/>
      <point x="353.0" y="392.0"/>
      <point x="353" y="444" type="curve" smooth="yes"/>
    </contour>
    <contour>
      <point x="353" y="0" type="curve"/>
      <point x="353" y="444" type="line" smooth="yes"/>
      <point x="353" y="474"/>
      <point x="323" y="494"/>
      <point x="278" y="494" type="curve"/>
      <point x="254.0" y="314"/>
      <point x="247" y="196.0"/>
      <point x="247" y="61" type="curve" smooth="yes"/>
      <point x="247" y="58" type="line" smooth="yes"/>
      <point x="247" y="15"/>
      <point x="266.0" y="-5"/>
      <point x="308" y="-5" type="curve" smooth="yes"/>
      <point x="323" y="-5"/>
      <point x="337" y="-3"/>
    </contour>
    <contour>
      <point x="580" y="473"/>
      <point x="517" y="560"/>
      <point x="458" y="560" type="curve" smooth="yes"/>
      <point x="435" y="560"/>
      <point x="412" y="549"/>
      <point x="394" y="531" type="curve" smooth="yes"/>
      <point x="345" y="482"/>
      <point x="318" y="404"/>
      <point x="318" y="321" type="curve"/>
      <point x="348.0" y="342.0"/>
      <point x="371.0" y="350.0"/>
      <point x="399" y="350.0" type="curve" smooth="yes"/>
      <point x="436.0" y="350.0"/>
      <point x="442.0" y="340.0"/>
      <point x="448" y="318" type="curve"/>
      <point x="562.0" y="335.0"/>
      <point x="580.0" y="363.0"/>
      <point x="580" y="392" type="curve" smooth="yes"/>
    </contour>
    <contour>
      <point x="592" y="0" type="curve"/>
      <point x="584" y="38"/>
      <point x="580" y="84"/>
      <point x="580" y="140" type="curve" smooth="yes"/>
      <point x="580" y="392" type="line"/>
      <point x="580.0" y="434.0"/>
      <point x="509.0" y="467.0"/>
      <point x="441" y="467" type="curve"/>
      <point x="413.0" y="307.0"/>
      <point x="404" y="196.0"/>
      <point x="404" y="62" type="curve" smooth="yes"/>
      <point x="404" y="58" type="line" smooth="yes"/>
      <point x="404" y="8.950819672131146"/>
      <point x="433.0" y="-10.0"/>
      <point x="505" y="-10" type="curve" smooth="yes"/>
      <point x="532" y="-10"/>
      <point x="561" y="-7"/>
    </contour>
  </outline>
</glyph>
<glyph name="n.replaced_with_higherjoints" format="2">
  <advance width="600"/>
  <outline>
    <contour>
      <point x="260" y="0" type="curve"/>
      <point x="260.0" y="444" type="line" smooth="yes"/>
      <point x="260" y="491"/>
      <point x="253" y="518"/>
      <point x="237" y="534" type="curve" smooth="yes"/>
      <point x="217.57126341817832" y="553.4287365818217"/>
      <point x="185.8125" y="560.0"/>
      <point x="120" y="560" type="curve" smooth="yes"/>
      <point x="86.0" y="560.0"/>
      <point x="54.0" y="557.0"/>
      <point x="23" y="550" type="curve"/>
      <point x="31" y="512"/>
      <point x="35" y="467"/>
      <point x="35" y="410" type="curve" smooth="yes"/>
      <point x="35" y="76" type="line" smooth="yes"/>
      <point x="35" y="9.0"/>
      <point x="61.96296296296296" y="-7.0"/>
      <point x="175" y="-7" type="curve" smooth="yes"/>
      <point x="205" y="-7"/>
      <point x="234" y="-5"/>
    </contour>
    <contour>
      <point x="565.0" y="462.0"/>
      <point x="479" y="564.0"/>
      <point x="407" y="564.0" type="curve" smooth="yes"/>
      <point x="353.0" y="564.0"/>
      <point x="285.2440017787451" y="526.2440017787451"/>
      <point x="228.0" y="469.0" type="curve" smooth="yes"/>
      <point x="201" y="442"/>
      <point x="189" y="396"/>
      <point x="189" y="319" type="curve"/>
      <point x="243.8874333941506" y="339.32867903487056"/>
      <point x="296.0" y="354.0"/>
      <point x="333.0" y="354.0" type="curve" smooth="yes"/>
      <point x="361.0" y="354.0"/>
      <point x="385.0" y="345.0"/>
      <point x="388" y="322" type="curve"/>
      <point x="536" y="322"/>
      <point x="565.0" y="355.75"/>
      <point x="565.0" y="376.0" type="curve" smooth="yes"/>
    </contour>
    <contour>
      <point x="577" y="-5" type="curve"/>
      <point x="569" y="37"/>
      <point x="565" y="84"/>
      <point x="565" y="140" type="curve" smooth="yes"/>
      <point x="565" y="376" type="line"/>
      <point x="565" y="429"/>
      <point x="476" y="471"/>
      <point x="381" y="471" type="curve"/>
      <point x="347" y="308"/>
      <point x="337.0" y="204.0"/>
      <point x="337.0" y="86" type="curve" smooth="yes"/>
      <point x="337.0" y="82" type="line" smooth="yes"/>
      <point x="337" y="13"/>
      <point x="376.8666666666667" y="-10.0"/>
      <point x="475" y="-10" type="curve" smooth="yes"/>
      <point x="511" y="-10"/>
      <point x="544" y="-8"/>
    </contour>
  </outline>
</glyph>
<glyph name="period" format="2">
  <advance width="600"/>
  <outline>
    <contour>
      <point x="430" y="0" type="curve"/>
      <point x="430.0" y="131" type="line" smooth="yes"/>
      <point x="430.0" y="220.0"/>
      <point x="379.0" y="251.0"/>
      <point x="280.0" y="251.0" type="curve" smooth="yes"/>
      <point x="231.0" y="251.0"/>
      <point x="202.0" y="247.0"/>
      <point x="170.0" y="239.0" type="curve"/>
      <point x="170.0" y="108" type="line" smooth="yes"/>
      <point x="170.0" y="19.0"/>
      <point x="221" y="-12"/>
      <point x="320" y="-12.0" type="curve" smooth="yes"/>
      <point x="369" y="-12"/>
      <point x="398" y="-8"/>
    </contour>
  </outline>
</glyph>
<glyph name="r.italic" format="2">
  <advance width="600"/>
  <outline>
    <contour>
      <point x="19" y="550" type="curve"/>
      <point x="11" y="503"/>
      <point x="8" y="478"/>
      <point x="8" y="447" type="curve" smooth="yes"/>
      <point x="8" y="378"/>
      <point x="24" y="340"/>
      <point x="53" y="340.0" type="curve" smooth="yes"/>
      <point x="95" y="340"/>
      <point x="185" y="351"/>
      <point x="236" y="363" type="curve"/>
      <point x="236" y="460"/>
      <point x="214" y="560"/>
      <point x="193" y="560" type="curve" smooth="yes"/>
      <point x="122" y="560"/>
      <point x="49" y="556"/>
    </contour>
    <contour>
      <point x="375" y="-5" type="curve"/>
      <point x="367" y="37"/>
      <point x="363" y="84"/>
      <point x="363" y="140" type="curve" smooth="yes"/>
      <point x="363" y="397" type="line" smooth="yes"/>
      <point x="363" y="457"/>
      <point x="275" y="560"/>
      <point x="193" y="560" type="curve" smooth="yes"/>
      <point x="175" y="560"/>
      <point x="158" y="556"/>
      <point x="140" y="548" type="curve"/>
      <point x="140" y="82" type="line" smooth="yes"/>
      <point x="140" y="13"/>
      <point x="175" y="-10"/>
      <point x="273" y="-10" type="curve" smooth="yes"/>
      <point x="309" y="-10"/>
      <point x="342" y="-8"/>
    </contour>
    <contour>
      <point x="350" y="255" type="curve"/>
      <point x="369.0" y="325.0"/>
      <point x="399.0" y="350"/>
      <point x="457" y="350" type="curve" smooth="yes"/>
      <point x="500" y="350.0"/>
      <point x="520" y="346"/>
      <point x="571" y="321" type="curve"/>
      <point x="575" y="321" type="line"/>
      <point x="585" y="355"/>
      <point x="590.0" y="383.0"/>
      <point x="590.0" y="430" type="curve" smooth="yes"/>
      <point x="590.0" y="521.0"/>
      <point x="559" y="570"/>
      <point x="502" y="570" type="curve" smooth="yes"/>
      <point x="497" y="570" type="line" smooth="yes"/>
      <point x="430" y="570"/>
      <point x="360" y="534"/>
      <point x="326" y="453" type="curve" smooth="yes"/>
      <point x="307" y="410"/>
      <point x="326" y="321"/>
    </contour>
  </outline>
</glyph>
<glyph name="r.replaced_with_higherjoints" format="2">
  <advance width="600"/>
  <outline>
    <contour>
      <point x="19" y="550" type="curve"/>
      <point x="11" y="503"/>
      <point x="8" y="478"/>
      <point x="8" y="447" type="curve" smooth="yes"/>
      <point x="8" y="378"/>
      <point x="24" y="340"/>
      <point x="53" y="340.0" type="curve" smooth="yes"/>
      <point x="95" y="340"/>
      <point x="185" y="351"/>
      <point x="236" y="363" type="curve"/>
      <point x="236" y="460"/>
      <point x="214" y="560"/>
      <point x="193" y="560" type="curve" smooth="yes"/>
      <point x="122" y="560"/>
      <point x="49" y="556"/>
    </contour>
    <contour>
      <point x="363" y="77" type="curve"/>
      <point x="363.0" y="397" type="line" smooth="yes"/>
      <point x="363" y="476"/>
      <point x="275" y="560"/>
      <point x="193" y="560" type="curve" smooth="yes"/>
      <point x="175" y="560"/>
      <point x="158" y="556"/>
      <point x="140" y="548" type="curve"/>
      <point x="140" y="281" type="line" smooth="yes"/>
      <point x="140" y="153"/>
      <point x="223" y="77"/>
    </contour>
    <contour>
      <point x="27" y="210" type="line"/>
      <point x="22" y="183"/>
      <point x="19" y="158"/>
      <point x="19" y="131" type="curve" smooth="yes"/>
      <point x="19" y="74"/>
      <point x="28" y="40"/>
      <point x="48" y="20" type="curve" smooth="yes"/>
      <point x="63" y="5"/>
      <point x="82" y="0"/>
      <point x="129" y="0" type="curve" smooth="yes"/>
      <point x="523" y="0" type="line"/>
      <point x="528" y="19"/>
      <point x="533" y="44"/>
      <point x="533.0" y="74" type="curve" smooth="yes"/>
      <point x="533.0" y="169.0"/>
      <point x="478.0" y="210.0"/>
      <point x="360" y="210" type="curve" smooth="yes"/>
    </contour>
    <contour>
      <point x="283" y="302" type="curve"/>
      <point x="366" y="342"/>
      <point x="397" y="350"/>
      <point x="457" y="350" type="curve" smooth="yes"/>
      <point x="500.25688073394497" y="350.0"/>
      <point x="520.8135341356622" y="346.0709220560022"/>
      <point x="572" y="321" type="curve"/>
      <point x="576" y="321" type="line"/>
      <point x="586" y="352"/>
      <point x="590" y="383"/>
      <point x="590.0" y="430" type="curve" smooth="yes"/>
      <point x="590.0" y="521.0"/>
      <point x="558.8780487804878" y="570"/>
      <point x="502" y="570" type="curve" smooth="yes"/>
      <point x="497" y="570" type="line" smooth="yes"/>
      <point x="430" y="570"/>
      <point x="372" y="536"/>
      <point x="322" y="468" type="curve" smooth="yes"/>
      <point x="296" y="432"/>
      <point x="283" y="377"/>
    </contour>
  </outline>
</glyph>
<glyph name="uni0300.case" format="2">
  <anchor x="0" y="712" name="_top"/>
  <outline>
    <contour>
      <point x="13.0" y="762.0"/>
      <point x="62.0" y="765"/>
      <point x="94.0" y="776" type="curve"/>
      <point x="33.0" y="835"/>
      <point x="3.0" y="869"/>
      <point x="-18.0" y="945" type="curve"/>
      <point x="-64.0" y="945"/>
      <point x="-125.0" y="943"/>
      <point x="-172.0" y="927" type="curve" smooth="yes"/>
      <point x="-193.0" y="920"/>
      <point x="-197.0" y="902"/>
      <point x="-191.0" y="887" type="curve" smooth="yes"/>
      <point x="-167.0" y="827"/>
      <point x="-138.0" y="802"/>
      <point x="-89.0" y="776" type="curve" smooth="yes"/>
      <point x="-74.0" y="768"/>
      <point x="-48.0" y="762.0"/>
      <point x="-16.0" y="762.0" type="curve" smooth="yes"/>
    </contour>
  </outline>
</glyph>
<glyph name="uni0302.case" format="2">
  <anchor x="0" y="712" name="_top"/>
  <outline>
    <contour>
      <point x="-67.0" y="766.0" type="line"/>
      <point x="-39.0" y="814"/>
      <point x="15.0" y="856.0"/>
      <point x="80.0" y="875" type="curve"/>
      <point x="80.0" y="927"/>
      <point x="30.0" y="955.0"/>
      <point x="-15.0" y="955.0" type="curve"/>
      <point x="-39.0" y="955.0" type="line"/>
      <point x="-84.0" y="936"/>
      <point x="-149.0" y="887"/>
      <point x="-178.0" y="847.0" type="curve" smooth="yes"/>
      <point x="-194.0" y="824"/>
      <point x="-201.0" y="808"/>
      <point x="-201.0" y="801" type="curve" smooth="yes"/>
      <point x="-201.0" y="780"/>
      <point x="-123.0" y="766.0"/>
      <point x="-73.0" y="766.0" type="curve"/>
    </contour>
    <contour>
      <point x="215.0" y="780" type="curve"/>
      <point x="184.0" y="842"/>
      <point x="142.0" y="892.0"/>
      <point x="93.0" y="925" type="curve"/>
      <point x="50.0" y="954"/>
      <point x="20.0" y="955.0"/>
      <point x="-10.0" y="955.0" type="curve"/>
      <point x="-18.0" y="955.0" type="line"/>
      <point x="-37.0" y="955.0"/>
      <point x="-74.0" y="929"/>
      <point x="-86.0" y="873" type="curve"/>
      <point x="-11.0" y="852"/>
      <point x="18.0" y="828"/>
      <point x="50.0" y="788" type="curve"/>
      <point x="62.0" y="771.0"/>
      <point x="78.0" y="762.0"/>
      <point x="111.0" y="762.0" type="curve" smooth="yes"/>
      <point x="145.0" y="762.0"/>
      <point x="190.0" y="770"/>
    </contour>
  </outline>
</glyph>
<glyph name="uni0326.case" format="2">
  <anchor x="0" y="-11" name="_bottom"/>
  <outline>
    <contour>
      <point x="-37.0" y="-270.0" type="curve" smooth="yes"/>
      <point x="5.466666666666669" y="-270.0"/>
      <point x="36.930505731923084" y="-264.06949426807694"/>
      <point x="61" y="-240" type="curve" smooth="yes"/>
      <point x="92" y="-209"/>
      <point x="111.0" y="-171.0"/>
      <point x="111.0" y="-120.0" type="curve" smooth="yes"/>
      <point x="111.0" y="-80.0"/>
      <point x="80.56521739130434" y="-64.0"/>
      <point x="11.0" y="-64.0" type="curve" smooth="yes"/>
      <point x="-29.30434782608696" y="-64.0"/>
      <point x="-56.50287729457443" y="-66.90714915455452"/>
      <point x="-92.0" y="-78.0" type="curve"/>
      <point x="-92.0" y="-161"/>
      <point x="-96" y="-192"/>
      <point x="-109.0" y="-258.0" type="curve"/>
      <point x="-92.74740726747417" y="-263.8044974044735"/>
      <point x="-69" y="-270"/>
    </contour>
  </outline>
</glyph>
<glyph name="x.replaced_with_morecasual" format="2">
  <advance width="600"/>
  <outline>
    <contour>
      <point x="505" y="-10" type="curve" smooth="yes"/>
      <point x="538" y="-10"/>
      <point x="569" y="-7"/>
      <point x="586" y="-2" type="curve"/>
      <point x="508" y="84"/>
      <point x="443" y="191"/>
      <point x="388" y="293" type="curve" smooth="yes"/>
      <point x="377" y="314"/>
      <point x="362" y="326"/>
      <point x="351" y="348" type="curve" smooth="yes"/>
      <point x="326" y="400"/>
      <point x="306" y="454"/>
      <point x="286" y="508" type="curve" smooth="yes"/>
      <point x="270" y="551"/>
      <point x="186" y="560"/>
      <point x="49" y="560" type="curve"/>
      <point x="25" y="560" type="line"/>
      <point x="79" y="421"/>
      <point x="134" y="313"/>
      <point x="196" y="219" type="curve" smooth="yes"/>
      <point x="209" y="200"/>
      <point x="223" y="192"/>
      <point x="235" y="173" type="curve" smooth="yes"/>
      <point x="257" y="138"/>
      <point x="284" y="96"/>
      <point x="311" y="63" type="curve" smooth="yes"/>
      <point x="361" y="0"/>
      <point x="421" y="-10"/>
    </contour>
    <contour>
      <point x="397" y="560" type="curve"/>
      <point x="373" y="560" type="line"/>
      <point x="347.0" y="428.0"/>
      <point x="318" y="368"/>
      <point x="275" y="316" type="curve" smooth="yes"/>
      <point x="224.8569702473553" y="254.36585926237422"/>
      <point x="261.31707317073176" y="205.0"/>
      <point x="377" y="205" type="curve"/>
      <point x="491" y="304"/>
      <point x="528.0" y="361.0"/>
      <point x="576" y="491" type="curve" smooth="yes"/>
      <point x="581" y="505"/>
      <point x="578" y="513"/>
      <point x="571" y="520" type="curve" smooth="yes"/>
      <point x="539.051892846921" y="551.948107153079"/>
      <point x="468.0853658536585" y="560.0"/>
    </contour>
    <contour>
      <point x="207.0" y="-10.0" type="curve"/>
      <point x="231.0" y="-10.0" type="line"/>
      <point x="242.0" y="101"/>
      <point x="287.0" y="171.0"/>
      <point x="315.0" y="199.0" type="curve" smooth="yes"/>
      <point x="363.11859196540945" y="247.11859196540942"/>
      <point x="340.42857142857144" y="309.0"/>
      <point x="226.0" y="309.0" type="curve"/>
      <point x="135.0" y="236.0"/>
      <point x="79.0" y="176.0"/>
      <point x="24" y="61" type="curve" smooth="yes"/>
      <point x="17" y="47"/>
      <point x="21" y="37"/>
      <point x="28.0" y="30.0" type="curve" smooth="yes"/>
      <point x="60.116119056516226" y="-2.116119056516226"/>
      <point x="135.39999999999998" y="-10.0"/>
    </contour>
  </outline>
</glyph>
<glyph name="y.italic" format="2">
  <advance width="600"/>
  <outline>
    <contour>
      <point x="23.0" y="555.0" type="curve"/>
      <point x="31.0" y="513.0"/>
      <point x="35" y="466"/>
      <point x="35.0" y="410.0" type="curve" smooth="yes"/>
      <point x="35.0" y="203.0" type="line"/>
      <point x="35.0" y="184.0"/>
      <point x="83" y="143"/>
      <point x="229.0" y="182.0" type="curve"/>
      <point x="255" y="332"/>
      <point x="265.0" y="407"/>
      <point x="265.0" y="489.0" type="curve" smooth="yes"/>
      <point x="265.0" y="493.0" type="line" smooth="yes"/>
      <point x="265.0" y="537.0"/>
      <point x="222" y="560.0"/>
      <point x="125.0" y="560.0" type="curve" smooth="yes"/>
      <point x="89.0" y="560.0"/>
      <point x="56.0" y="558.0"/>
    </contour>
    <contour>
      <point x="35.0" y="108.0"/>
      <point x="121" y="25.0"/>
      <point x="194.0" y="25.0" type="curve" smooth="yes"/>
      <point x="251" y="25.0"/>
      <point x="306" y="58"/>
      <point x="348.0" y="120.0" type="curve" smooth="yes"/>
      <point x="394" y="188"/>
      <point x="386" y="224"/>
      <point x="373" y="268" type="curve"/>
      <point x="334" y="236"/>
      <point x="310.0" y="227.0"/>
      <point x="280.0" y="227.0" type="curve" smooth="yes"/>
      <point x="250" y="227"/>
      <point x="227.0" y="239.0"/>
      <point x="220.0" y="267.0" type="curve"/>
      <point x="193" y="267.0"/>
      <point x="35.0" y="241.0"/>
      <point x="35.0" y="203.0" type="curve" smooth="yes"/>
    </contour>
    <contour>
      <point x="565" y="25" type="curve" smooth="yes"/>
      <point x="565" y="474" type="line" smooth="yes"/>
      <point x="565" y="541"/>
      <point x="539" y="557"/>
      <point x="430" y="557" type="curve" smooth="yes"/>
      <point x="400" y="557"/>
      <point x="371" y="555"/>
      <point x="345" y="550" type="curve"/>
      <point x="345" y="75" type="line" smooth="yes"/>
      <point x="345" y="-10"/>
      <point x="333" y="-47"/>
      <point x="277" y="-103" type="curve"/>
      <point x="357" y="-202"/>
      <point x="565" y="-107"/>
    </contour>
    <contour>
      <point x="230" y="-42" type="curve" smooth="yes"/>
      <point x="155.0" y="-42.0"/>
      <point x="109" y="-30"/>
      <point x="51" y="-5" type="curve"/>
      <point x="47" y="-5" type="line"/>
      <point x="40" y="-39"/>
      <point x="39.0" y="-67"/>
      <point x="39" y="-96" type="curve" smooth="yes"/>
      <point x="39.0" y="-146"/>
      <point x="53" y="-192"/>
      <point x="71" y="-210" type="curve" smooth="yes"/>
      <point x="100" y="-239"/>
      <point x="157" y="-250.0"/>
      <point x="275" y="-250.0" type="curve" smooth="yes"/>
      <point x="434" y="-250.0"/>
      <point x="565.0" y="-134.0"/>
      <point x="565" y="25" type="curve" smooth="yes"/>
      <point x="565.0" y="53"/>
      <point x="543.0" y="75.0"/>
      <point x="492" y="75" type="curve"/>
      <point x="441" y="-46"/>
      <point x="300.0" y="-42.0"/>
    </contour>
  </outline>
</glyph>
<glyph name="y.replaced_with_smoother" format="2">
  <advance width="600"/>
  <outline>
    <contour>
      <point x="233" y="518" type="curve" smooth="yes"/>
      <point x="206" y="545"/>
      <point x="136.57142857142856" y="560"/>
      <point x="52" y="560" type="curve" smooth="yes"/>
      <point x="28" y="560" type="line"/>
      <point x="40" y="419" type="line" smooth="yes"/>
      <point x="50.313274325816195" y="297.8190266716597"/>
      <point x="87.07258436063269" y="155.92741563936733"/>
      <point x="173" y="70" type="curve" smooth="yes"/>
      <point x="238" y="5"/>
      <point x="274" y="-8"/>
      <point x="305" y="-8" type="curve" smooth="yes"/>
      <point x="312" y="-8" type="line" smooth="yes"/>
      <point x="359.6595744680851" y="-8"/>
      <point x="421.8550533286215" y="28.46277308831803"/>
      <point x="424" y="140" type="curve"/>
      <point x="405" y="140" type="line"/>
      <point x="378" y="156"/>
      <point x="353" y="167"/>
      <point x="327" y="193" type="curve" smooth="yes"/>
      <point x="286.4981546736914" y="233.50184532630863"/>
      <point x="263.6450607295881" y="294.0620827613804"/>
      <point x="255" y="393" type="curve" smooth="yes"/>
      <point x="246" y="490" type="line" smooth="yes"/>
      <point x="245" y="502"/>
      <point x="243" y="508"/>
    </contour>
    <contour>
      <point x="561" y="510" type="curve" smooth="yes"/>
      <point x="530.2347316604815" y="540.7652683395185"/>
      <point x="463.37888198757764" y="560"/>
      <point x="392" y="560" type="curve" smooth="yes"/>
      <point x="368" y="560" type="line"/>
      <point x="358" y="456" type="line" smooth="yes"/>
      <point x="330" y="168"/>
      <point x="299" y="48"/>
      <point x="189" y="-62" type="curve" smooth="yes"/>
      <point x="167.0" y="-84.0"/>
      <point x="143.0" y="-104.0"/>
      <point x="73" y="-153" type="curve"/>
      <point x="73.0" y="-207.0"/>
      <point x="130.44680851063828" y="-250.0"/>
      <point x="181" y="-250.0" type="curve" smooth="yes"/>
      <point x="226.94594594594597" y="-250.0"/>
      <point x="294.03977817915" y="-238.96022182085"/>
      <point x="351" y="-182" type="curve" smooth="yes"/>
      <point x="455.7316876082335" y="-77.26831239176647"/>
      <point x="530.7336563281054" y="115.27737579841096"/>
      <point x="558" y="394" type="curve" smooth="yes"/>
      <point x="567" y="486" type="line" smooth="yes"/>
      <point x="568" y="496"/>
      <point x="567" y="504"/>
    </contour>
    <contour>
      <point x="30" y="-21" type="line"/>
      <point x="30" y="-37" type="line"/>
      <point x="30" y="-130.0"/>
      <point x="49.0" y="-193.0"/>
      <point x="77" y="-221" type="curve" smooth="yes"/>
      <point x="101" y="-245"/>
      <point x="138.7605633802817" y="-250"/>
      <point x="165" y="-250" type="curve" smooth="yes"/>
      <point x="181" y="-250" type="line"/>
      <point x="236.92134831460675" y="-250.0"/>
      <point x="260.0" y="-139.88666666666666"/>
      <point x="260" y="-51" type="curve"/>
      <point x="126.07407407407408" y="-51.0"/>
      <point x="101.60215351212449" y="-48.0408614048498"/>
      <point x="34" y="-21" type="curve"/>
    </contour>
  </outline>
</glyph>
